<?xml version="1.0" encoding="UTF-8"?>
<svg width="12px" height="12px" viewBox="0 0 12 12" version="1.1" xmlns="http://www.w3.org/2000/svg" xmlns:xlink="http://www.w3.org/1999/xlink">
    <!-- Generator: Sketch 61 (89581) - https://sketch.com -->
    <title>音乐</title>
    <desc>Created with Sketch.</desc>
    <g id="页面1" stroke="none" stroke-width="1" fill="none" fill-rule="evenodd" opacity="0.7">
        <g id="音乐" fill="#55626F" fill-rule="nonzero">
            <path d="M11.3809298,0.0146279335 L4.487945,1.15392629 C4.14592057,1.22554162 3.86854161,1.53859607 3.86854161,1.85359841 L3.86854161,2.42395513 L3.86854161,4.33900917 L3.86854161,7.34276694 C3.50227549,7.25242104 3.08579892,7.24470937 2.64378572,7.33722324 C1.18398835,7.64242853 0,8.91915624 0,10.1885244 C0,11.4579087 1.18397671,12.2389897 2.64378572,11.9340096 C4.1036122,11.6283647 5.287586,10.352023 5.287586,9.08264137 C5.287586,9.03541011 5.28545542,8.98924928 5.28214781,8.94332122 C5.28380161,8.92655287 5.287586,8.91000416 5.287586,8.89326328 L5.287586,4.08844884 L10.5810793,3.21375116 L10.5810793,7.13171239 C10.2912907,7.08218953 9.97183758,7.08697857 9.63535524,7.15729031 C8.32965211,7.43049539 7.27107422,8.57214687 7.27107422,9.70720265 C7.27107422,10.8427007 8.32965939,11.5417202 9.63535524,11.2685124 C10.9412955,10.9953073 12,9.85349504 12,8.71822485 C12,8.69862981 11.9972735,8.68035204 11.9966924,8.66119614 C11.9972735,8.65053413 12,8.64029752 12,8.62962181 L12,2.94046004 L12,1.0255132 L12,0.45515648 C12,0.140359171 11.7227418,-0.0568668724 11.38094,0.0146525098 L11.3809298,0.0146279335 Z" id="路径"></path>
        </g>
    </g>
</svg>