<?xml version="1.0" encoding="UTF-8"?>
<svg width="579px" height="296px" viewBox="0 0 579 296" version="1.1" xmlns="http://www.w3.org/2000/svg" xmlns:xlink="http://www.w3.org/1999/xlink">
    <!-- Generator: Sketch 61 (89581) - https://sketch.com -->
    <title>404</title>
    <desc>Created with Sketch.</desc>
    <g id="页面1" stroke="none" stroke-width="1" fill="none" fill-rule="evenodd" opacity="0.396949405">
        <g id="404">
            <g id="页面-1">
                <g id="404页">
                    <g id="404">
                        <polygon id="路径" fill="#005AC2" fill-rule="nonzero" points="189.410956 152.996844 189.410956 129.158439 166.382768 129.158439 166.382768 152.996844 137.124905 152.996844 178.986154 80.7614334 159.540929 80.7614334 114.168737 155.517522 114.168737 172.388055 166.382768 172.388055 166.382768 204.346643 189.410956 204.346643 189.410956 172.388055 204.192928 172.388055 204.192928 152.996844"></polygon>
                        <polygon id="路径" fill="#005AC2" fill-rule="nonzero" points="464.578899 152.996844 449.796926 152.996844 449.796926 129.158439 426.768738 129.158439 426.768738 152.996844 397.510876 152.996844 439.372125 80.7614334 419.908895 80.7614334 374.554707 155.517522 374.554707 172.388055 426.768738 172.388055 426.768738 204.346643 449.796926 204.346643 449.796926 172.388055 464.578899 172.388055"></polygon>
                        <path d="M338.274958,131.895174 C337.788828,126.601752 334.007812,122.586673 327.670109,120.624145 C316.142582,117.246825 304.175658,115.608352 292.164568,115.762839 C280.437653,115.842151 268.754763,117.206665 257.325206,119.831932 C251.383609,121.182295 244.163669,124.351147 243.479485,131.823155 C243.405492,132.589579 243.405492,133.361349 243.479485,134.127774 L247.710622,157.89416 C247.854661,158.758393 247.980695,159.694644 248.088724,160.558876 C248.260469,163.729262 249.179738,166.814058 250.771444,169.561296 C252.566356,172.12129 255.271419,173.898902 258.333477,174.530631 C259.601861,174.756296 260.900123,174.756296 262.168507,174.530631 C262.36656,174.530631 280.605461,174.404597 290.778195,174.692675 C293.010795,174.692675 295.639501,174.692675 298.394242,174.692675 C307.594714,174.692675 318.00151,174.404597 319.081801,174.386592 C320.87948,174.707157 322.726515,174.614806 324.483252,174.11652 C331.685187,171.84791 332.873507,165.114101 333.899783,158.992456 L334.15185,157.642093 C334.872044,153.663023 335.520218,149.665949 336.168392,145.668875 C336.816566,141.671801 337.446736,137.87278 338.13092,133.929721 C338.247335,133.258121 338.295593,132.576477 338.274958,131.895174 L338.274958,131.895174 Z M336.294426,133.875706 C335.610242,137.764751 334.980073,141.671801 334.349904,145.578851 C333.719734,149.485901 333.03555,153.554994 332.333362,157.516059 L332.099299,158.884427 C331.055018,164.898043 330.082757,170.587571 323.979117,172.478079 C322.493068,172.909692 320.926009,172.983726 319.405888,172.694137 L319.207835,172.694137 C319.027786,172.694137 301.004943,173.198273 290.922234,172.910196 C285.682826,172.766157 278.318847,172.730147 272.305231,172.730147 C266.651712,172.730147 262.276536,172.730147 262.132497,172.730147 C261.031159,172.92963 259.902941,172.92963 258.801602,172.730147 C256.218259,172.199438 253.936951,170.6979 252.42789,168.53502 C251.030822,166.02704 250.235701,163.228706 250.105265,160.360823 C249.961227,159.424572 249.853198,158.560339 249.709159,157.606083 L245.478022,133.929721 C245.411576,133.331399 245.411576,132.727559 245.478022,132.129237 C246.054177,125.809539 252.517914,123.126818 257.847346,121.830469 C269.125123,119.206906 280.658041,117.83624 292.236587,117.743371 C304.054428,117.551207 315.832608,119.160082 327.165973,122.514653 C331.109033,123.720977 335.916324,126.385694 336.438465,132.129237 C336.452484,132.714853 336.4042,133.3003 336.294426,133.875706 Z" id="形状" fill="#FFFFFF" fill-rule="nonzero" opacity="0.8"></path>
                        <path d="M352.426761,135.406117 C351.706275,133.99577 350.457041,132.927773 348.951827,132.435319 L348.951827,132.435319 C347.749045,120.652801 343.017437,109.507793 335.376179,100.458726 C336.598428,97.7470481 336.194876,94.5787923 334.331891,92.2600909 C332.468905,89.9413895 329.461946,88.864869 326.55065,89.4743312 C323.639354,90.0837934 321.316691,92.2760379 320.540193,95.1472992 C302.796582,82.4701428 278.957861,82.4701428 261.214251,95.1472992 C260.470452,92.2332507 258.140735,89.9916634 255.200183,89.3607344 C252.259632,88.7298054 249.215397,89.8183499 247.341618,92.170767 C245.467838,94.5231841 245.087682,97.7337563 246.360259,100.458726 C238.65917,109.584536 233.917879,120.838038 232.766606,132.723397 C231.528714,133.274388 230.517943,134.234302 229.903837,135.442127 C229.196153,136.863933 229.079648,138.507959 229.57975,140.015356 L237.933995,165.330159 C238.754605,167.774023 241.045566,169.419744 243.623524,169.417257 L244.253693,169.417257 C242.20551,172.80608 241.127998,176.692597 241.138856,180.652276 C241.166066,191.327436 248.864329,200.437478 259.385382,202.245021 C269.906435,204.052564 280.203793,198.034213 283.792318,187.980245 L300.446793,187.980245 C303.361698,195.718324 310.375225,201.16381 318.594264,202.070417 C326.813302,202.977025 334.845104,199.191125 339.376517,192.274419 C343.90793,185.357712 344.171088,176.482261 340.057437,169.309228 C340.546871,169.196004 341.023468,169.033117 341.47982,168.823097 C342.895856,168.113709 343.97128,166.869844 344.468623,165.366168 L352.822868,140.051366 C353.329202,138.513649 353.186139,136.835905 352.426761,135.406117 Z M346.935285,131.80515 L343.874463,130.796879 C343.90145,130.425268 343.90145,130.05219 343.874463,129.680579 C343.565589,126.280296 341.913048,123.143708 339.283229,120.966237 C337.415872,115.082476 334.486783,109.590434 330.640907,104.761883 C332.064791,104.269619 333.315543,103.375332 334.241875,102.187191 C341.180863,110.644864 345.581914,120.895253 346.935285,131.751135 L346.935285,131.80515 Z M328.156239,91.2042396 C331.442258,91.253437 334.080199,93.9314685 334.079845,97.2178556 C334.084179,100.086063 332.038929,102.547938 329.218525,103.069428 C327.107482,100.636753 324.768163,98.4119882 322.232647,96.4256427 C322.613011,93.4431046 325.149547,91.2072524 328.156239,91.2042396 L328.156239,91.2042396 Z M290.868219,87.5127031 C311.170857,87.4454211 329.377522,100.00199 336.528489,119.00371 C335.106055,118.205543 333.603324,117.559791 332.045284,117.077192 C319.148095,113.28224 305.750819,111.461133 292.308606,111.675741 C279.192945,111.75386 266.126105,113.281545 253.346136,116.230965 C250.46263,116.851893 247.684799,117.889031 245.09992,119.309792 C252.163682,100.150284 270.448152,87.4475408 290.868219,87.5127031 L290.868219,87.5127031 Z M253.580199,91.2042396 C256.586892,91.2072524 259.123428,93.4431046 259.503791,96.4256427 C256.948489,98.4284375 254.596522,100.677883 252.481904,103.141447 C249.405756,102.603374 247.257746,99.7941846 247.544717,96.6845451 C247.831688,93.5749056 250.457531,91.2062686 253.580199,91.2402493 L253.580199,91.2042396 Z M247.40454,102.151181 C248.367322,103.360515 249.662867,104.261764 251.131541,104.743878 C247.243697,109.640084 244.295296,115.213356 242.435204,121.182295 C239.841399,123.263913 238.209204,126.313713 237.91599,129.626564 C237.889097,130.058262 237.889097,130.491215 237.91599,130.922913 L234.783148,131.967193 C236.091722,121.036454 240.467514,110.699346 247.40454,102.151181 L247.40454,102.151181 Z M241.805035,166.968599 C240.837773,166.473508 240.101504,165.620986 239.752483,164.59196 L231.452253,139.367182 C231.103346,138.34635 231.187937,137.227142 231.686316,136.27035 C232.149993,135.316857 232.971992,134.585472 233.97293,134.235803 L238.132048,132.867435 L242.759291,158.776398 C242.90333,159.730654 243.047369,160.75693 243.191408,161.765201 C243.388359,163.671889 243.72536,165.561498 244.199678,167.41872 C243.381648,167.531097 242.548645,167.399571 241.805035,167.040618 L241.805035,166.968599 Z M240.004551,131.823155 C239.923096,131.123328 239.923096,130.416415 240.004551,129.716589 C240.652725,122.514653 247.92668,119.453831 253.922291,118.085463 C266.574827,115.137591 279.515576,113.603783 292.506659,113.512234 C305.752439,113.319717 318.950577,115.140987 331.649178,118.913686 C336.096373,120.264049 341.515829,123.270856 342.127994,129.716589 C342.203209,130.392685 342.203209,131.075039 342.127994,131.751135 C341.37179,136.132313 340.645595,140.495485 339.949408,144.840653 C339.21121,149.305853 338.491016,153.843072 337.680799,158.236252 L337.410726,159.784668 C336.294426,166.248405 335.142116,172.96421 328.246263,175.106786 C326.558604,175.58133 324.78442,175.661415 323.06087,175.340849 L322.880822,175.340849 C322.682768,175.340849 302.463335,175.917004 291.174301,175.592916 C285.322729,175.412868 277.058508,175.376858 270.378713,175.376858 C264.04101,175.376858 259.107685,175.376858 258.945641,175.376858 C257.702338,175.612145 256.425933,175.612145 255.18263,175.376858 C252.264862,174.777271 249.687631,173.082741 247.980695,170.641586 C246.395633,167.82311 245.495187,164.67155 245.351988,161.441114 C245.189945,160.378828 245.063911,159.334547 244.883862,158.362286 L240.004551,131.823155 Z M245.69408,170.857644 C245.856333,171.171841 246.042954,171.472843 246.25223,171.757886 C247.271533,173.322776 248.61649,174.649309 250.19529,175.646931 C249.697752,176.93234 249.400217,178.286429 249.313053,179.66201 L243.101383,179.66201 C243.259979,176.598665 244.115958,173.611976 245.604056,170.929663 L245.69408,170.857644 Z M243.209412,181.462494 L249.403077,181.462494 C249.514559,183.238845 249.973338,184.976088 250.75344,186.575868 L245.351988,189.6727 C244.031784,187.151861 243.2703,184.376131 243.119388,181.534513 L243.209412,181.462494 Z M246.360259,191.329145 L251.761711,188.250318 C252.760206,189.725719 254.031316,190.996828 255.506717,191.995324 L252.409885,197.396776 C249.956868,195.861892 247.86291,193.817059 246.270235,191.401164 L246.360259,191.329145 Z M262.240526,200.493608 C259.386447,200.354969 256.594249,199.612429 254.048325,198.315022 L257.127152,192.913571 C258.729002,193.690933 260.464521,194.155368 262.240526,194.281939 L262.240526,200.493608 Z M251.257557,180.580257 C251.25664,179.190509 251.50672,177.812019 251.995773,176.511163 C252.5796,176.770155 253.181317,176.986773 253.796257,177.159337 C253.77841,177.489185 253.77841,177.819756 253.796257,178.149603 L253.796257,181.912615 C253.796257,185.223899 256.480584,187.908226 259.791868,187.908226 L272.629318,187.908226 C269.501169,191.94363 264.152835,193.542721 259.323004,191.886662 C254.493173,190.230604 251.251358,185.686112 251.257557,180.580257 L251.257557,180.580257 Z M264.167044,200.565627 L264.167044,194.371963 C265.942976,194.244955 267.678413,193.780542 269.280418,193.003595 L272.37725,198.405046 C269.801534,199.722864 266.968365,200.460349 264.07702,200.565627 L264.167044,200.565627 Z M274.0517,197.432785 L270.918858,192.031334 C272.405951,191.032264 273.679071,189.746902 274.663865,188.250318 L280.065316,191.34715 C278.512106,193.807125 276.426229,195.886849 273.961676,197.432785 L274.0517,197.432785 Z M281.037578,189.762724 L277.850721,187.96224 L281.847795,187.96224 C281.58355,188.57966 281.282942,189.180876 280.947553,189.762724 L281.037578,189.762724 Z M259.773864,185.999713 C257.516622,185.999713 255.686765,184.169857 255.686765,181.912615 L255.686765,178.149603 C255.669947,177.921852 255.669947,177.693171 255.686765,177.46542 C256.739369,177.590121 257.803013,177.590121 258.855617,177.46542 C259.05367,177.46542 279.489161,177.303376 290.886224,177.627463 C293.406901,177.627463 296.287676,177.735492 299.438522,177.735492 C309.773299,177.735492 321.458439,177.42941 322.610749,177.375395 C324.366462,177.680287 326.164958,177.637466 327.904171,177.249362 C327.99031,177.566187 328.032715,177.893306 328.030408,178.221623 L328.030408,181.984634 C328.030408,184.234863 326.211319,186.061819 323.961112,186.071732 L259.773864,185.999713 Z M302.589369,187.908226 L306.478414,187.908226 L303.381582,189.70871 C303.00348,189.11455 302.751412,188.52039 302.499345,187.908226 L302.589369,187.908226 Z M304.389853,191.34715 L309.791304,188.232313 C310.7898,189.707714 312.06091,190.978824 313.536311,191.977319 L310.421474,197.378771 C307.952345,195.849189 305.854992,193.78874 304.281824,191.34715 L304.389853,191.34715 Z M320.27012,200.511613 C317.401905,200.390339 314.594339,199.646979 312.041909,198.333027 L315.174751,192.931576 C316.770748,193.704685 318.500714,194.163156 320.27012,194.281939 L320.27012,200.511613 Z M311.879865,187.908226 L324.051136,187.908226 C327.358317,187.898339 330.03686,185.219795 330.046747,181.912615 L330.046747,178.149603 C330.033224,177.625757 329.9546,177.105626 329.812684,176.601187 C330.581972,176.272988 331.322711,175.881541 332.027279,175.430873 C333.78383,179.129394 333.519058,183.470639 331.326053,186.928277 C329.133048,190.385914 325.318808,192.475912 321.224376,192.46345 C317.538704,192.48821 314.048905,190.806459 311.771836,187.908226 L311.879865,187.908226 Z M322.178633,200.511613 L322.178633,194.335953 C323.957877,194.19453 325.696598,193.730871 327.310012,192.967585 L330.406844,198.369037 C327.813087,199.670607 324.970513,200.401204 322.070604,200.511613 L322.178633,200.511613 Z M332.063289,197.342761 L328.984462,191.94131 C330.468066,190.952786 331.740945,189.679908 332.729468,188.196303 L338.13092,191.293135 C336.542963,193.739836 334.434178,195.805584 331.95526,197.342761 L332.063289,197.342761 Z M339.031162,189.6727 L333.62971,186.593873 C334.42097,184.996171 334.891943,183.259074 335.016083,181.480499 L341.209747,181.480499 C341.036459,184.342379 340.257043,187.134774 338.923132,189.6727 L339.031162,189.6727 Z M341.245757,179.553981 L335.034087,179.553981 C334.918593,177.67334 334.422439,175.835733 333.575696,174.152529 C335.068755,172.702117 336.229711,170.945328 336.97861,169.003146 C337.248683,169.003146 337.53676,169.147184 337.824837,169.219204 C339.869868,172.288467 341.017246,175.867789 341.137728,179.553981 L341.245757,179.553981 Z M351.058393,139.367182 L342.578115,164.66398 C342.236786,165.691749 341.506425,166.544915 340.543568,167.040618 C339.598811,167.515964 338.503194,167.59376 337.50075,167.256676 C338.183214,164.937536 338.700646,162.572992 339.049166,160.180775 L339.319239,158.668368 C340.129457,154.185164 340.867655,149.665949 341.587849,145.218754 C342.272032,141.059637 342.938211,136.900519 343.694415,132.615368 L348.357668,134.163784 C350.489131,134.866543 351.649137,137.162389 350.950364,139.295163 L351.058393,139.367182 Z" id="形状" fill="#005AC2" fill-rule="nonzero"></path>
                        <path d="M306.38839,187.908226 L303.291558,189.70871 C303.00348,189.132555 302.751412,188.538395 302.499345,187.908226 L306.38839,187.908226 Z" id="路径" fill="#F0F5F9" fill-rule="nonzero"></path>
                        <path d="M281.757771,187.908226 C281.522815,188.52358 281.252286,189.124755 280.947553,189.70871 L277.760697,187.908226 L281.757771,187.908226 Z" id="路径" fill="#F0F5F9" fill-rule="nonzero"></path>
                        <path d="M341.137728,179.553981 L334.926058,179.553981 C334.810564,177.67334 334.31441,175.835733 333.467666,174.152529 C334.960726,172.702117 336.121681,170.945328 336.870581,169.003146 C337.140653,169.003146 337.428731,169.147184 337.716808,169.219204 C339.800089,172.276955 340.985168,175.857141 341.137728,179.553981 Z" id="路径" fill="#F0F5F9" fill-rule="nonzero"></path>
                        <path d="M341.137728,181.480499 C340.986806,184.337058 340.232015,187.129171 338.923132,189.6727 L333.521681,186.593873 C334.312941,184.996171 334.783914,183.259074 334.908054,181.480499 L341.137728,181.480499 Z" id="路径" fill="#F0F5F9" fill-rule="nonzero"></path>
                        <path d="M337.968876,191.34715 C336.421404,193.756972 334.369712,195.802522 331.95526,197.342761 L328.876433,191.94131 C330.360037,190.952786 331.632916,189.679908 332.621439,188.196303 L337.968876,191.34715 Z" id="路径" fill="#F0F5F9" fill-rule="nonzero"></path>
                        <path d="M330.298815,198.315022 C327.742143,199.620509 324.937759,200.369163 322.070604,200.511613 L322.070604,194.335953 C323.849848,194.19453 325.588569,193.730871 327.201983,192.967585 L330.298815,198.315022 Z" id="路径" fill="#F0F5F9" fill-rule="nonzero"></path>
                        <path d="M320.162091,194.299943 L320.162091,200.511613 C317.293876,200.390339 314.486309,199.646979 311.93388,198.333027 L315.066722,192.931576 C316.661456,193.710917 318.391479,194.175516 320.162091,194.299943 L320.162091,194.299943 Z" id="路径" fill="#F0F5F9" fill-rule="nonzero"></path>
                        <path d="M313.392272,191.977319 L310.277435,197.378771 C307.860571,195.832472 305.813623,193.773229 304.281824,191.34715 L309.683275,188.232313 C310.671152,189.704379 311.929819,190.975266 313.392272,191.977319 L313.392272,191.977319 Z" id="路径" fill="#F0F5F9" fill-rule="nonzero"></path>
                        <path d="M280.065316,191.401164 C278.531611,193.831777 276.477717,195.891821 274.0517,197.432785 L270.918858,192.031334 C272.405951,191.032264 273.679071,189.746902 274.663865,188.250318 L280.065316,191.401164 Z" id="路径" fill="#F0F5F9" fill-rule="nonzero"></path>
                        <path d="M272.287226,198.405046 C269.738837,199.710233 266.937756,200.447359 264.07702,200.565627 L264.07702,194.371963 C265.852952,194.244955 267.588389,193.780542 269.190394,193.003595 L272.287226,198.405046 Z" id="路径" fill="#F0F5F9" fill-rule="nonzero"></path>
                        <path d="M262.150502,194.389968 L262.150502,200.565627 C259.296423,200.426989 256.504225,199.684448 253.958301,198.387042 L257.037128,192.98559 C258.636468,193.775421 260.3721,194.252108 262.150502,194.389968 L262.150502,194.389968 Z" id="路径" fill="#F0F5F9" fill-rule="nonzero"></path>
                        <path d="M255.380683,192.067343 L252.283851,197.468795 C249.874603,195.914551 247.824478,193.864427 246.270235,191.455179 L251.671686,188.376352 C252.664877,189.829003 253.923216,191.081234 255.380683,192.067343 Z" id="路径" fill="#F0F5F9" fill-rule="nonzero"></path>
                        <path d="M250.663415,186.647887 L245.261964,189.744719 C243.944274,187.199182 243.194824,184.397957 243.065374,181.534513 L249.259038,181.534513 C249.387422,183.314556 249.864601,185.051977 250.663415,186.647887 L250.663415,186.647887 Z" id="路径" fill="#F0F5F9" fill-rule="nonzero"></path>
                        <path d="M250.19529,175.646931 C249.697752,176.93234 249.400217,178.286429 249.313053,179.66201 L243.101383,179.66201 C243.268093,176.617111 244.123817,173.649779 245.604056,170.983678 C245.766308,171.297875 245.95293,171.598877 246.162206,171.88392 C247.221477,173.412689 248.596883,174.695992 250.19529,175.646931 L250.19529,175.646931 Z" id="路径" fill="#F0F5F9" fill-rule="nonzero"></path>
                        <path d="M346.935285,131.751135 L343.874463,130.742864 C343.90145,130.371254 343.90145,129.998175 343.874463,129.626564 C343.565589,126.226281 341.913048,123.089694 339.283229,120.912223 C337.415872,115.028461 334.486783,109.53642 330.640907,104.707868 C332.064791,104.215605 333.315543,103.321318 334.241875,102.133176 C341.190187,110.605929 345.591784,120.876321 346.935285,131.751135 Z" id="路径" fill="#F0F5F9" fill-rule="nonzero"></path>
                        <path d="M334.079831,97.2178556 C334.084179,100.086063 332.038929,102.547938 329.218525,103.069428 C327.107482,100.636753 324.768163,98.4119882 322.232647,96.4256427 C322.655006,93.3034275 325.428235,91.0450532 328.571287,91.2637829 C331.714338,91.4825127 334.148023,94.1032441 334.133968,97.2538652 L334.079831,97.2178556 Z" id="路径" fill="#FFFFFF" fill-rule="nonzero"></path>
                        <path d="M251.131541,104.743878 C247.243697,109.640084 244.295296,115.213356 242.435204,121.182295 C239.841399,123.263913 238.209204,126.313713 237.91599,129.626564 C237.889097,130.058262 237.889097,130.491215 237.91599,130.922913 L234.783148,131.967193 C236.086513,121.038331 240.455987,110.701403 247.386535,102.151181 C248.354148,103.363388 249.656316,104.264889 251.131541,104.743878 L251.131541,104.743878 Z" id="路径" fill="#F0F5F9" fill-rule="nonzero"></path>
                        <path d="M259.503791,96.4256427 C256.948489,98.4284375 254.596522,100.677883 252.481904,103.141447 C249.466936,102.588036 247.354956,99.8495775 247.585748,96.7929401 C247.816541,93.7363027 250.315769,91.3460151 253.379653,91.2515905 C256.443536,91.1571659 259.085212,93.389018 259.503791,96.4256427 L259.503791,96.4256427 Z" id="路径" fill="#FFFFFF" fill-rule="nonzero"></path>
                        <path d="M350.950364,139.367182 L342.578115,164.66398 C342.236786,165.691749 341.506425,166.544915 340.543568,167.040618 C339.598811,167.515964 338.503194,167.59376 337.50075,167.256676 C338.183214,164.937536 338.700646,162.572992 339.049166,160.180775 L339.319239,158.668368 C340.129457,154.185164 340.867655,149.665949 341.587849,145.218754 C342.272032,141.059637 342.938211,136.900519 343.694415,132.615368 L348.357668,134.163784 C350.489131,134.866543 351.649137,137.162389 350.950364,139.295163 L350.950364,139.367182 Z" id="路径" fill="#F0F5F9" fill-rule="nonzero"></path>
                        <path d="M244.199678,167.41872 C242.243625,167.708955 240.363858,166.544565 239.752483,164.66398 L231.452253,139.367182 C231.103346,138.34635 231.187937,137.227142 231.686316,136.27035 C232.149993,135.316857 232.971992,134.585472 233.97293,134.235803 L238.132048,132.867435 L242.759291,158.776398 C242.90333,159.730654 243.047369,160.75693 243.191408,161.765201 C243.388359,163.671889 243.72536,165.561498 244.199678,167.41872 L244.199678,167.41872 Z" id="路径" fill="#F0F5F9" fill-rule="nonzero"></path>
                        <path d="M327.868162,177.177342 C326.135089,177.565874 324.342394,177.608703 322.592744,177.303376 C321.440435,177.303376 309.73729,177.645468 299.402513,177.645468 C296.34169,177.645468 293.370892,177.645468 290.868219,177.645468 C279.471157,177.321381 259.035665,177.46542 258.819607,177.46542 C257.771322,177.628681 256.706618,177.658928 255.650756,177.555444 C255.632896,177.783155 255.632896,178.011916 255.650756,178.239628 L255.650756,182.002639 C255.650756,184.249937 257.472551,186.071732 259.719849,186.071732 L323.979117,186.071732 C326.229346,186.071732 328.056302,184.252846 328.066215,182.002639 L328.066215,178.149603 C328.045378,177.81793 327.978727,177.490738 327.868162,177.177342 Z M270.810829,184.757477 C269.474924,184.764659 268.266841,183.964567 267.752243,182.731731 C267.237646,181.498894 267.518396,180.077349 268.463038,179.132707 C269.40768,178.188065 270.829225,177.907315 272.062061,178.421912 C273.294898,178.93651 274.09499,180.144593 274.087808,181.480499 C274.068231,183.28214 272.61247,184.7379 270.810829,184.757477 Z M292.848751,184.757379 C291.51446,184.757379 290.311902,183.952624 289.80299,182.719198 C289.294077,181.485772 289.579289,180.067181 290.525357,179.126284 C291.471424,178.185386 292.891556,177.907951 294.122175,178.423614 C295.352794,178.939278 296.150928,180.146228 296.143735,181.480499 C296.133731,183.293178 294.661458,184.757379 292.848751,184.757379 L292.848751,184.757379 Z M313.716359,184.757379 C312.382068,184.757379 311.17951,183.952624 310.670597,182.719198 C310.161684,181.485772 310.446897,180.067181 311.392964,179.126284 C312.339032,178.185386 313.759164,177.907951 314.989783,178.423614 C316.220402,178.939278 317.018536,180.146228 317.011343,181.480499 C317.001339,183.293178 315.529066,184.757379 313.716359,184.757379 L313.716359,184.757379 Z" id="形状" fill="#F0F5F9" fill-rule="nonzero"></path>
                        <path d="M334.349904,145.578851 C333.719734,149.485901 333.03555,153.554994 332.333362,157.516059 L332.099299,158.884427 C331.055018,164.898043 330.082757,170.587571 323.979117,172.478079 C322.493068,172.909692 320.926009,172.983726 319.405888,172.694137 L319.207835,172.694137 C319.027786,172.694137 301.004943,173.198273 290.922234,172.910196 C285.682826,172.766157 278.318847,172.730147 272.305231,172.730147 C266.651712,172.730147 262.276536,172.730147 262.132497,172.730147 C261.031159,172.92963 259.902941,172.92963 258.801602,172.730147 C256.218259,172.199438 253.936951,170.6979 252.42789,168.53502 C251.030822,166.02704 250.235701,163.228706 250.105265,160.360823 C249.961227,159.424572 249.853198,158.560339 249.709159,157.606083 L245.478022,133.929721 C245.411576,133.331399 245.411576,132.727559 245.478022,132.129237 C246.054177,125.809539 252.517914,123.126818 257.847346,121.830469 C269.125123,119.206906 280.658041,117.83624 292.236587,117.743371 C304.054428,117.551207 315.832608,119.160082 327.165973,122.514653 C331.109033,123.720977 335.916324,126.385694 336.438465,132.129237 C336.452484,132.714853 336.4042,133.3003 336.294426,133.875706 C335.610242,137.764751 334.980073,141.671801 334.349904,145.578851 Z" id="路径" fill="#005AC2" fill-rule="nonzero"></path>
                        <path d="M336.528489,119.00371 C335.112318,118.205616 333.615561,117.559838 332.063289,117.077192 C319.1661,113.28224 305.768824,111.461133 292.326611,111.675741 C279.19892,111.751502 266.119891,113.2792 253.328131,116.230965 C250.451614,116.856234 247.680337,117.893189 245.09992,119.309792 C252.179529,100.232675 270.347456,87.5457619 290.695711,87.4696263 C311.043965,87.3934906 329.306322,99.944095 336.528489,118.9677 L336.528489,119.00371 Z" id="路径" fill="#FFFFFF" fill-rule="nonzero"></path>
                        <path d="M296.143637,181.480499 C296.133666,183.300173 294.650455,184.767234 292.83078,184.757381 C291.011105,184.747328 289.54403,183.264132 289.553864,181.444457 C289.563899,179.624782 291.047081,178.157692 292.866756,178.167509 C294.682337,178.187344 296.143744,179.664811 296.143637,181.480499 Z" id="路径" fill="#DFE8F3" fill-rule="nonzero"></path>
                        <path d="M317.029249,181.480499 C317.029249,183.310157 315.546018,184.793389 313.716359,184.793389 C311.8867,184.793389 310.403469,183.310157 310.403469,181.480499 C310.403469,179.65084 311.8867,178.167608 313.716359,178.167608 C315.541926,178.17745 317.019408,179.654932 317.029249,181.480499 L317.029249,181.480499 Z" id="路径" fill="#DFE8F3" fill-rule="nonzero"></path>
                        <path d="M274.12372,181.480499 C274.104236,183.302026 272.632357,184.773906 270.810829,184.793389 C268.981171,184.793389 267.497939,183.310157 267.497939,181.480499 C267.497939,179.65084 268.981171,178.167608 270.810829,178.167608 C272.640488,178.167608 274.12372,179.65084 274.12372,181.480499 L274.12372,181.480499 Z" id="路径" fill="#DFE8F3" fill-rule="nonzero"></path>
                        <g id="编组" opacity="0.6">
                            <path d="M75.5122916,25.9528884 C80.9137431,21.6497321 83.7765123,17.8327064 82.7142269,15.4560677 C81.6519414,13.0794291 77.3127754,12.647313 70.7770191,13.6555839 C71.7351976,15.0741768 72.5666297,16.5743694 73.2616868,18.1387886 C74.3633173,20.6291778 75.1204831,23.2580574 75.5122916,25.9528884 Z" id="路径"></path>
                            <path d="M17.2306302,36.7557914 C11.3430481,41.2930106 8.22821108,45.3440992 9.34451105,47.8107621 C10.460811,50.2774249 15.8442577,50.7275459 23.5323236,49.2871588 C21.679189,47.1117711 20.1398305,44.6875844 18.9590947,42.0852235 C18.2185217,40.3663397 17.6398615,38.5821373 17.2306302,36.7557914 L17.2306302,36.7557914 Z" id="路径"></path>
                            <path d="M26.7371848,52.49202 C35.4441417,60.0401325 47.7370171,61.8568684 58.2551121,57.1499823 C68.7732072,52.4430961 75.6093269,42.0660647 75.7823642,30.5441222 C68.0246497,35.5979745 59.858026,39.9944607 51.3678035,43.6876541 C43.3987204,47.2576832 35.1635934,50.2013799 26.7371848,52.49202 L26.7371848,52.49202 Z" id="路径" fill="#5687B9" fill-rule="nonzero"></path>
                            <path d="M73.2796916,18.0487644 C72.5846345,16.4843452 71.7532025,14.9841526 70.795024,13.5655597 C70.0684222,12.4788206 69.2746646,11.4385171 68.4183853,10.4507227 C59.8816526,0.74930112 46.0502496,-2.31619195 34.2139555,2.86989797 C22.3776615,8.0559879 15.2552114,20.302443 16.6004609,33.1548237 C16.7262923,34.3683722 16.9368628,35.5716317 17.2306302,36.7557914 C17.6663462,38.5661633 18.2690907,40.3322047 19.031114,42.031209 C20.2118498,44.6335699 21.7512084,47.0577566 23.6043429,49.2331443 C32.720502,47.3111402 41.59663,44.3886599 50.0714551,40.5188026 C59.1090293,36.7090877 67.6515875,31.8181255 75.5122916,25.9528884 C75.1342541,23.2282279 74.3830049,20.5685634 73.2796916,18.0487644 L73.2796916,18.0487644 Z" id="路径" fill="#5687B9" fill-rule="nonzero"></path>
                            <path d="M91.9507089,11.5490178 C90.1502251,7.56994859 81.0397769,7.40790504 68.4363902,10.3967082 C69.2864973,11.3850198 70.074233,12.4253121 70.795024,13.5115452 C77.2587609,12.5572888 81.7059559,13.0794291 82.7322317,15.312029 C83.7585075,17.544629 80.9317479,21.5056934 75.5302964,25.8088497 C67.652656,31.7168467 59.0854151,36.6443706 50.0174406,40.4827929 C41.5435316,44.4095173 32.6611003,47.3864301 23.5323236,49.3591781 C15.8442577,50.7995652 10.460811,50.4214636 9.34451105,47.8827814 C8.22821108,45.3440992 11.3430481,41.3110155 17.2306302,36.7557914 C16.9368628,35.5716317 16.7262923,34.3683722 16.6004609,33.1548237 C5.09536922,40.6808461 -1.53041125,47.9367959 0.30608225,52.0779087 C2.14257575,56.2190215 12.6574013,56.2370264 26.7371848,52.49202 C35.1635934,50.2013799 43.3987204,47.2576832 51.3678035,43.6876541 C59.858026,39.9944607 68.0246497,35.5979745 75.7823642,30.5441222 C87.2154364,22.9640853 93.7691976,15.7261403 91.9507089,11.5490178 Z" id="路径" fill="#005AC2" fill-rule="nonzero"></path>
                        </g>
                        <g id="编组" opacity="0.6" transform="translate(453.966132, 218.112428)">
                            <path d="M96.5138495,60.4141488 C105.516269,60.9362891 111.601904,59.6939553 112.718204,56.4890941 C113.834504,53.2842329 109.855435,48.9990814 102.743524,44.3178234 C102.434028,46.5277808 101.940174,48.707969 101.267127,50.8355749 C100.136039,54.23402 98.5361815,57.4579753 96.5138495,60.4141488 L96.5138495,60.4141488 Z" id="路径"></path>
                            <path d="M30.4721028,20.3173741 C20.8215095,19.6151854 14.2677484,20.8575192 13.205463,24.2064191 C12.1431775,27.555319 16.986479,32.6866979 25.8088497,37.9621155 C25.8726211,34.2213527 26.4791069,30.5096599 27.6093335,26.9431545 C28.3489783,24.647895 29.3076477,22.4290878 30.4721028,20.3173741 Z" id="路径"></path>
                            <path d="M26.0609175,43.9577267 C27.9914293,58.8123371 38.3376086,71.2108098 52.6067122,75.7692099 C66.8758157,80.32761 82.4938527,76.2236518 92.678819,65.2394455 C80.7530322,63.4090171 69.0024273,60.5782717 57.5513795,56.7771715 C46.740907,53.3191037 36.2129312,49.0332725 26.0609175,43.9577267 L26.0609175,43.9577267 Z" id="路径" fill="#5687B9" fill-rule="nonzero"></path>
                            <path d="M101.195107,50.8355749 C102.336884,47.0804494 102.943022,43.182984 102.99615,39.2584639 C103.059067,22.5170905 92.3484425,7.6338494 76.4538171,2.376617 C60.5591916,-2.8806154 43.0863855,2.68080519 33.1548237,16.1582564 C30.7913932,19.46252 28.9400626,23.1044819 27.6633481,26.9611594 C26.5331214,30.5276648 25.9266356,34.2393576 25.8628642,37.9801204 C36.3790049,44.033162 47.5316175,48.9060144 59.1178005,52.5100248 C71.2643914,56.6604329 83.8700023,59.3206097 96.6578882,60.4321537 C98.6062091,57.4581729 100.13313,54.2286147 101.195107,50.8355749 Z" id="路径" fill="#5687B9" fill-rule="nonzero"></path>
                            <path d="M103.085615,39.2584639 C103.054289,40.9519564 102.915976,42.6417769 102.671504,44.3178234 C109.783415,48.9990814 113.654456,53.3202426 112.646185,56.4890941 C111.637914,59.6579456 105.444249,60.9362891 96.4418301,60.4141488 C83.6539442,59.3026049 71.0483333,56.642428 58.9017424,52.49202 C47.3155594,48.8880096 36.1629469,44.0151572 25.6468062,37.9621155 C16.9144596,32.6866979 12.0171436,27.6453432 13.0434194,24.2064191 C14.0696952,20.767495 20.659466,19.6151854 30.3100593,20.3173741 C31.08881,18.8756384 31.9609002,17.4863084 32.9207608,16.1582564 C15.1319806,13.5475549 2.31253582,14.8799129 0.512051995,20.4794176 C-1.28843183,26.0789223 8.90230662,35.243385 25.8448594,43.8857073 C36.0201345,48.9646731 46.5723111,53.2505542 57.4073408,56.7051521 C68.8583886,60.5062523 80.6089935,63.3369977 92.5347802,65.1674261 C110.233536,67.742118 122.890938,66.40976 124.691421,60.8102553 C126.491905,55.2107506 117.921602,47.2886217 103.085615,39.2584639 Z" id="路径" fill="#005AC2" fill-rule="nonzero"></path>
                        </g>
                        <path d="M288.887687,157.516059 C288.214752,157.502346 287.565044,157.762229 287.087203,158.236252 C286.594527,158.704315 286.320293,159.357253 286.331,160.036736 C286.320408,160.719861 286.60211,161.374982 287.105208,161.83722 C288.109761,162.806728 289.701623,162.806728 290.706176,161.83722 C291.194669,161.365603 291.470565,160.715741 291.470565,160.036736 C291.470565,159.357731 291.194669,158.707869 290.706176,158.236252 C290.225157,157.755852 289.567195,157.495273 288.887687,157.516059 Z" id="路径" fill="#FFFFFF" fill-rule="nonzero"></path>
                        <path d="M293.55094,135.100035 C294.487593,135.92732 295.008649,137.127728 294.973322,138.376916 C294.995763,139.541341 294.67653,140.686823 294.055076,141.671801 C293.224018,142.864271 292.194868,143.905599 291.012258,144.750629 C289.813379,145.615798 288.79249,146.703932 288.00545,147.95549 C287.42675,149.066185 287.135801,150.304263 287.159223,151.556457 L287.159223,153.356941 L290.652161,153.356941 L290.652161,151.79052 C290.596394,150.799071 290.841126,149.813868 291.35435,148.963761 C292.161778,147.957037 293.086576,147.050371 294.10909,146.263035 C295.532522,145.142936 296.7509,143.784444 297.710058,142.247956 C298.434126,140.956378 298.806626,139.497421 298.790348,138.016819 C298.866101,135.958988 298.013407,133.97598 296.467724,132.615368 C294.723166,131.172128 292.498836,130.439256 290.23805,130.562816 C287.650147,130.551972 285.113346,131.283021 282.928086,132.669382 L282.928086,136.75648 C284.687206,134.907022 287.12745,133.859344 289.6799,133.857701 C291.081439,133.763181 292.466152,134.207577 293.55094,135.100035 L293.55094,135.100035 Z" id="路径" fill="#FFFFFF" fill-rule="nonzero"></path>
                        <circle id="椭圆形" fill="#98B5D3" fill-rule="nonzero" opacity="0.22" cx="530.04449" cy="110.847518" r="11.0729755"></circle>
                        <circle id="椭圆形" fill="#FFFFFF" fill-rule="nonzero" opacity="0.22" cx="376.211152" cy="257.370892" r="6.84183853"></circle>
                        <circle id="椭圆形备份-2" fill="#FFFFFF" fill-rule="nonzero" opacity="0.22" cx="194.5" cy="48.1836771" r="3.5"></circle>
                        <circle id="椭圆形" fill="#FFFFFF" fill-rule="nonzero" opacity="0.47" cx="467.009552" cy="37.2617442" r="7.56203206"></circle>
                        <circle id="椭圆形" fill="#FFFFFF" fill-rule="nonzero" opacity="0.2" cx="516.792929" cy="237.52956" r="7.56203206"></circle>
                        <circle id="椭圆形" fill="#FFFFFF" fill-rule="nonzero" opacity="0.4" cx="34.5152749" cy="10.5767566" r="2.19659027"></circle>
                        <circle id="椭圆形" fill="#FFFFFF" fill-rule="nonzero" opacity="0.4" cx="26.7371848" cy="31.8404705" r="3.42091927"></circle>
                        <circle id="椭圆形" fill="#005AC2" fill-rule="nonzero" opacity="0.104189918" cx="347.367402" cy="15.0617787" r="14.0617787"></circle>
                        <circle id="椭圆形备份" fill="#005AC2" fill-rule="nonzero" opacity="0.104189918" cx="71.0617787" cy="243.061779" r="14.0617787"></circle>
                    </g>
                </g>
            </g>
        </g>
    </g>
</svg>