<?xml version="1.0" encoding="UTF-8"?>
<svg width="290px" height="102px" viewBox="0 0 290 102" version="1.1" xmlns="http://www.w3.org/2000/svg">
    <!-- Generator: Sketch 52.5 (67469) - http://www.bohemiancoding.com/sketch -->
    <title>Group 2</title>
    <desc>Created with Sketch.</desc>
    <g id="页面-1" stroke="none" stroke-width="1" fill="none" fill-rule="evenodd">
        <g id="计划管理主页-5" transform="translate(-251.000000, -339.000000)">
            <g id="Group-2" transform="translate(252.000000, 340.000000)">
                <path d="M0,0 L288,0 L288,100 L0,100 L0,0 Z" id="Rectangle-8复制" stroke="#373847" stroke-width="2" stroke-dasharray="5"></path>
                <g id="分组-6" transform="translate(95.000000, 11.000000)">
                    <text id="继续添加时间段" opacity="0.3" font-family="PingFangSC-Regular, PingFang SC" font-size="14" font-weight="normal" fill="#FFFFFF">
                        <tspan x="0" y="68">继续添加时间段</tspan>
                    </text>
                    <path d="M54,25.9721144 L48.9721144,25.9721144 L48.9721144,31 L47.0278856,31 L47.0278856,25.9721144 L42,25.9721144 L42,24.0321214 L47.0278856,24.0321214 L47.0278856,19 L48.9721144,19 L48.9721144,24.0321214 L54,24.0321214 L54,25.9721144 Z M47.9978651,13 C41.3712862,13 36,18.3703308 36,25 C36,31.6254002 41.3712862,37 47.9978651,37 C54.6287138,37 60,31.6254002 60,25 C60,18.3703308 54.6287138,13 47.9978651,13 Z" id="Fill-5" fill-opacity="0.3" fill="#73747E"></path>
                </g>
            </g>
        </g>
    </g>
</svg>