<?xml version="1.0" encoding="UTF-8"?>
<svg width="20px" height="20px" viewBox="0 0 20 20" version="1.1" xmlns="http://www.w3.org/2000/svg" xmlns:xlink="http://www.w3.org/1999/xlink">
    <!-- Generator: Sketch 61.2 (89653) - https://sketch.com -->
    <title>xhdpi/资产管理</title>
    <desc>Created with Sketch.</desc>
    <g id="控件" stroke="none" stroke-width="1" fill="none" fill-rule="evenodd">
        <g id="nav" transform="translate(-35.000000, -908.000000)" fill="#FFFFFF" fill-rule="nonzero">
            <g id="资产管理">
                <path d="M37.25,928 C36,928 35,927 35,925.75 L35,914.333333 C35,913.083333 36,912.083333 37.25,912.083333 L41.3333333,912.083333 L48,908.166667 C48.25,908.083333 48.5,908 48.75,908 C49.25,908 49.75,908.25 50.0833333,908.75 L52.25,912.083333 L52.75,912.083333 C54,912.083333 55,913.083333 55,914.333333 L55,925.75 C55,927 54,928 52.75,928 L37.25,928 Z M37.25,913.333333 C36.6666667,913.333333 36.25,913.75 36.25,914.333333 L36.25,925.75 C36.25,926.333333 36.75,926.75 37.25,926.75 L52.75,926.75 C53.3333333,926.75 53.75,926.25 53.75,925.75 L53.75,922.666667 L48.25,922.666667 C46.75,922.666667 45.5833333,921.5 45.5833333,920 C45.5833333,918.5 46.75,917.333333 48.25,917.333333 L53.75,917.333333 L53.75,914.333333 C53.75,913.75 53.25,913.333333 52.75,913.333333 L37.25,913.333333 Z M48.25,918.583333 C47.5,918.583333 46.8333333,919.25 46.8333333,920 C46.8333333,920.75 47.5,921.416667 48.25,921.416667 L53.75,921.416667 L53.75,918.583333 L48.25,918.583333 Z M50.75,912.083333 L49,909.416667 C48.9166667,909.25 48.8333333,909.25 48.8333333,909.25 C48.75,909.25 48.75,909.25 48.6666667,909.333333 L43.75,912.166667 L50.75,912.166667 L50.75,912.083333 Z"></path>
            </g>
        </g>
    </g>
</svg>