<?xml version="1.0" encoding="UTF-8"?>
<svg width="20px" height="20px" viewBox="0 0 20 20" version="1.1" xmlns="http://www.w3.org/2000/svg" xmlns:xlink="http://www.w3.org/1999/xlink">
    <!-- Generator: Sketch 61.2 (89653) - https://sketch.com -->
    <title>xhdpi/基本信息</title>
    <desc>Created with Sketch.</desc>
    <g id="页面-1" stroke="none" stroke-width="1" fill="none" fill-rule="evenodd">
        <g id="人员管理-常驻人员-添加人员" transform="translate(-912.000000, -218.000000)" fill="#1890FF" fill-rule="nonzero">
            <g id="编组-2">
                <g id="编组-8" transform="translate(856.000000, 130.000000)">
                    <path d="M66.6065486,89.6856988 L66.6065486,91.1647635 L57.8464841,91.1647635 C57.6317767,91.1647635 57.4600107,91.3387711 57.4600107,91.5562806 L57.4600107,106.17292 C57.4600107,106.39043 57.6317767,106.564437 57.8464841,106.564437 L72.2748255,106.564437 C72.489533,106.564437 72.661299,106.39043 72.661299,106.17292 L72.661299,97.2985318 L74.1213097,97.2985318 L74.1213097,106.17292 C74.0783682,107.173464 73.2624799,108 72.2318841,108 L57.8464841,108 C56.8158883,108 56,107.173464 56,106.129418 L56,91.5562806 C56,90.5122349 56.8158884,89.6856988 57.8464841,89.6856988 L66.6065486,89.6856988 Z M70.2136339,102.170745 C70.5142244,102.170745 70.7718733,102.431756 70.7718733,102.73627 L70.7718733,102.866775 C70.7289318,103.171289 70.5142244,103.4323 70.2136339,103.4323 L59.6929683,103.4323 C59.3923779,103.4323 59.1776704,103.171289 59.1776704,102.866775 L59.1776704,102.73627 C59.1776704,102.431756 59.4353194,102.170745 59.6929683,102.170745 L70.2136339,102.170745 Z M64.5024155,98.8646003 C64.8030059,98.8646003 65.0177134,99.1256117 65.0177134,99.3866232 L65.0177134,99.5171289 C65.0606549,99.8216422 64.8030059,100.039152 64.5024155,100.039152 L59.6929683,100.039152 C59.3923779,100.039152 59.1776704,99.7781403 59.1776704,99.5171289 L59.1776704,99.3866232 C59.1776704,99.0821098 59.4353194,98.8646003 59.6929683,98.8646003 L64.5024155,98.8646003 Z M72.0601181,89.7727026 L74.2501342,91.9912996 L67.9806763,98.3425775 L65.7906602,98.3425775 L65.7906602,96.1239804 L72.0601181,89.7727026 Z M73.6489533,88.1631321 C73.8636608,87.9456226 74.1642512,87.9456226 74.3789587,88.1631321 L74.3789587,88.1631321 L75.8389694,89.6421968 C76.0536769,89.8597064 76.0536769,90.1642197 75.8389694,90.3817292 L75.8389694,90.3817292 L74.9801395,91.2517673 L72.7901234,89.0331702 Z" id="基本信息"></path>
                </g>
            </g>
        </g>
    </g>
</svg>