<?xml version="1.0" encoding="UTF-8"?>
<svg width="16px" height="16px" viewBox="0 0 16 16" version="1.1" xmlns="http://www.w3.org/2000/svg" xmlns:xlink="http://www.w3.org/1999/xlink">
    <!-- Generator: Sketch 53 (72520) - https://sketchapp.com -->
    <title>顶部-上一步</title>
    <desc>Created with Sketch.</desc>
    <g id="顶部-上一步" stroke="none" stroke-width="1" fill="#fff" fill-rule="evenodd">
        <g id="上一步">
            <rect id="矩形-copy-2" stroke="#979797" opacity="0" x="0.5" y="0.5" width="15" height="15"></rect>
            <path d="M8.12775193,13.35 L8.11974311,10.2631429 L6.2971643,10.2631429 C4.03352829,10.2631429 1.98613043,11.1391429 0.463310351,12.5705714 C0.414113308,12.6071429 0.355191269,12.6322857 0.287116291,12.6322857 C0.129800167,12.6322857 -5.71428573e-05,12.5054286 -5.71428573e-05,12.3482857 C-5.71428573e-05,12.3328571 0.00337520895,12.3174286 0.00337520895,12.302 C0.765929368,8.55628571 4.14794001,5.71571429 8.11974311,5.558 L8.11974311,2.26942857 C8.11974311,2.04657143 8.37659744,1.92028571 8.55393561,2.05628571 L15.8768582,7.68142857 C16.0433272,7.80942857 16.040467,8.06085714 15.8711376,8.18485714 L8.5264768,13.5517143 C8.36115185,13.6722857 8.12832399,13.5545714 8.12775193,13.35" id="Fill-1" fill="#fff" transform="translate(7.999943, 7.800180) scale(-1, 1) translate(-7.999943, -7.800180) "></path>
        </g>
    </g>
</svg>