<?xml version="1.0" encoding="UTF-8"?>
<svg width="56px" height="56px" viewBox="0 0 56 56" version="1.1" xmlns="http://www.w3.org/2000/svg" xmlns:xlink="http://www.w3.org/1999/xlink">
    <!-- Generator: Sketch 53 (72520) - https://sketchapp.com -->
    <title>插播-节目制作-创作新节目</title>
    <desc>Created with Sketch.</desc>
    <g id="插播-节目制作-创作新节目" stroke="none" stroke-width="1" fill="none" fill-rule="evenodd" fill-opacity="0.7">
        <g id="为空" fill="#73747E">
            <path d="M28,44.0686447 C27.2131544,44.0686447 26.4529406,44.1709703 25.7096742,44.319166 L24.3998789,40.9777065 L31.6013316,40.9777065 L30.2903258,44.319166 C29.5470594,44.1709703 28.7880561,44.0686447 28,44.0686447 M50.4553616,6 C51.3087864,6 52,6.67158514 52,7.50077519 L52,39.4769313 C52,40.3061214 51.3087864,40.9777065 50.4553616,40.9777065 L36.88046,40.9777065 L34.6869767,46.2057204 C36.0960355,47.2042769 37.2775144,48.4909917 38.0946232,50 L33.2125492,50 C31.8700696,48.7179898 30.0312721,47.9252606 28,47.9252606 C25.9687279,47.9252606 24.1299304,48.7179898 22.7874508,50 L17.9053768,50 C18.7236962,48.4909917 19.9039645,47.2042769 21.3130233,46.2057204 L19.11954,40.9777065 L5.54463835,40.9777065 C4.69121356,40.9777065 4,40.3061214 4,39.4769313 L4,7.50077519 C4,6.67158514 4.69121356,6 5.54463835,6 L50.4553616,6 Z M27.9976872,11 C20.8188934,11 15,16.8178584 15,24 C15,31.1775169 20.8188934,37 27.9976872,37 C35.1811066,37 41,31.1775169 41,24 C41,16.8178584 35.1811066,11 27.9976872,11 Z M36.75,22.9594952 L36.75,25.0461525 C36.75,25.5984372 36.3022847,26.0461525 35.75,26.0461525 L30.0461525,26.0461525 L30.0461525,31.75 C30.0461525,32.3022847 29.5984372,32.75 29.0461525,32.75 L26.9538475,32.75 C26.4015628,32.75 25.9538475,32.3022847 25.9538475,31.75 L25.9538475,26.0461525 L20.25,26.0461525 C19.6977153,26.0461525 19.25,25.5984372 19.25,25.0461525 L19.25,22.9594952 C19.25,22.4072105 19.6977153,21.9594952 20.25,21.9594952 L25.9538475,21.9594952 L25.9538475,16.25 C25.9538475,15.6977153 26.4015628,15.25 26.9538475,15.25 L29.0461525,15.25 C29.5984372,15.25 30.0461525,15.6977153 30.0461525,16.25 L30.0461525,21.9594952 L35.75,21.9594952 C36.3022847,21.9594952 36.75,22.4072105 36.75,22.9594952 Z" id="Fill-1"></path>
        </g>
    </g>
</svg>