<?xml version="1.0" encoding="UTF-8"?>
<svg width="56px" height="56px" viewBox="0 0 56 56" version="1.1" xmlns="http://www.w3.org/2000/svg" xmlns:xlink="http://www.w3.org/1999/xlink">
    <!-- Generator: Sketch 53 (72520) - https://sketchapp.com -->
    <title>插播-节目制作-现有节目</title>
    <desc>Created with Sketch.</desc>
    <g id="插播-节目制作-现有节目" stroke="none" stroke-width="1" fill="none" fill-rule="evenodd">
        <g id="本地">
            <g id="播放" transform="translate(5.000000, 5.000000)" fill="#73747E" fill-opacity="0.7">
                <path d="M31.9339989,0.715637206 L30.56,0.726078985 L34.2506855,8.5217834 L25.4703078,8.5217834 L21.7812143,0.715637206 L31.9339989,0.715637206 Z M33.3412143,0.715637206 L42.5101273,0.715637206 C43.1174391,0.715637206 43.6668394,0.965405096 44.0664796,1.36476574 C44.4655653,1.76446082 44.7156098,2.31347329 44.7156098,2.92106003 L44.7156098,42.510274 C44.7156098,43.1178065 44.4655637,43.6670917 44.0664796,44.0665087 C43.6668388,44.4659262 43.1174933,44.7156372 42.5101273,44.7156372 L2.92097838,44.7156372 C2.31344436,44.7156372 1.76415788,44.4659251 1.36473988,44.0665087 C0.965099109,43.6671464 0.715609753,43.1178011 0.715609753,42.510274 L0.715609753,11.5217834 L44.7,11.5217834 L44.7,8.5217834 L37.0303078,8.5217834 L33.3412143,0.715637206 Z M20.3739989,0.715637206 L19,0.726078985 L22.6906855,8.5217834 L13.9088522,8.5217834 L10.2197587,0.715637206 L20.3739989,0.715637206 Z M8.8125433,0.715637206 L7.4385444,0.726078985 L11.1292299,8.5217834 L0.715609753,8.5217834 L0.715609753,2.92100582 C0.715609753,2.31347329 0.965100735,1.76441041 1.36473988,1.36471153 C1.76415842,0.965349266 2.31344978,0.715637206 2.92097838,0.715637206 L8.8125433,0.715637206 Z M16,19.7309925 L16,36.2690075 C16,37.6506057 17.5460772,38.4700505 18.6988988,37.7089248 L31.2233606,29.4399173 C32.2588798,28.7562379 32.2588798,27.2437621 31.2233606,26.5600827 L18.6988988,18.2910752 C17.5460772,17.5299495 16,18.3493943 16,19.7309925 Z M27.1201637,28 L19.4755382,33.0472002 L19.4755382,22.9527998 L27.1201637,28 Z" id="形状"></path>
            </g>
            <rect id="矩形" stroke="#979797" stroke-width="1.16666667" opacity="0" x="0.583333333" y="0.583333333" width="54.8333333" height="54.8333333"></rect>
        </g>
    </g>
</svg>