<?xml version="1.0" encoding="UTF-8"?>
<svg width="98px" height="90px" viewBox="0 0 98 90" version="1.1" xmlns="http://www.w3.org/2000/svg" xmlns:xlink="http://www.w3.org/1999/xlink">
    <!-- Generator: Sketch 61 (89581) - https://sketch.com -->
    <title>画板</title>
    <desc>Created with Sketch.</desc>
    <g id="画板" stroke="none" stroke-width="1" fill="none" fill-rule="evenodd" opacity="0.5">
        <g id="图片" fill-rule="nonzero">
            <rect id="矩形" x="0" y="0" width="98" height="90"></rect>
            <path d="M90.6625001,6 L8.33749992,6 C6.49424963,6 5,7.37532089 5,9.07186515 L5,81.060003 C5,82.7556726 6.49520003,84.1318681 8.33749992,84.1318681 L90.6625001,84.1318681 C92.5057504,84.1318681 94,82.7565472 94,81.060003 L94,9.07186515 C94,7.37532089 92.5057504,6 90.6625001,6 L90.6625001,6 Z M87.3250001,12.1437304 L87.3250001,58.4183083 L71.54975,46.1881889 C70.2753038,45.1993195 68.4031131,45.2290597 67.1665001,46.2578178 L55.3918,56.0345408 L29.15905,33.0528931 C27.8905457,31.9369396 25.8986635,31.9190184 24.6066999,33.0119349 L11.6749999,43.8986252 L11.6749999,12.1437304 L87.3250001,12.1437304 Z M11.6749999,77.9881377 L11.6749999,51.7707919 C12.1607074,51.6505812 12.6098685,51.4291605 12.9877499,51.1236523 L26.80945,39.4833309 L53.0244,62.4485954 C54.2857833,63.5590577 56.2648973,63.5840845 57.55895,62.5059369 L69.4716,52.6186267 L86.7999,66.0447257 C86.9601,66.1676003 87.147,66.2331334 87.3250001,66.3232415 L87.3250001,77.9922335 L11.6749999,77.9922335 L11.6749999,77.9881377 Z M65.10615,39.9297754 C71.394,39.9297754 76.5115,35.2236779 76.5115,29.4362837 C76.5115,23.6488896 71.39845,18.9427921 65.10615,18.9427921 C58.82275,18.9427921 53.7097,23.6488897 53.7097,29.4362837 C53.7097,35.2236778 58.82275,39.9297754 65.10615,39.9297754 Z M65.10615,25.0906184 C67.71385,25.0906184 69.8365,27.0402288 69.8365,29.4403796 C69.8365,31.8405304 67.71385,33.7901408 65.10615,33.7901408 C62.5758121,33.6890498 60.5809339,31.7715185 60.5809339,29.4403796 C60.5809339,27.1092407 62.5758121,25.1917093 65.10615,25.0906184 L65.10615,25.0906184 Z" id="形状" fill="#81A6CB"></path>
        </g>
    </g>
</svg>