<?xml version="1.0" encoding="UTF-8"?>
<svg width="20px" height="20px" viewBox="0 0 20 20" version="1.1" xmlns="http://www.w3.org/2000/svg" xmlns:xlink="http://www.w3.org/1999/xlink">
    <!-- Generator: Sketch 61.2 (89653) - https://sketch.com -->
    <title>xhdpi/设备管理</title>
    <desc>Created with Sketch.</desc>
    <g id="页面-1" stroke="none" stroke-width="1" fill="none" fill-rule="evenodd">
        <g id="资产管理-门禁授权-人员授权" transform="translate(-35.000000, -590.000000)" fill="#FFFFFF" fill-rule="nonzero">
            <path d="M52.3341965,590 L37.7835936,590 C36.2652698,590 35,591.375 35,592.75 L35,603.875 C35,605.375 36.2652698,606.625 37.7835936,606.625 L52.2076695,606.625 C53.7259933,606.625 54.9912631,605.375 54.9912631,603.875 L54.9912631,592.75 C55.1177901,591.375 53.8525203,590 52.3341965,590 Z M53.9790473,604 C53.9790473,604.875 53.2198854,605.625 52.3341965,605.625 L37.7835936,605.625 C36.8979047,605.625 36.1387428,604.875 36.1387428,604 L36.1387428,592.75 C36.1387428,591.875 36.8979047,591.125 37.7835936,591.125 L52.2076695,591.125 C53.0933584,591.125 53.8525203,591.875 53.8525203,592.75 L53.9790473,604 Z M53.4729393,608.875 L36.6448508,608.875 C36.2652698,608.875 36.1387428,609.125 36.1387428,609.375 L36.1387428,609.5 C36.1387428,609.75 36.2652698,610 36.6448508,610 L53.4729393,610 C53.8525203,610 53.9790473,609.75 53.9790473,609.5 L53.9790473,609.375 C53.9790473,609.125 53.7259933,608.875 53.4729393,608.875 Z M50.0567108,594 C49.297549,594 48.664914,594.5 48.5383871,595.125 L38.7958094,595.125 C38.5427555,595.125 38.2897015,595.375 38.2897015,595.625 L38.2897015,596 C38.2897015,596.125 38.5427555,596.25 38.7958094,596.25 L48.5383871,596.25 C48.791441,597 49.4240759,597.375 50.0567108,597.375 C50.9423997,597.25 51.7015616,596.5 51.7015616,595.625 C51.7015616,594.75 50.9423997,594 50.0567108,594 L50.0567108,594 Z M50.0567108,596.25 C49.6771299,596.25 49.5506029,596 49.5506029,595.75 C49.5506029,595.5 49.8036569,595.25 50.0567108,595.25 C50.3097648,595.25 50.5628188,595.5 50.5628188,595.75 C50.5628188,596 50.4362918,596.25 50.0567108,596.25 Z M51.3219806,600.625 L41.579403,600.625 C41.3263491,600 40.6937142,599.5 40.0610793,599.5 C39.1753904,599.5 38.4162285,600.25 38.4162285,601.125 C38.4162285,602 39.1753904,602.75 40.0610793,602.75 C40.8202411,602.75 41.4528761,602.25 41.579403,601.625 L51.3219806,601.625 C51.5750346,601.625 51.8280886,601.375 51.8280886,601.125 L51.8280886,601 C51.7015616,600.875 51.5750346,600.625 51.3219806,600.625 Z M40.0610793,601.75 C39.6814983,601.75 39.5549713,601.5 39.5549713,601.25 C39.5549713,601 39.8080253,600.75 40.0610793,600.75 C40.3141332,600.75 40.5671872,601 40.5671872,601.25 C40.5671872,601.5 40.3141332,601.75 40.0610793,601.75 Z" id="设备管理"></path>
        </g>
    </g>
</svg>