<?xml version="1.0" encoding="UTF-8"?>
<svg width="96px" height="96px" viewBox="0 0 96 96" version="1.1" xmlns="http://www.w3.org/2000/svg">
    <!-- Generator: Sketch 52.5 (67469) - http://www.bohemiancoding.com/sketch -->
    <title>Group</title>
    <desc>Created with Sketch.</desc>
    <g id="页面-1" stroke="none" stroke-width="1" fill="none" fill-rule="evenodd">
        <g id="设备管理_终端管理(卡片）" transform="translate(-812.000000, -360.000000)">
            <g id="1备份-3" transform="translate(800.000000, 348.000000)">
                <g id="Group" transform="translate(12.000000, 12.000000)">
                    <rect id="矩形" fill-opacity="0.5" fill="#1F212C" x="0" y="0" width="96" height="96"></rect>
                    <g id="morentupian-baidi" transform="translate(11.000000, 17.000000)" fill-rule="nonzero">
                        <path d="M48.5,6.5 C48.5,10.0898509 51.4101491,13 55,13 C58.5898509,13 61.5,10.0898509 61.5,6.5 C61.5,2.91014913 58.5898509,0 55,0 C51.4101491,0 48.5,2.91014913 48.5,6.5 Z" id="路径" fill="#222430"></path>
                        <path d="M58.1203937,31.4977135 L73.0397278,56.1789307 C73.9334464,57.6629045 73.4865871,59.6120045 72.0378981,60.5274909 C71.5477944,60.837575 70.9856166,61 70.4162314,61 L40.5847705,61 C38.8838223,61 37.5,59.5824727 37.5,57.8400954 C37.5,57.2494591 37.658563,56.6735886 37.9612741,56.1789307 L52.8806082,31.4977135 C53.7743268,30.0137396 55.6770824,29.5559964 57.1257714,30.4714828 C57.5293862,30.7298862 57.8753418,31.084268 58.1203937,31.4977135 Z" id="路径" fill-opacity="0.5" fill="#1F212D"></path>
                        <path d="M29.1195562,20.4362459 L52.0050137,56.185246 C52.9364409,57.6391702 52.514388,59.5679943 51.0663097,60.5031817 C50.5642123,60.8246524 49.9820703,61 49.3853747,61 L3.61445972,61 C1.89714081,61 0.5,59.5972189 0.5,57.8729671 C0.5,57.2738626 0.674642601,56.6893705 0.994820703,56.185246 L23.8802782,20.4362459 C24.8117054,18.9823217 26.732774,18.5658711 28.1808522,19.4937523 C28.5592445,19.7421615 28.8794226,20.0636322 29.1195562,20.4362459 Z" id="路径" fill-opacity="0.7" fill="#1F212D"></path>
                    </g>
                </g>
            </g>
        </g>
    </g>
</svg>