<?xml version="1.0" encoding="UTF-8"?>
<svg width="32px" height="32px" viewBox="0 0 32 32" version="1.1" xmlns="http://www.w3.org/2000/svg">
    <!-- Generator: Sketch 52.5 (67469) - http://www.bohemiancoding.com/sketch -->
    <title>编辑 copy 4</title>
    <desc>Created with Sketch.</desc>
    <g id="页面-1" stroke="none" stroke-width="1" fill="none" fill-rule="evenodd" opacity="0.702078683">
        <g id="素材管理-缩略图模式-copy" transform="translate(-1232.000000, -274.000000)" fill="#FFFFFF">
            <g id="编辑-copy-4" transform="translate(1232.000000, 274.000000)">
                <path d="M0.656113727,32 C0.295511376,32 0.000112280701,31.7045925 0.000112280701,31.34398 L0.000112280701,2.46038701 C0.000112280701,2.09353743 0.298913285,1.79472795 0.665752469,1.79472795 L13.9405682,1.77034692 C14.1662282,1.77034692 14.3499313,1.9517872 14.3516322,2.17745356 L14.3652399,4.09164861 C14.3669408,4.32014997 14.1826708,4.50555927 13.9553098,4.50555927 L3.27785157,4.50555927 C3.00569885,4.50555927 2.78457477,4.72555562 2.78400779,4.99828305 L2.72787629,28.7420128 C2.7273093,29.0147403 2.9478664,29.2364376 3.2205861,29.2370046 L27.365068,29.2891687 C27.5221228,29.2897357 27.6485604,29.1627275 27.6491274,29.0062352 L27.663869,18.5104815 C27.663869,18.2496611 27.8776223,18.0359018 28.1384353,18.0359018 L29.9204686,18.0359018 C30.1801477,18.0359018 30.3922,18.2479601 30.3922,18.5076465 L30.3922,31.3360419 C30.3922,31.7028915 30.0951,32 29.7282608,32 L0.656113727,32 Z M16.7828065,19.6029222 C16.9409953,19.6012212 17.0901123,19.5382841 17.2029422,19.4265849 L28.5381029,8.20507005 L28.5381029,8.20450305 C28.6543348,8.08940187 28.7184041,7.93631162 28.7184041,7.77301536 C28.7184041,7.6097191 28.6549018,7.45606186 28.5386699,7.34039368 L24.6071971,3.43148946 C24.3696305,3.19618408 23.9846478,3.19675108 23.7487821,3.43262346 L12.4533103,14.7006324 C12.3410473,14.8128986 12.277545,14.9614528 12.2747101,15.1207801 L12.2089399,19.0489623 C12.2066719,19.2133926 12.2713082,19.3738538 12.3875401,19.489522 C12.5009371,19.6029222 12.6574249,19.6675603 12.8184486,19.6675603 L12.8275203,19.6675603 L16.7828065,19.6029222 Z M18.3051607,21.8068547 C18.1747542,21.9361309 18.0018239,22.009274 17.8181208,22.012676 L10.6310211,22.1300452 C10.3906195,22.1300452 10.1649596,22.0364901 9.99486413,21.8658228 C9.82306772,21.6945885 9.73008221,21.4655201 9.73348412,21.2228438 L9.84801506,14.3224428 C9.85425189,13.9952833 9.98976126,13.6777628 10.2199571,13.4498284 L23.451682,0.297675473 C23.6523947,0.0992251578 23.9160426,0 24.1791236,0 C24.4422045,0 24.7041515,0.0992251578 24.9031632,0.296541472 L31.6984764,7.05008921 C31.8929521,7.24343652 32.0001123,7.49972093 32.0001123,7.77244836 C32.0001123,8.0451758 31.8929521,8.30202721 31.6984764,8.49537451 L18.3051607,21.8068547 Z" id="Fill-12"></path>
            </g>
        </g>
    </g>
</svg>