<?xml version="1.0" encoding="UTF-8"?>
<svg width="24px" height="24px" viewBox="0 0 24 24" version="1.1" xmlns="http://www.w3.org/2000/svg" xmlns:xlink="http://www.w3.org/1999/xlink">
    <!-- Generator: Sketch 53 (72520) - https://sketchapp.com -->
    <title>左侧工具栏-橡皮</title>
    <desc>Created with Sketch.</desc>
    <g id="左侧工具栏-橡皮" stroke="none" stroke-width="1" fill="none" fill-rule="evenodd">
        <g id="橡皮">
            <polygon id="路径-6" fill="#ffffff"  points="15.1428571 2.57142857 21.4285714 7.28571429 21.4285714 8.85714286 16.7142857 15.1428571 8.85714286 8.22857143"></polygon>
            <path d="M6.9289335,18.668242 C6.95883935,18.6945362 6.95883935,18.6945362 6.9890393,18.7204922 C8.96928525,20.4127881 11.9464686,20.1793584 13.6387645,18.1991124 L21.7539418,8.70310908 C22.0324986,8.37715485 21.9983032,7.88806626 21.6770989,7.60404537 L15.6476519,2.27258196 C15.6426699,2.26820163 15.6426699,2.26820163 15.6376389,2.26387767 C15.3077527,1.98196058 14.811788,2.02084728 14.5298709,2.35073356 L3.81748674,14.8858676 C3.53892993,15.2118219 3.57312541,15.7009105 3.89432969,15.9849314 L6.9289335,18.668242 Z" id="矩形" stroke="#ffffff" stroke-width="1.57142857"></path>
            <rect id="矩形" stroke="#ffffff"  stroke-width="1.57142857" x="1.78571429" y="22.2142857" width="20.4285714" height="1" rx="0.5"></rect>
            <polygon id="矩形" fill="#ffffff"  transform="translate(11.214286, 13.571429) rotate(4.000000) translate(-11.214286, -13.571429) " points="14.1357848 16.7142857 7.28571429 11.4163578 8.29278661 10.4285714 15.1428571 15.7264994"></polygon>
            <rect id="矩形" stroke="#ffffff" opacity="0" x="0.5" y="0.5" width="23" height="23"></rect>
        </g>
    </g>
</svg>