<?xml version="1.0" encoding="UTF-8"?>
<svg width="14px" height="14px" viewBox="0 0 20 20" version="1.1" xmlns="http://www.w3.org/2000/svg" xmlns:xlink="http://www.w3.org/1999/xlink">
    <!-- Generator: Sketch 61 (89581) - https://sketch.com -->
    <title>excel备份</title>
    <desc>Created with Sketch.</desc>
    <g id="页面1" stroke="none" stroke-width="1" fill="none" fill-rule="evenodd">
        <g id="excel备份" fill-rule="nonzero">
            <rect id="矩形" fill="#000000" opacity="0" x="0" y="0" width="20" height="20"></rect>
            <path d="M13.3333333,0.83333334 L5.83333334,0.83333334 C5.33333334,0.83333334 5,1.16666668 5,1.66666666 L5,5.83333334 L13.3333333,10 L16.6666667,11.25 L20,10 L20,5.83333334 L13.3333333,0.83333334 Z" id="路径" fill="#21A366"></path>
            <polygon id="路径" fill="#107C41" points="5 5.83333334 13.3333333 5.83333334 13.3333333 10 5 10"></polygon>
            <path d="M20,1.66666666 L20,5.83333334 L13.3333333,5.83333334 L13.3333333,0.83333334 L19.1666667,0.83333334 C19.5833333,0.83333334 20,1.25 20,1.66666666 Z" id="路径" fill="#33C481"></path>
            <path d="M13.3333333,10 L5,10 L5,18.3333333 C5,18.8333333 5.33333334,19.1666667 5.83333334,19.1666667 L19.1666667,19.1666667 C19.6666667,19.1666667 20,18.8333333 20,18.3333333 L20,14.1666667 L13.3333333,10 L13.3333333,10 Z" id="路径" fill="#185C37"></path>
            <path d="M11.5,5 L5,5 L5,16.6666667 L11.3333333,16.6666667 C11.9166667,16.6666667 12.5,16.0833333 12.5,15.5 L12.5,6 C12.5,5.41666666 12.0833333,5 11.5,5 Z" id="路径" fill="#000000" opacity="0.5"></path>
            <path d="M10.6666667,15.8333333 L1,15.8333333 C0.41666666,15.8333333 0,15.4166667 0,14.8333333 L0,5.16666666 C0,4.58333334 0.41666666,4.16666666 1,4.16666666 L10.75,4.16666666 C11.25,4.16666666 11.6666667,4.58333332 11.6666667,5.16666666 L11.6666667,14.9166667 C11.6666667,15.4166667 11.25,15.8333333 10.6666667,15.8333333 L10.6666667,15.8333333 Z" id="路径" fill="#107C41"></path>
            <path d="M2.83333334,13.3333333 L5,10 L3,6.66666666 L4.58333334,6.66666666 L5.66666666,8.75 C5.83333334,9 5.83333334,9.16666666 5.91666666,9.25 L6.16666666,8.75 L7.33333334,6.66666666 L8.83333334,6.66666666 L6.83333334,10 L8.91666666,13.3333333 L7.25,13.3333333 L6,11 C6,10.9166667 5.91666666,10.8333333 5.83333334,10.6666667 C5.83333334,10.75 5.75,10.8333333 5.66666666,11 L4.41666666,13.3333333 L2.83333334,13.3333333 Z" id="路径" fill="#FFFFFF"></path>
            <polygon id="路径" fill="#107C41" points="13.3333333 10 20 10 20 14.1666667 13.3333333 14.1666667"></polygon>
        </g>
    </g>
</svg>