<?xml version="1.0" encoding="UTF-8"?>
<svg width="24px" height="24px" viewBox="0 0 24 24" version="1.1" xmlns="http://www.w3.org/2000/svg" xmlns:xlink="http://www.w3.org/1999/xlink">
    <!-- Generator: Sketch 53 (72520) - https://sketchapp.com -->
    <title>左侧菜单栏-图像填充</title>
    <desc>Created with Sketch.</desc>
    <g id="左侧菜单栏-图像填充" stroke="none" stroke-width="1" fill="none" fill-rule="evenodd">
        <g id="填充" transform="translate(3.000000, 2.000000)">
            <path d="M7.49613913,15.6421458 C7.24570435,15.8946875 6.91309565,16.0348125 6.55857391,16.0348125 C6.20483478,16.0348125 5.87144348,15.8946875 5.6210087,15.6421458 L2.11022609,12.0899375 C1.8597913,11.8366042 1.72205217,11.5001458 1.72205217,11.1415208 C1.72205217,10.7828958 1.8597913,10.4472292 2.11022609,10.1931042 L7.47892174,4.76227083 L12.8648348,10.2113125 L7.49613913,15.6421458 Z M10.0286609,4.87864583 L10.0286609,4.87785417 L6.10387826,0.907645833 C5.95048696,0.752479167 5.7024,0.752479167 5.5497913,0.907645833 L4.88692174,1.57739583 C4.73353043,1.73335417 4.73353043,1.98352083 4.88692174,2.1386875 L6.26196522,3.52964583 L0.892486957,8.9620625 C-0.29786087,10.1653958 -0.29786087,12.1176458 0.892486957,13.3209792 L4.40405217,16.8739792 C4.99883478,17.4748542 5.77909565,17.7756875 6.55857391,17.7756875 C7.33883478,17.7756875 8.11831304,17.4748542 8.71387826,16.8739792 L15.2995304,10.2113125 L10.0286609,4.87864583 Z" id="Fill-3"></path>
            <path d="M16.2457826,12.5087292 L14.9576087,12.5578125 C14.8308261,12.5617708 14.7337826,12.4501458 14.7392609,12.3218958 C14.7588261,11.8310625 14.6594348,11.4637292 14.4418696,11.2270208 C14.081087,10.8335625 13.4205652,10.8256458 13.4299565,10.8335625 L4.45108696,10.7425208 C4.32273913,10.7409375 4.22021739,10.6348542 4.221,10.5050208 L4.23430435,9.23360417 C4.23508696,9.10377083 4.34073913,8.99927083 4.46908696,9.00085417 L13.4072609,9.0926875 C13.5082174,9.0879375 14.808913,9.06735417 15.7034348,10.0418958 C16.2723913,10.6601875 16.4523913,11.2840208 16.4563043,12.2854792 C16.4563043,12.4026458 16.3616087,12.5047708 16.2457826,12.5087292" id="Fill-1"></path>
            <path d="M15.559513,12.7468625 C15.4890783,12.7468625 15.4186435,12.7785292 15.3693391,12.8418625 C14.8277739,13.5448625 13.3149913,15.6008208 13.3149913,16.6307792 C13.3149913,17.8847792 14.3198609,18.9012792 15.559513,18.9012792 C16.7991652,18.9012792 17.8040348,17.8847792 17.8040348,16.6307792 C17.8040348,15.6008208 16.2904696,13.5448625 15.7489043,12.8418625 C15.7003826,12.7785292 15.6299478,12.7468625 15.559513,12.7468625 M15.559513,15.6008208 C15.875687,16.1288625 16.0408174,16.4969875 16.0807304,16.6711542 C16.0603826,16.9442792 15.8342087,17.1596125 15.559513,17.1596125 C15.2840348,17.1596125 15.0586435,16.9442792 15.037513,16.6711542 C15.0774261,16.4969875 15.2425565,16.1288625 15.559513,15.6008208" id="Fill-5"></path>
        </g>
        <rect id="矩形-copy-37" stroke="#979797" opacity="0" x="0.5" y="0.5" width="23" height="23"></rect>
    </g>
</svg>