<?xml version="1.0" encoding="UTF-8"?>
<svg width="24px" height="24px" viewBox="0 0 24 24" version="1.1" xmlns="http://www.w3.org/2000/svg" xmlns:xlink="http://www.w3.org/1999/xlink">
    <!-- Generator: Sketch 53 (72520) - https://sketchapp.com -->
    <title>左侧菜单栏-图像滤镜</title>
    <desc>Created with Sketch.</desc>
    <g id="左侧菜单栏-图像滤镜" stroke="none" stroke-width="1" fill="none" fill-rule="evenodd">
        <path d="M4.43267986,15.4799057 C4.43267986,13.5086961 6.02538376,11.9053749 7.98353986,11.9053749 C9.20464213,11.9053749 10.2834289,12.5297239 10.9229702,13.4777439 C10.6805068,14.0994399 10.5337988,14.7706593 10.5337988,15.4799057 C10.5337988,16.1909207 10.6717218,16.8674462 10.9141853,17.4917952 C10.274644,18.4336248 9.20024968,19.0544365 7.98353986,19.0544365 C6.02538376,19.0544365 4.43267986,17.4511153 4.43267986,15.4799057 M12.4664786,15.4799057 C12.4664786,14.9351479 12.5973738,14.4239953 12.8152395,13.9614818 C14.1979841,13.7333202 15.4050305,12.9904687 16.2352044,11.9274835 C18.0896985,12.043333 19.5681986,13.5838656 19.5681986,15.4799057 C19.5681986,17.4511153 17.9746162,19.0544365 16.0173386,19.0544365 C14.0591825,19.0544365 12.4664786,17.4511153 12.4664786,15.4799057 M15.4779453,8.52009433 C15.4779453,10.3728014 14.0662105,11.8823818 12.2723322,12.0592513 C11.4114111,10.9661983 10.1534122,10.2083129 8.71268726,10.0146409 C8.50184945,9.55920212 8.37622526,9.0551243 8.37622526,8.52009433 C8.37622526,6.54888474 9.96892917,4.94556353 11.9270853,4.94556353 C13.8852414,4.94556353 15.4779453,6.54888474 15.4779453,8.52009433 M2.5,15.4799057 C2.5,18.52825 4.95450342,21 7.98353986,21 C9.57272979,21 10.994128,20.3110936 11.9938506,19.2215781 C12.9962086,20.3128623 14.4255132,21 16.0173386,21 C19.0454966,21 21.5,18.52825 21.5,15.4799057 C21.5,12.8348236 19.6507768,10.626609 17.183096,10.0880417 C17.3289255,9.59103862 17.4106251,9.06485212 17.4106251,8.52009433 C17.4106251,5.47175002 14.9552432,3 11.9270853,3 C8.89804883,3 6.4435454,5.47175002 6.4435454,8.52009433 C6.4435454,9.07900167 6.53754392,9.61314729 6.69127982,10.1198782 C4.28772887,10.7062003 2.5,12.8808097 2.5,15.4799057" id="Fill-1"></path>
        <rect id="矩形-copy-37" stroke="#979797" opacity="0" x="0.5" y="0.5" width="23" height="23"></rect>
    </g>
</svg>