<?xml version="1.0" encoding="UTF-8"?>
<svg width="24px" height="24px" viewBox="0 0 24 24" version="1.1" xmlns="http://www.w3.org/2000/svg" xmlns:xlink="http://www.w3.org/1999/xlink">
    <!-- Generator: Sketch 53 (72520) - https://sketchapp.com -->
    <title>左侧工具栏-定点-大</title>
    <desc>Created with Sketch.</desc>
    <g id="左侧工具栏-定点-大" stroke="none" stroke-width="1" fill="none" fill-rule="evenodd">
        <g id="定点">
            <path d="M17.8970182,15.0129733 L5.54356364,15.0129733 L5.54356364,13.4553733 L7.35447273,13.4553733 C7.55665455,13.4553733 7.72538182,13.3057733 7.75156364,13.10484 L8.94138182,4.11270667 L7.08829091,4.11270667 L7.08829091,2.55657333 L16.3522909,2.55657333 L16.3522909,4.11270667 L14.6548364,4.11270667 L15.8432,13.10484 C15.8693818,13.3057733 16.0395636,13.4553733 16.2402909,13.4553733 L18.0512,13.4553733 L18.0512,15.0129733 L17.8970182,15.0129733 Z M17.8970182,11.89924 L17.1246545,11.89924 L16.3522909,5.67177333 C17.2788364,5.67177333 17.8970182,5.04844 17.8970182,4.11270667 L17.8970182,2.55657333 C17.8970182,1.69710667 17.2061091,0.998973333 16.3522909,0.998973333 L7.08829091,0.998973333 C6.23447273,0.998973333 5.54356364,1.69710667 5.54356364,2.55657333 L5.54356364,4.11270667 C5.54356364,5.04844 6.16174545,5.67177333 7.08829091,5.67177333 L6.31592727,11.89924 L5.54356364,11.89924 C4.6912,11.89924 4.00029091,12.5959067 4.00029091,13.4553733 L4.00029091,16.2361733 C4.00029091,16.4209733 4.1472,16.5705733 4.33047273,16.5705733 L10.9486545,16.5705733 L11.4810182,22.79804 L11.8592,22.79804 L12.4933818,16.5705733 L19.1101091,16.5705733 C19.2933818,16.5705733 19.4417455,16.4209733 19.4417455,16.2361733 L19.4417455,13.4553733 C19.4417455,12.5225733 18.8235636,11.89924 17.8970182,11.89924 L17.8970182,11.89924 Z" id="Fill-1" fill="#ffffff"></path>
            <rect id="矩形" stroke="#979797" opacity="0" x="0.5" y="0.5" width="23" height="23"></rect>
        </g>
    </g>
</svg>