<?xml version="1.0" encoding="UTF-8"?>
<svg width="20px" height="18px" viewBox="0 0 20 18" version="1.1" xmlns="http://www.w3.org/2000/svg" xmlns:xlink="http://www.w3.org/1999/xlink">
    <!-- Generator: Sketch 61.2 (89653) - https://sketch.com -->
    <title>xhdpi/接待人信息</title>
    <desc>Created with Sketch.</desc>
    <g id="页面-1" stroke="none" stroke-width="1" fill="none" fill-rule="evenodd">
        <g id="人员管理-访客人员-添加访客" transform="translate(-912.000000, -750.000000)" fill="#1890FF" fill-rule="nonzero">
            <g id="编组-8" transform="translate(856.000000, 38.000000)">
                <path d="M72.1230769,712 C72.8923077,712 73.5384615,712.628272 73.5384615,713.413613 L73.5384615,713.413613 L73.5384615,721.235602 L74.4615385,721.235602 C75.3230769,721.235602 76,721.895288 76,722.743455 L76,722.743455 L76,728.460733 C76,729.308901 75.2923077,730 74.4615385,730 L74.4615385,730 L57.5384615,730 C56.6769231,730 56,729.308901 56,728.460733 L56,728.460733 L56,722.774869 C56,721.926702 56.7076923,721.235602 57.5384615,721.235602 L57.5384615,721.235602 L58.4615385,721.235602 L58.4615385,713.413613 C58.4615385,712.628272 59.1076923,712 59.8769231,712 L59.8769231,712 Z M61.6307692,722.397906 L57.5384615,722.397906 C57.3230769,722.397906 57.1692308,722.554974 57.1692308,722.743455 L57.1692308,722.743455 L57.1692308,728.460733 C57.1692308,728.649215 57.3538462,728.806283 57.5384615,728.806283 L57.5384615,728.806283 L74.4615385,728.806283 C74.6769231,728.806283 74.8307692,728.649215 74.8307692,728.460733 L74.8307692,728.460733 L74.8307692,722.743455 C74.8307692,722.554974 74.6461538,722.397906 74.4615385,722.397906 L74.4615385,722.397906 L70.3692308,722.397906 C69.8769231,724.34555 68.0615385,725.790576 66,725.790576 C63.9384615,725.790576 62.1538462,724.376963 61.6307692,722.397906 L61.6307692,722.397906 Z M72.1538462,713.162304 L59.8769231,713.162304 C59.7538462,713.162304 59.6307692,713.287958 59.6307692,713.413613 L59.6307692,713.413613 L59.6307692,721.235602 L62.6153846,721.235602 L62.6769231,721.73822 C62.8923077,723.371728 64.3384615,724.628272 66,724.628272 C67.6615385,724.628272 69.1076923,723.403141 69.3230769,721.73822 L69.3230769,721.73822 L69.3846154,721.235602 L72.4,721.235602 L72.4,713.413613 C72.4,713.287958 72.2769231,713.162304 72.1538462,713.162304 L72.1538462,713.162304 Z M68.7384615,715.455497 L69.5692308,716.272251 L65.5692308,720.293194 L63.0461538,717.780105 L63.8769231,716.963351 L65.5692308,718.628272 L68.7384615,715.455497 Z" id="接待人信息"></path>
            </g>
        </g>
    </g>
</svg>