<?xml version="1.0" encoding="UTF-8"?>
<svg width="24px" height="24px" viewBox="0 0 24 24" version="1.1" xmlns="http://www.w3.org/2000/svg" xmlns:xlink="http://www.w3.org/1999/xlink">
    <!-- Generator: Sketch 53 (72520) - https://sketchapp.com -->
    <title>左侧菜单栏-图像液化-白</title>
    <desc>Created with Sketch.</desc>
    <g id="左侧菜单栏-图像液化-白" stroke="none" stroke-width="1" fill="none" fill-rule="evenodd">
        <g id="液化-3" transform="translate(1.000000, 1.000000)" fill="#FFFFFF">
            <path d="M7.8037,14.8027 L5.9487,11.7397 C4.9997,10.0597 5.5247,7.8227 7.2167,6.7617 C8.1467,6.1787 9.2977,5.9787 10.3657,6.2497 C12.3007,6.7427 13.0867,8.9277 13.9777,10.5027 C14.3877,9.5537 14.8377,8.3597 14.8167,7.2587 C14.7357,3.1657 11.3507,-0.0833 7.2587,0.0017 C3.1667,0.0827 -0.0833,3.4677 0.0017,7.5597 C0.0867,11.6517 3.4677,14.9017 7.5597,14.8167 C7.6447,14.8127 7.7257,14.8097 7.8037,14.8027" id="Fill-3"></path>
            <path d="M9.4165,17.6454 L9.4345,17.5894 C9.5365,17.3414 9.8305,17.1794 10.0895,17.2094 L11.5955,17.5734 C11.8975,17.6494 12.1995,17.5374 12.3845,17.2884 C12.5695,17.0404 12.5885,16.7184 12.4325,16.4514 L9.0475,10.6194 C8.8815,10.3334 8.9795,9.9644 9.2635,9.7984 C9.4085,9.7164 9.5675,9.6954 9.7235,9.7374 C9.8785,9.7774 10.0045,9.8754 10.0885,10.0224 L12.1745,13.6314 C12.3205,13.8844 12.6365,13.9814 12.8985,13.8534 L16.7965,11.9504 C16.9735,11.8734 17.1665,11.9304 17.2605,12.0764 L19.5215,16.6664 C19.6845,16.9514 19.5875,17.3164 19.3065,17.4804 L14.7785,20.1064 C14.5985,20.2114 14.3725,20.2114 14.1885,20.1084 L9.6665,18.4074 C9.4195,18.2404 9.3165,17.9294 9.4165,17.6454 M21.1135,15.7974 L18.8615,11.2274 L18.8395,11.1914 C18.2715,10.2194 17.0695,9.8364 16.0405,10.3074 L13.3215,11.6334 C13.2285,11.6794 13.1165,11.6454 13.0645,11.5554 L11.6585,9.1264 C11.3415,8.5634 10.8215,8.1604 10.1945,7.9914 C9.4735,7.7974 8.7155,7.9444 8.1135,8.3944 C7.1575,9.1094 6.9085,10.5314 7.5465,11.6314 L9.5895,15.1564 C9.6625,15.2804 9.5865,15.4294 9.4475,15.4624 C8.6675,15.6514 8.0085,16.2164 7.7285,16.9714 L7.6835,17.1224 C7.3675,18.2284 7.8355,19.4154 8.8235,20.0074 L13.3665,21.7194 C13.7105,21.9014 14.0965,21.9974 14.4835,21.9974 C14.9045,21.9974 15.3225,21.8844 15.6935,21.6714 L20.2215,19.0444 C21.3445,18.3904 21.7435,16.9324 21.1135,15.7974" id="Fill-1"></path>
        </g>
        <rect id="矩形-copy-37" stroke="#979797" opacity="0" x="0.5" y="0.5" width="23" height="23"></rect>
    </g>
</svg>