<?xml version="1.0" encoding="UTF-8"?>
<svg width="12px" height="12px" viewBox="0 0 17 17" version="1.1" xmlns="http://www.w3.org/2000/svg" xmlns:xlink="http://www.w3.org/1999/xlink">
    <!-- Generator: Sketch 61 (89581) - https://sketch.com -->
    <title>编组 27</title>
    <desc>Created with Sketch.</desc>
    <g id="页面1" stroke="none" stroke-width="1" fill="none" fill-rule="evenodd">
        <g id="数据统计浅色" transform="translate(-479.000000, -213.000000)">
            <g id="编组-27" transform="translate(478.340000, 213.000000)">
                <path d="M8.89644661,0.800698949 C13.3124466,0.800698949 16.8964466,4.38469895 16.8964466,8.80069895 C16.8964466,13.2166989 13.3124466,16.8006989 8.89644661,16.8006989 C4.48044661,16.8006989 0.896446609,13.2166989 0.896446609,8.80069895 C0.896446609,4.38469895 4.48044661,0.800698949 8.89644661,0.800698949 Z M11.5407377,4.3636039 L8.79999184,7.10293557 L6.06066017,4.3636039 L4.3636039,6.06066017 L7.10293557,8.79999184 L4.3636039,11.5407377 L6.06066017,13.237794 L8.79999184,10.4970481 L11.5407377,13.237794 L13.237794,11.5407377 L10.4970481,8.79999184 L13.237794,6.06066017 L11.5407377,4.3636039 Z" id="形状结合" fill="#2895FF" fill-rule="nonzero"></path>
                <g id="编组-25" transform="translate(8.542893, 9.000000) rotate(45.000000) translate(-8.542893, -9.000000) translate(2.542893, 3.500000)"></g>
            </g>
        </g>
    </g>
</svg>