<?xml version="1.0" encoding="UTF-8"?>
<svg width="40px" height="18px" viewBox="0 0 40 18" version="1.1" xmlns="http://www.w3.org/2000/svg" xmlns:xlink="http://www.w3.org/1999/xlink">
    <!-- Generator: Sketch 52.5 (67469) - http://www.bohemiancoding.com/sketch -->
    <title>分组</title>
    <desc>Created with Sketch.</desc>
    <defs>
        <polygon id="path-1" points="0 0.102944681 10.8488309 0.102944681 10.8488309 13.1832 0 13.1832"></polygon>
        <polygon id="path-3" points="0 17.8085106 39.978744 17.8085106 39.978744 0.0854042553 0 0.0854042553"></polygon>
    </defs>
    <g id="组件" stroke="none" stroke-width="1" fill="none" fill-rule="evenodd">
        <g id="左侧导航" transform="translate(-24.000000, -28.000000)">
            <g id="menu">
                <g id="分组" transform="translate(24.000000, 28.000000)">
                    <polygon id="Fill-1" fill="#FEFEFE" points="29.7382609 0.400557447 29.7382609 13.4808128 39.9788406 13.4806213 39.9788406 11.4131106 31.9477295 11.4131106 31.9477295 7.92149362 39.1655072 7.92149362 39.1655072 5.8553234 31.9477295 5.8553234 31.9477295 2.46902553 39.6594203 2.46902553 39.6594203 0.400557447"></polygon>
                    <g transform="translate(0.000000, 0.106143)">
                        <g transform="translate(0.000000, 0.191489)">
                            <mask id="mask-2" fill="white">
                                <use xlink:href="#path-1"></use>
                            </mask>
                            <g id="Clip-3"></g>
                            <path d="M8.93230918,6.30930638 C9.74544928,5.68945532 10.1887343,4.75498723 10.1887343,3.6378383 C10.1887343,1.5228383 8.40825121,0.102944681 5.75994203,0.102944681 L-5.79710145e-05,0.102944681 L-5.79710145e-05,13.1832 L6.07800966,13.1832 C9.02100483,13.1832 10.8488309,11.7301787 10.8488309,9.39477447 C10.8488309,7.77860426 9.91530435,6.77443404 8.93230918,6.30930638 M5.94718841,11.1112851 L2.19143961,11.1112851 L2.19143961,7.6229234 L5.81636715,7.6229234 C7.70409662,7.6229234 8.62216425,8.18513617 8.62216425,9.34211489 C8.62216425,10.4500723 7.62100483,11.1112851 5.94718841,11.1112851 M2.19143961,2.16911489 L5.68709179,2.16911489 C7.1487343,2.16911489 8.05617391,2.77441277 8.05617391,3.78490213 C8.05617391,5.25611489 6.9734686,5.55771064 5.34680193,5.55771064 L2.19143961,5.55771064 L2.19143961,2.16911489" id="Fill-2" fill="#FEFEFE" mask="url(#mask-2)"></path>
                        </g>
                        <mask id="mask-4" fill="white">
                            <use xlink:href="#path-3"></use>
                        </mask>
                        <g id="Clip-5"></g>
                        <polygon id="Fill-4" fill="#FEFEFE" mask="url(#mask-4)" points="13.9837681 17.8085106 25.9835749 17.8085106 25.9835749 15.929234 13.9837681 15.929234"></polygon>
                        <path d="M19.984058,0.0853468085 C16.2271498,0.0853468085 13.1711111,3.11336809 13.1711111,6.83438936 C13.1711111,10.5567511 16.2271498,13.5855383 19.984058,13.5855383 C23.7411594,13.5855383 26.7966184,10.5567511 26.7966184,6.83438936 C26.7966184,3.11336809 23.7411594,0.0853468085 19.984058,0.0853468085 M19.984058,11.7074106 C17.2628986,11.7074106 15.0571014,9.52270851 15.0571014,6.82558085 C15.0571014,4.12998511 17.2628986,1.94470851 19.984058,1.94470851 C22.7048309,1.94470851 24.9096618,4.12998511 24.9096618,6.82558085 C24.9096618,9.52270851 22.7048309,11.7074106 19.984058,11.7074106" id="Fill-6" fill="#FEFEFE" mask="url(#mask-4)"></path>
                    </g>
                </g>
            </g>
        </g>
    </g>
</svg>