<?xml version="1.0" encoding="UTF-8"?>
<svg width="12px" height="12px" viewBox="0 0 12 12" version="1.1" xmlns="http://www.w3.org/2000/svg">
    <!-- Generator: Sketch 53 (72520) - https://sketchapp.com -->
    <title>下箭头</title>
    <desc>Created with Sketch.</desc>
    <g id="res" stroke="none" stroke-width="1" fill="none" fill-rule="evenodd" fill-opacity="0.7">
        <g id="画板" transform="translate(-116.000000, -49.000000)" fill="#FFFFFF">
            <path d="M127.860721,49.5247402 C128.05719,49.711139 128.050181,50.0199888 127.85536,50.2048104 L122.360991,55.4171727 C122.161562,55.6063662 121.833614,55.6019942 121.638793,55.4171727 L116.144424,50.2048104 C115.944994,50.0156168 115.939658,49.7139276 116.139069,49.5247402 L116.551908,49.1330679 C116.748381,48.9466691 117.077081,48.9562962 117.273874,49.1429905 L121.999892,53.6264782 L126.725927,49.1429905 C126.928186,48.9511116 127.24848,48.9438806 127.447888,49.1330679 L127.860721,49.5247402 Z M127.860721,54.9709427 C128.05719,55.1573415 128.050181,55.4661913 127.85536,55.6510128 L122.360991,60.8633751 C122.161562,61.0525687 121.833614,61.0481966 121.638793,60.8633751 L116.144424,55.6510128 C115.944994,55.4618193 115.939658,55.16013 116.139069,54.9709427 L116.551908,54.5792703 C116.748381,54.3928715 117.077081,54.4024986 117.273874,54.5891929 L121.999892,59.0726807 L126.725927,54.5891929 C126.928186,54.397314 127.24848,54.390083 127.447888,54.5792703 L127.860721,54.9709427 Z" id="下箭头"></path>
        </g>
    </g>
</svg>