<?xml version="1.0" encoding="UTF-8"?>
<svg width="10px" height="10px" viewBox="0 0 10 10" version="1.1" xmlns="http://www.w3.org/2000/svg">
    <!-- Generator: Sketch 52.5 (67469) - http://www.bohemiancoding.com/sketch -->
    <title>新建</title>
    <desc>Created with Sketch.</desc>
    <g id="组件" stroke="none" stroke-width="1" fill="none" fill-rule="evenodd" opacity="0.699999988">
        <g id="顶部控件" transform="translate(-1173.000000, -19.000000)" fill="#FFFFFF">
            <g id="新建-预览-保存">
                <g transform="translate(1170.000000, 15.000000)">
                    <g id="新建" transform="translate(3.000000, 4.000000)">
                        <g id="分组" transform="translate(-0.000000, 0.000000)">
                            <path d="M9.71918542,7.34894515 L8.2375134,7.34894515 L8.2375134,5.83670886 C8.2375134,5.67468354 8.12775991,5.56666667 7.90825295,5.56666667 L7.79849946,5.56666667 C7.5789925,5.51265823 7.46923901,5.62067511 7.46923901,5.83670886 L7.46923901,7.34894515 L5.93269025,7.34894515 C5.76806002,7.34894515 5.65830654,7.45696203 5.65830654,7.61898734 L5.65830654,7.72700422 C5.65830654,7.88902954 5.76806002,7.99704641 5.93269025,7.99704641 L7.46923901,7.99704641 L7.46923901,9.56329114 C7.46923901,9.72531646 7.5789925,9.83333333 7.79849946,9.83333333 L7.90825295,9.83333333 C8.07288317,9.83333333 8.2375134,9.72531646 8.2375134,9.56329114 L8.2375134,7.99704641 L9.71918542,7.99704641 C9.88381565,7.99704641 9.99356913,7.88902954 9.99356913,7.72700422 L9.99356913,7.61898734 C9.99356913,7.45696203 9.88381565,7.34894515 9.71918542,7.34894515 Z" id="路径"></path>
                            <path d="M9.17041801,0.00379746835 L0.390139335,0.00379746835 C0.170632369,0.00379746835 0.00600214362,0.165822785 0.00600214362,0.38185654 L0.00600214362,9.56329114 C0.00600214362,9.77932489 0.170632369,9.99535865 0.445016077,9.99535865 L5.65830654,9.99535865 C5.8778135,9.99535865 6.09732047,9.83333333 6.09732047,9.56329114 C6.09732047,9.29324895 5.93269025,9.13122363 5.65830654,9.13122363 L0.829153269,9.13122363 L0.829153269,2.43417722 L8.78628081,2.43417722 L8.78628081,5.56666667 C8.78628081,5.78270042 8.95091104,5.99873418 9.22529475,5.99873418 C9.49967846,5.99873418 9.66430868,5.83670886 9.66430868,5.56666667 L9.66430868,0.38185654 C9.60943194,0.165822785 9.38992497,0.00379746835 9.17041801,0.00379746835 Z M0.829153269,1.62405063 L0.829153269,0.813924051 L8.78628081,0.813924051 L8.78628081,1.62405063 L0.829153269,1.62405063 Z" id="形状" fill-rule="nonzero"></path>
                        </g>
                    </g>
                </g>
            </g>
        </g>
    </g>
</svg>