<?xml version="1.0" encoding="UTF-8"?>
<svg width="16px" height="16px" viewBox="0 0 16 16" version="1.1" xmlns="http://www.w3.org/2000/svg" xmlns:xlink="http://www.w3.org/1999/xlink">
    <!-- Generator: Sketch 53 (72520) - https://sketchapp.com -->
    <title>顶部-下一步</title>
    <desc>Created with Sketch.</desc>
    <g id="顶部-下一步" stroke="none" stroke-width="1" fill="#fff" fill-rule="evenodd">
        <g id="下一步">
            <rect id="矩形-copy-4" stroke="#979797" opacity="0" x="0.500057143" y="0.5" width="15" height="15"></rect>
            <path d="M8.12780907,13.35 L8.11980025,10.2631429 L6.29722144,10.2631429 C4.03358543,10.2631429 1.98618758,11.1391429 0.463367494,12.5705714 C0.414170451,12.6071429 0.355248412,12.6322857 0.287173434,12.6322857 C0.12985731,12.6322857 0,12.5054286 0,12.3482857 C0,12.3328571 0.0034323518,12.3174286 0.0034323518,12.302 C0.765986511,8.55628571 4.14799716,5.71571429 8.11980025,5.558 L8.11980025,2.26942857 C8.11980025,2.04657143 8.37665458,1.92028571 8.55399276,2.05628571 L15.8769153,7.68142857 C16.0433844,7.80942857 16.0405241,8.06085714 15.8711947,8.18485714 L8.52653394,13.5517143 C8.361209,13.6722857 8.12838113,13.5545714 8.12780907,13.35" id="Fill-1-Copy" fill="#fff"></path>
        </g>
    </g>
</svg>