<?xml version="1.0" encoding="UTF-8"?>
<svg width="56px" height="56px" viewBox="0 0 56 56" version="1.1" xmlns="http://www.w3.org/2000/svg" xmlns:xlink="http://www.w3.org/1999/xlink">
    <!-- Generator: Sketch 53 (72520) - https://sketchapp.com -->
    <title>插播-素材管理-无须上传新素材</title>
    <desc>Created with Sketch.</desc>
    <g id="插播-素材管理-无须上传新素材" stroke="none" stroke-width="1" fill="none" fill-rule="evenodd">
        <g id="本地">
            <path d="M49.9921831,41 L49.9921831,21.4363285 C49.9921831,20.3326433 49.1165531,19.4379455 48.0363453,19.4379455 L45.506383,19.4379455 L45.506383,16.9618517 C45.506383,16.0871529 44.8107512,15.3772733 43.9524313,15.3772733 L31.110358,15.3772733 L12.10998,15.3772733 C11.2521276,15.3772733 10.5560284,16.0871529 10.5560284,16.9618517 L10.5560284,19.4379455 L7.95588447,19.4379455 C6.87567672,19.4379455 6.00004671,20.3326433 6.00004671,21.4363285 L6.00004671,40.8336788 C6.00001559,40.8290192 6,40.8243559 6,40.8196888 L6,6.75465276 C6,5.7892271 6.93126502,5 7.70642589,5 L22.9991198,5 C23.4758013,5 23.7583574,5.33675989 23.9771615,5.78500315 L26.0125845,9.91169763 L48.0438126,9.91169763 C49.1242135,9.91169763 50,10.8081548 50,11.914493 L50,40.8196888 C50,40.8804624 49.9973573,40.9406041 49.9921831,41 Z" id="合并形状" fill-opacity="0.7" fill="#73747E"></path>
            <path d="M48.0438126,21 C49.1242135,21 50,21.905248 50,23.0219479 L50,47.9770777 C50,49.0942648 49.1242135,50 48.0438126,50 L7.95618737,50 C6.87578653,50 6,49.0942648 6,47.9770777 L6,23.0219479 C6,21.905248 6.87578653,21 7.95618737,21 L31.8760196,21 L48.0438126,21 Z M34,43 C33.4477153,43 33,43.4477153 33,44 L33,45 C33,45.5522847 33.4477153,46 34,46 L35,46 C35.5522847,46 36,45.5522847 36,45 L36,44 C36,43.4477153 35.5522847,43 35,43 L34,43 Z M39,43 C38.4477153,43 38,43.4477153 38,44 L38,45 C38,45.5522847 38.4477153,46 39,46 L40,46 C40.5522847,46 41,45.5522847 41,45 L41,44 C41,43.4477153 40.5522847,43 40,43 L39,43 Z M44,43 C43.4477153,43 43,43.4477153 43,44 L43,45 C43,45.5522847 43.4477153,46 44,46 L45,46 C45.5522847,46 46,45.5522847 46,45 L46,44 C46,43.4477153 45.5522847,43 45,43 L44,43 Z" id="合并形状" fill-opacity="0.7" fill="#73747E"></path>
            <rect id="矩形" stroke="#979797" stroke-width="1.16666667" opacity="0" x="0.583333333" y="0.583333333" width="54.8333333" height="54.8333333"></rect>
        </g>
    </g>
</svg>