<?xml version="1.0" encoding="UTF-8"?>
<svg width="20px" height="20px" viewBox="0 0 20 20" version="1.1" xmlns="http://www.w3.org/2000/svg" xmlns:xlink="http://www.w3.org/1999/xlink">
    <!-- Generator: Sketch 61.2 (89653) - https://sketch.com -->
    <title>xhdpi/人员管理</title>
    <desc>Created with Sketch.</desc>
    <g id="控件" stroke="none" stroke-width="1" fill="none" fill-rule="evenodd">
        <g id="nav" transform="translate(-35.000000, -963.000000)" fill="#FFFFFF" fill-rule="nonzero">
            <g id="人员管理">
                <path d="M52.7777082,963 C54.0033881,963.003461 54.9962258,963.996045 55,965.221724 L55,965.221724 L55,967.999579 C55,968.333496 54.7777865,968.555162 54.4444368,968.555162 C54.1110872,968.555162 53.8894414,968.333496 53.8894414,967.999579 L53.8894414,967.999579 L53.8894414,965.221724 C53.8894414,964.61117 53.3888296,964.110559 52.7782759,964.110559 L52.7782759,964.110559 L37.2222918,964.110559 C36.6111508,964.110559 36.1111263,964.61117 36.1111263,965.221724 L36.1111263,965.221724 L36.1111263,980.777728 C36.1130181,981.390608 36.6093917,981.886973 37.2222723,981.888854 L37.2222723,981.888854 L42.2224387,981.888854 C42.5557883,981.888854 42.7780214,982.111087 42.7780214,982.444437 C42.7780214,982.777786 42.5557883,983 42.2224387,983 L42.2224387,983 L37.2222723,983 C35.9963868,982.996527 35.0034733,982.003613 35,980.777728 L35,980.777728 L35,965.222292 C35.0034626,963.996399 35.9963791,963.003473 37.2222723,963 L37.2222723,963 Z M49.44429,969.666213 C50.477682,969.659835 51.4706185,970.067495 52.2013512,970.798228 C52.9320839,971.528961 53.3397441,972.521897 53.3332909,973.555289 C53.3332909,975.16644 52.3888198,976.499819 50.9999021,977.11094 C53.1116451,977.722081 54.7222282,979.555465 54.9444613,981.833315 L54.9444613,981.833315 L54.9390349,981.93516 C54.9031371,982.260314 54.6919255,982.439388 54.3888981,982.388898 C54.1111068,982.388898 53.8333154,982.166645 53.8333154,981.833315 C53.555524,979.666582 51.7221401,977.944314 49.44429,977.944314 C47.2225855,977.944314 45.3336433,979.666582 45.0558715,981.833315 L45.0558715,981.833315 L45.0558715,981.888854 C45.0558715,982.166645 44.8336188,982.444437 44.5002888,982.444437 C44.2224974,982.444437 43.944706,982.222204 43.944706,981.888874 L43.944706,981.888874 L43.944706,981.777757 C44.2224974,979.555465 45.7780899,977.722081 47.8892652,977.11094 C46.5003475,976.499819 45.5552891,975.16644 45.5552891,973.555289 C45.5488359,972.521897 45.9564961,971.528961 46.6872288,970.798228 C47.4179616,970.067495 48.410898,969.659835 49.44429,969.666213 Z M49.4448577,970.777434 C47.8892456,970.777434 46.6670027,971.999697 46.6670027,973.555289 C46.6670027,975.110901 47.8892456,976.333144 49.4448577,976.333144 C50.9998825,976.333144 52.2227127,975.110901 52.2227127,973.555289 C52.2227127,971.999697 50.9998825,970.777434 49.4448577,970.777434 Z M42.7780018,972.444711 C43.1113515,972.444711 43.3335846,972.666376 43.3335846,973.000294 C43.3335846,973.333056 43.1113515,973.555876 42.7780214,973.555876 L42.7780214,973.555876 L38.3334182,973.555876 C38.0000685,973.555876 37.7778354,973.333056 37.7778354,973.000294 C37.7778354,972.666376 38.0000685,972.44473 38.3334182,972.44473 L38.3334182,972.44473 Z M46.11142,967.444564 C46.4447696,967.444564 46.6670027,967.666797 46.6670027,968.000147 C46.6670027,968.333496 46.4447696,968.55573 46.11142,968.55573 L46.11142,968.55573 L38.3334182,968.55573 C38.0000685,968.55573 37.7778354,968.333496 37.7778354,968.000147 C37.7778354,967.666797 38.0000685,967.444564 38.3334182,967.444564 L38.3334182,967.444564 Z"></path>
            </g>
        </g>
    </g>
</svg>