<?xml version="1.0" encoding="UTF-8"?>
<svg width="14px" height="10px" viewBox="0 0 14 10" version="1.1" xmlns="http://www.w3.org/2000/svg">
    <!-- Generator: Sketch 52.5 (67469) - http://www.bohemiancoding.com/sketch -->
    <title>iconfont-yanjing</title>
    <desc>Created with Sketch.</desc>
    <g id="组件" stroke="#5587b9" stroke-width="1" fill="none" fill-rule="evenodd" opacity="0.699999988">
        <g id="顶部控件" transform="translate(-1239.000000, -19.000000)" fill="#FFFFFF" fill-rule="nonzero">
            <g id="新建-预览-保存">
                <g transform="translate(1170.000000, 15.000000)">
                    <path d="M76,4.86956522 C73.5476792,4.86956522 71.3622324,6.51626449 70.4185781,9.00000053 C71.3622289,11.4837444 73.5476705,13.1304348 76,13.1304348 C78.4540462,13.1304348 80.6375049,11.4847477 81.5814252,9.00000053 C80.6375013,6.51526112 78.4540375,4.86956522 76,4.86956522 Z M76,4 C78.8807879,4 81.4166523,5.95338804 82.4478567,8.85336109 L82.5,8.99999948 L82.447857,9.14663799 C81.4166564,12.0466211 78.8807964,14 76,14 C73.1209939,14 70.5829791,12.0455959 69.552143,9.14663799 L69.5,8.99999948 L69.5521433,8.85336109 C70.5829831,5.95441329 73.1210024,4 76,4 Z M76,6.73911535 C77.1569752,6.73911535 78.0792686,7.7612525 78.0792686,9 C78.0792686,10.2387475 77.1569752,11.2608847 76,11.2608847 C74.8430248,11.2608847 73.9207314,10.2387475 73.9207314,9 C73.9207314,7.7612525 74.8430248,6.73911535 76,6.73911535 Z M76,7.60868057 C75.339018,7.60868057 74.783817,8.22398546 74.783817,9 C74.783817,9.77601454 75.339018,10.3913194 76,10.3913194 C76.660982,10.3913194 77.216183,9.77601454 77.216183,9 C77.216183,8.22398546 76.660982,7.60868057 76,7.60868057 Z" id="iconfont-yanjing"></path>
                </g>
            </g>
        </g>
    </g>
</svg>