<?xml version="1.0" encoding="UTF-8"?>
<svg width="24px" height="24px" viewBox="0 0 24 24" version="1.1" xmlns="http://www.w3.org/2000/svg" xmlns:xlink="http://www.w3.org/1999/xlink">
    <!-- Generator: Sketch 53 (72520) - https://sketchapp.com -->
    <title>左侧菜单栏-艺术二维码</title>
    <desc>Created with Sketch.</desc>
    <g id="左侧菜单栏-艺术二维码" stroke="none" stroke-width="1" fill="none" fill-rule="evenodd">
        <g id="艺术二维码" transform="translate(3.000000, 3.000000)" fill="#000000">
            <path d="M4.23538075,6.75729972 C2.82275258,6.75729972 1.7132005,5.61395597 1.7132005,4.23486234 C1.7132005,2.85576871 2.8564277,1.71242496 4.23538075,1.71242496 C5.6143338,1.71242496 6.757561,2.85576871 6.757561,4.23486234 C6.757561,5.61395597 5.64800892,6.75729972 4.23538075,6.75729972 M4.23538075,0 C6.56241799,0 8.47067487,1.90758787 8.47067487,4.23486234 C8.47067487,6.56213681 6.56241799,8.47058824 4.23538075,8.47058824 C1.90748005,8.47058824 8.66310161e-05,6.56213681 8.66310161e-05,4.23486234 C8.66310161e-05,1.90758787 1.90748005,0 4.23538075,0 Z M3.36864706,4.05647807 C3.36864706,4.37094866 3.53671123,4.66202888 3.80873262,4.81969733 C4.08162032,4.97649947 4.41688235,4.97649947 4.68977005,4.81969733 C4.96179144,4.66202888 5.12985561,4.37094866 5.12985561,4.05647807 C5.12985561,3.74200749 4.96179144,3.45179358 4.68977005,3.29412513 C4.41688235,3.13645668 4.08162032,3.13645668 3.80873262,3.29412513 C3.53671123,3.45179358 3.36864706,3.74200749 3.36864706,4.05647807 Z" id="Fill-1"></path>
            <path d="M4.23538075,16.0758103 C2.82275258,16.0758103 1.7132005,14.9324666 1.7132005,13.553373 C1.7132005,12.1742793 2.8564277,11.0309356 4.23538075,11.0309356 C5.6143338,11.0309356 6.757561,12.1742793 6.757561,13.553373 C6.757561,14.9324666 5.64800892,16.0758103 4.23538075,16.0758103 M4.23538075,9.31764706 C6.56241799,9.31764706 8.47067487,11.2252349 8.47067487,13.553373 C8.47067487,15.8806474 6.56241799,17.7882353 4.23538075,17.7882353 C1.90748005,17.7882353 8.66310161e-05,15.8806474 8.66310161e-05,13.553373 C8.66310161e-05,11.2252349 1.90748005,9.31764706 4.23538075,9.31764706 Z M3.36864706,13.5233422 C3.36864706,13.8378128 3.53671123,14.1280267 3.80873262,14.2856952 C4.08162032,14.4433636 4.41688235,14.4433636 4.68977005,14.2856952 C4.96179144,14.1280267 5.12985561,13.8378128 5.12985561,13.5233422 C5.12985561,13.2088717 4.96179144,12.9177914 4.68977005,12.760123 C4.41688235,12.6033209 4.08162032,12.6033209 3.80873262,12.760123 C3.53671123,12.9177914 3.36864706,13.2088717 3.36864706,13.5233422 Z" id="Fill-5"></path>
            <path d="M13.7647059,6.75729972 C12.3520777,6.75729972 11.2425256,5.61395597 11.2425256,4.23486234 C11.2425256,2.85576871 12.3857528,1.71242496 13.7647059,1.71242496 C15.1436589,1.71242496 16.2868861,2.85576871 16.2868861,4.23486234 C16.2868861,5.61395597 15.1773341,6.75729972 13.7647059,6.75729972 M13.7647059,0 C16.0926066,0 18,1.90758787 18,4.23486234 C18,6.56213681 16.0926066,8.47058824 13.7647059,8.47058824 C11.4376686,8.47058824 9.52941176,6.56213681 9.52941176,4.23486234 C9.52941176,1.90758787 11.4376686,0 13.7647059,0 Z M12.9176471,4.23518997 C12.9176471,4.53764402 13.079309,4.81760149 13.3409681,4.96924512 C13.6034605,5.12005555 13.9259512,5.12005555 14.1876103,4.96924512 C14.4501027,4.81760149 14.6117647,4.53764402 14.6117647,4.23518997 C14.6117647,3.93273591 14.4501027,3.65361165 14.1876103,3.50196802 C13.9259512,3.35032439 13.6034605,3.35032439 13.3409681,3.50196802 C13.079309,3.65361165 12.9176471,3.93273591 12.9176471,4.23518997 Z" id="Fill-9"></path>
            <path d="M14.8366877,10.7204824 L14.8366877,14.3407925 C14.8366877,14.7982043 14.4641743,15.171584 14.0058963,15.171584 C13.5476182,15.171584 13.1759711,14.7982043 13.1759711,14.3407925 L13.1759711,10.7204824 C13.1759711,10.2630706 13.5476182,9.88969091 14.0058963,9.88969091 C14.4641743,9.88969091 14.8366877,10.2630706 14.8366877,10.7204824 Z M11.917569,10.7204824 L11.917569,16.3255091 C11.917569,16.7829209 11.5450556,17.1563005 11.0876439,17.1563005 C10.6293658,17.1563005 10.2568524,16.7829209 10.2568524,16.3255091 L10.2568524,10.7204824 C10.2568524,10.2630706 10.6293658,9.88969091 11.0876439,9.88969091 C11.5450556,9.88969091 11.917569,10.2630706 11.917569,10.7204824 Z M17.7553733,10.7204824 L17.7553733,16.3255091 C17.7553733,16.7829209 17.3828599,17.1563005 16.9254481,17.1563005 C16.4671701,17.1563005 16.0946567,16.7829209 16.0946567,16.3255091 L16.0946567,10.7204824 C16.0946567,10.2630706 16.4671701,9.88969091 16.9254481,9.88969091 C17.3828599,9.88969091 17.7553733,10.2630706 17.7553733,10.7204824 Z" id="Fill-14"></path>
        </g>
        <rect id="矩形-copy-37" stroke="#979797" opacity="0" x="0.5" y="0.5" width="23" height="23"></rect>
    </g>
</svg>