<?xml version="1.0" encoding="UTF-8"?>
<svg width="12px" height="12px" viewBox="0 0 16 16" version="1.1" xmlns="http://www.w3.org/2000/svg" xmlns:xlink="http://www.w3.org/1999/xlink">
    <!-- Generator: Sketch 61 (89581) - https://sketch.com -->
    <title>quanbu</title>
    <desc>Created with Sketch.</desc>
    <g id="页面1" stroke="none" stroke-width="1" fill="none" fill-rule="evenodd">
        <g id="数据统计浅色" transform="translate(-270.000000, -213.000000)" fill="#2895FF" fill-rule="nonzero">
            <g id="quanbu" transform="translate(270.000000, 213.000000)">
                <path d="M8.00004061,-2.48689958e-14 C3.58171567,-2.48689958e-14 0,3.58176441 0,8.00004061 C0,12.4182356 3.58173192,16.0000325 8.00004061,16.0000325 C12.4181706,16.0000325 16,12.4182193 16,8.00004061 C16,3.58176441 12.4181706,-2.48689958e-14 8.00004061,-2.48689958e-14 Z M7.3785172,10.9276288 C7.3785172,11.4695185 6.93916697,11.9088038 6.39714735,11.9088038 L4.95798901,11.9088038 C4.41606687,11.9088038 3.97671663,11.4695347 3.97671663,10.9276288 L3.97671663,9.5537273 C3.97671663,9.01178891 4.41603437,8.5725199 4.95797277,8.5725199 L6.39721233,8.5725199 C6.93916697,8.5725199 7.37856594,9.01178891 7.37856594,9.5537273 L7.3785172,10.9276288 L7.3785172,10.9276288 Z M7.3785172,6.44630519 C7.3785172,6.98824358 6.93916697,7.42757757 6.39714735,7.42757757 L4.95798901,7.42757757 C4.41606687,7.42757757 3.97671663,6.98822734 3.97671663,6.44630519 L3.97671663,5.07243613 C3.97671663,4.53049774 4.41603437,4.09118 4.95797277,4.09118 L6.39721233,4.09118 C6.93916697,4.09118 7.37856594,4.53049774 7.37856594,5.07243613 L7.3785172,6.44628895 L7.3785172,6.44630519 Z M12.0233321,10.9276288 C12.0233321,11.4695185 11.5839981,11.9088038 11.042076,11.9088038 L9.60278767,11.9088038 C9.06084928,11.9088038 8.62154778,11.4695347 8.62154778,10.9276288 L8.62154778,9.5537273 C8.62154778,9.01178891 9.06088177,8.5725199 9.60278767,8.5725199 L11.042076,8.5725199 C11.5839656,8.5725199 12.0233321,9.01178891 12.0233321,9.5537273 L12.0233321,10.9276288 Z M12.0233321,6.44630519 C12.0233321,6.98824358 11.5839981,7.42757757 11.042076,7.42757757 L9.60278767,7.42757757 C9.06084928,7.42757757 8.62154778,6.98822734 8.62154778,6.44630519 L8.62154778,5.07243613 C8.62154778,4.53049774 9.06088177,4.09118 9.60278767,4.09118 L11.042076,4.09118 C11.5839656,4.09118 12.0233321,4.53049774 12.0233321,5.07243613 L12.0233321,6.44628895 L12.0233321,6.44630519 Z" id="形状"></path>
            </g>
        </g>
    </g>
</svg>