<?xml version="1.0" encoding="UTF-8"?>
<svg width="24px" height="24px" viewBox="0 0 24 24" version="1.1" xmlns="http://www.w3.org/2000/svg" xmlns:xlink="http://www.w3.org/1999/xlink">
    <!-- Generator: Sketch 53 (72520) - https://sketchapp.com -->
    <title>左侧工具栏-抹除</title>
    <desc>Created with Sketch.</desc>
    <g id="左侧工具栏-抹除" stroke="none" stroke-width="1" fill="none" fill-rule="evenodd">
        <g id="轨迹-copy">
            <g id="抹除" transform="translate(1.000000, 1.000000)">
                <path d="M5.96645316,0.0109553959 L1.72646973,0.0109553959 C0.772905465,0.0109553959 0,0.780963221 0,1.73095255 L0,20.2800028 C0,21.2299922 0.772905465,22 1.72646973,22 L5.96645316,22 C6.19266939,22 6.37647008,21.8168884 6.37647008,21.5915202 L6.37647008,0.419435157 C6.37647008,0.194067013 6.19266939,0.0109553959 5.96645316,0.0109553959 M4.80552402,1.63078893 L4.80552402,20.3801665 C4.80552402,20.4099025 4.78038888,20.4349434 4.75054091,20.4349434 L1.97153731,20.4349434 C1.75003392,20.4349434 1.57094607,20.256527 1.57094607,20.0374191 L1.57094607,1.97353632 C1.57094607,1.7544284 1.75003392,1.57601195 1.97153731,1.57601195 L4.75054091,1.57601195 C4.78038888,1.57601195 4.80552402,1.60105286 4.80552402,1.63078893 Z M8.63659019,21.9890446 C8.19515435,21.9890446 7.83697864,21.6306467 7.83697864,21.1908658 L7.83697864,0.796613787 C7.83697864,0.356832895 8.19515435,0 8.63659019,0 C9.07802603,0 9.43620174,0.356832895 9.43620174,0.796613787 L9.43620174,21.1908658 C9.43620174,21.6306467 9.07802603,21.9890446 8.63659019,21.9890446 Z M10.9876681,11.7748595 C10.9876681,11.3350786 11.3458438,10.9782457 11.7872796,10.9782457 L21.2003885,10.9782457 C21.6418243,10.9782457 22,11.3350786 22,11.7748595 C22,12.2146404 21.6418243,12.5730383 21.2003885,12.5730383 L11.7872796,12.5730383 C11.3458438,12.5730383 10.9876681,12.2146404 10.9876681,11.7748595 Z M10.9868826,7.12398093 C10.9868826,6.68420004 11.3450583,6.32580209 11.7864941,6.32580209 L18.0969845,6.32580209 C18.5384203,6.32580209 18.896596,6.68420004 18.896596,7.12398093 C18.896596,7.56376183 18.5384203,7.92059472 18.0969845,7.92059472 L11.7864941,7.92059472 C11.3450583,7.92059472 10.9868826,7.56376183 10.9868826,7.12398093 Z M10.9868826,16.4593868 C10.9868826,16.0196059 11.3450583,15.6612079 11.7864941,15.6612079 L16.538606,15.6612079 C16.9800418,15.6612079 17.3382175,16.0196059 17.3382175,16.4593868 C17.3382175,16.8991677 16.9800418,17.2560006 16.538606,17.2560006 L11.7864941,17.2560006 C11.3450583,17.2560006 10.9868826,16.8991677 10.9868826,16.4593868 Z" id="Fill-1" fill="#ffffff" ></path>
            </g>
            <rect id="矩形-copy" stroke="#979797" opacity="0" x="0.5" y="0.5" width="23" height="23"></rect>
        </g>
    </g>
</svg>