<?xml version="1.0" encoding="UTF-8"?>
<svg width="10px" height="10px" viewBox="0 0 10 10" version="1.1" xmlns="http://www.w3.org/2000/svg">
    <!-- Generator: Sketch 52.5 (67469) - http://www.bohemiancoding.com/sketch -->
    <title>保存</title>
    <desc>Created with Sketch.</desc>
    <g id="组件" stroke="#5587b9" stroke-width="1" fill="none" fill-rule="evenodd" opacity="0.699999988">
        <g id="顶部控件" transform="translate(-1309.000000, -19.000000)" fill="#FFFEFE">
            <g id="新建-预览-保存">
                <g transform="translate(1170.000000, 15.000000)">
                    <g id="保存" transform="translate(139.000000, 4.000000)">
                        <g id="分组">
                            <path d="M9.18605561,-2.83107201e-15 L0.813965791,-2.83107201e-15 C0.365586363,-2.83107201e-15 -3.66374024e-15,0.365117612 -3.66374024e-15,0.813956025 L-3.66374024e-15,9.18604585 C-3.66374024e-15,9.63489402 0.365586363,10.0000116 0.813956025,10.0000116 L9.18604585,10.0000116 C9.63488426,10.0000116 10.0000019,9.63489402 10.0000019,9.18605561 L10.0000019,0.813965791 C10.0000116,0.365117612 9.63489402,-3.66374024e-15 9.18605561,-2.83107201e-15 Z M7.0930356,0.721866074 L7.0930356,3.45116613 L2.90697604,3.45116613 L2.90697604,0.721866074 L7.0930356,0.721866074 Z M9.30233504,9.18604585 C9.30264319,9.2499571 9.25108274,9.30201673 9.18717182,9.30232532 C9.18679983,9.30232711 9.18642784,9.30232711 9.18605585,9.30232532 L0.813966025,9.30232532 C0.750245248,9.30232532 0.697686593,9.2506944 0.697686593,9.18604589 L0.697686593,0.813965834 C0.697686593,0.749776306 0.750245248,0.697686402 0.813966025,0.697686402 L2.20931921,0.697686402 L2.20931921,3.7535005 C2.20931921,3.97164529 2.38652645,4.14885253 2.60466147,4.14885253 L7.39537017,4.14885253 C7.61350519,4.14885253 7.79071243,3.97164529 7.79071243,3.7535005 L7.79071243,0.697676636 L9.18606561,0.697676636 C9.25013923,0.697530851 9.30219954,0.749354528 9.30234505,0.813427747 C9.30234545,0.813603729 9.30234545,0.81377971 9.30234505,0.813955692 L9.30234505,9.18604551 L9.30233504,9.18604585 Z" id="形状" fill-rule="nonzero"></path>
                            <polygon id="路径" points="5.74140317 1.8116232 6.43907976 1.8116232 6.43907976 2.94558937 5.74140317 2.94558937"></polygon>
                        </g>
                    </g>
                </g>
            </g>
        </g>
    </g>
</svg>