<?xml version="1.0" encoding="UTF-8"?>
<svg width="24px" height="24px" viewBox="0 0 24 24" version="1.1" xmlns="http://www.w3.org/2000/svg" xmlns:xlink="http://www.w3.org/1999/xlink">
    <!-- Generator: Sketch 53 (72520) - https://sketchapp.com -->
    <title>左侧菜单栏-抠图</title>
    <desc>Created with Sketch.</desc>
    <g id="左侧菜单栏-抠图" stroke="none" stroke-width="1" fill="none" fill-rule="evenodd">
        <g id="抠图" transform="translate(2.000000, 2.000000)" >
            <path d="M10.9296572,9.17714649 L14.4003006,5.68836995 L15.3518034,6.64459757 L11.8784748,10.131575 L10.9296572,9.17714649 Z M8.35860033,13.6725258 L4.22855861,17.8230754 C3.96629112,18.0866452 3.53932322,18.0866452 3.27705572,17.8230754 C3.01478823,17.5595056 3.01478823,17.1313171 3.27705572,16.8677473 L9.61384418,10.4994933 L10.5653471,11.4548213 L8.35860033,13.6725258 Z M15.1539839,3.64637869 C14.7377574,3.22898488 14.0637389,3.22898488 13.6484074,3.64637869 L8.34338344,8.97684544 L7.98802441,9.33396902 L1.88515827,15.4680388 C0.853095393,16.5043269 0.853095393,18.1864959 1.88515827,19.2227839 C2.91632603,20.259072 4.58928831,20.259072 5.62045607,19.2227839 L11.7242173,13.0887142 L12.0795764,12.7315906 L13.1188001,11.6872065 L17.5233425,7.26079317 C17.8625895,6.91986159 17.8625895,6.36843399 17.5233425,6.02750241 L15.1539839,3.64637869 Z" id="Fill-1" fill="#ffffff" opacity="0.5"></path>
            <path d="M17.679464,16.6666667 L18.2602203,14.6231741 C18.2701761,14.5884356 18.2958953,14.5606447 18.3290814,14.5493547 L20,13.973564 L18.365586,13.2805308 C18.3332296,13.2666354 18.3091697,13.2371077 18.3017029,13.2015007 L17.8661357,11.1111111 L17.2953353,13.1667622 C17.2845498,13.2023692 17.2596603,13.2292915 17.2264742,13.24145 L15.5555556,13.8172407 L17.179184,14.497247 C17.2123701,14.5111424 17.23643,14.5406701 17.2438969,14.5771455 L17.679464,16.6666667 Z" id="Fill-3" fill="#ffffff" opacity="0.5"></path>
            <path d="M14.3465638,18.6641667 L14.9272116,16.7033333 C14.9371656,16.67 14.96288,16.6441667 14.9960599,16.6325 L16.6666667,16.08 L15.0325578,15.4158333 C15.0002074,15.4016667 14.976152,15.3733333 14.9686865,15.3391667 L14.5332006,13.3333333 L13.9616772,15.3058333 C13.9517233,15.34 13.9260089,15.3666667 13.892829,15.3775 L12.2222222,15.93 L13.8463772,16.5825 C13.879557,16.5958333 13.9036125,16.625 13.9110779,16.6591667 L14.3465638,18.6641667 Z" id="Fill-5" fill="#ffffff" opacity="0.5"></path>
            <path d="M4.82476524,3.30053417 L3.94175884,0.0603747146 C3.91931684,-0.0208176044 3.8002016,-0.0199805702 3.78034906,0.062048783 L2.94481613,3.30890451 C2.9379109,3.33485257 2.91892151,3.35494139 2.8930269,3.3649858 L0.0541138495,4.39370085 C-0.0183910748,4.41964891 -0.0175279209,4.51925599 0.0549770034,4.54436701 L2.90165843,5.5421118 C2.92755305,5.55048214 2.94740559,5.571408 2.95431082,5.59735606 L3.83731722,8.82830813 C3.85975922,8.90950045 3.9780113,8.90866342 3.99872699,8.82830813 L4.83425993,5.58061537 C4.84116516,5.55383028 4.86015454,5.53374146 4.88604916,5.52369704 L7.72409905,4.49581903 C7.79660398,4.46903393 7.79574082,4.36942686 7.72237275,4.34431583 L4.87741762,3.35494139 C4.85152301,3.34657105 4.83167047,3.32564519 4.82476524,3.30053417" id="Fill-7" fill="#ffffff" opacity="0.5"></path>
        </g>
        <rect id="矩形-copy-37" stroke="#979797" opacity="0" x="0.5" y="0.5" width="23" height="23"></rect>
    </g>
</svg>