<?xml version="1.0" encoding="UTF-8"?>
<svg width="20px" height="20px" viewBox="0 0 20 20" version="1.1" xmlns="http://www.w3.org/2000/svg" xmlns:xlink="http://www.w3.org/1999/xlink">
    <!-- Generator: Sketch 61.2 (89653) - https://sketch.com -->
    <title>xhdpi/智慧通行</title>
    <desc>Created with Sketch.</desc>
    <g id="控件" stroke="none" stroke-width="1" fill="none" fill-rule="evenodd">
        <g id="nav" transform="translate(-35.000000, -153.000000)" fill="#FFFFFF" fill-rule="nonzero">
            <g id="智慧通行">
                <path d="M50.1957295,160.316363 C51.9442279,159.288449 53.629707,159.071985 54.4764568,159.918941 C55.3243525,160.765324 55.1072225,162.450072 54.0788625,164.197812 C55.1072225,165.945553 55.3237796,167.630301 54.4764568,168.476684 C53.629707,169.324212 51.9442279,169.107176 50.1957295,168.079262 C48.4472312,169.107176 46.7617521,169.323639 45.9150022,168.476684 C45.0671066,167.630301 45.2842366,165.945553 46.3125965,164.197812 C45.2842366,162.450072 45.0676795,160.765324 45.9150022,159.918941 C46.7617521,159.071413 48.4472312,159.288449 50.1957295,160.316363 Z M44.0989324,153 C45.6135231,153 47.0711744,153.159361 48.2213523,153.443936 C49.633452,153.796807 50.5330961,154.331807 50.8747331,155.026167 C51.113879,155.492869 51.341637,156.323825 51.5352313,157.166165 C51.1366548,157.075101 50.7266904,157.018186 50.316726,156.984037 C50.1686833,156.38074 50.0092527,155.845741 49.86121,155.538401 C49.5309609,154.866806 47.3900356,154.149679 44.1103203,154.149679 C40.830605,154.149679 38.7010676,154.866806 38.3594306,155.538401 C38.0405694,156.18723 37.6761566,157.91744 37.4483986,159.158183 C37.4483986,159.158183 37.4939502,159.1468 37.5964413,159.124034 C38.0491966,159.024692 39.626311,158.721983 43.3661536,158.703728 L43.7231317,158.702865 L44.2925267,158.702865 C44.5544484,158.714248 44.7935943,158.714248 45.0327402,158.714248 C44.6227758,159.044354 44.258363,159.431374 43.9395018,159.841161 C41.5252669,159.841161 39.4412811,159.852544 38.0519573,160.18265 C36.7645552,160.485437 36.1965836,161.014232 36.143005,161.964226 L36.13879,162.117754 L36.13879,164.963494 C36.13879,165.250345 36.3417224,165.481875 36.6147587,165.525312 L36.7081851,165.532643 L42.4476868,165.532643 C42.4903915,165.822908 42.5523132,166.113174 42.6286477,166.393835 L42.7096085,166.670939 L39.5551601,166.670939 L39.5551601,167.809235 C39.5551601,168.393561 39.1087544,168.878728 38.5400005,168.94082 L38.4163701,168.947532 L37.2775801,168.947532 C36.6930012,168.947532 36.2076236,168.501319 36.1455047,167.932812 L36.13879,167.809235 L36.13879,166.568492 C35.522325,166.35601 35.064582,165.786559 35.0062895,165.110016 L35,164.963494 L35,162.117754 C35,161.252648 35.2619217,160.569671 35.8085409,160.034671 C36.5297746,157.272406 37.0346382,155.602904 37.3231317,155.026167 C37.6761566,154.331807 38.5644128,153.796807 39.9765125,153.443936 C41.1153025,153.159361 42.5843416,153 44.0989324,153 Z M38.7959668,166.754414 L36.8979834,166.754414 L36.8979834,167.702789 C36.8979834,167.935728 37.0658365,168.129463 37.287188,168.16964 L37.3724792,168.177284 L38.3214709,168.177284 C38.5544103,168.177284 38.7481455,168.009431 38.788322,167.78808 L38.7959668,167.702789 L38.7959668,166.754414 Z M53.5088246,165.059084 L53.4515343,165.136392 C53.121988,165.574154 52.7618797,165.98807 52.3739048,166.375043 C51.9641105,166.785616 51.524028,167.164827 51.0573749,167.509471 C52.3005732,168.152562 53.3804944,168.276828 53.8285041,167.829012 C54.2765139,167.381197 54.152194,166.301744 53.5088246,165.059084 Z M46.8826345,165.059084 L46.856281,165.110623 C46.2358276,166.331522 46.1212471,167.387496 46.5629549,167.829012 C47.0109647,168.276828 48.0908858,168.152562 49.3346571,167.509471 C48.8677686,167.164897 48.4274906,166.785683 48.0175543,166.375043 C47.6068031,165.965427 47.2274282,165.525535 46.8826345,165.059084 Z M50.1957295,161.399824 L50.1682302,161.418722 C49.6297205,161.787836 49.1268258,162.20635 48.6660799,162.668826 C48.1954059,163.137148 47.7703118,163.64911 47.396528,164.197812 C47.770309,164.746517 48.1954033,165.258479 48.6660799,165.726799 C49.1656509,166.226726 49.6852734,166.65049 50.1957295,166.9958 C50.7446717,166.622181 51.2568566,166.197271 51.7253792,165.726799 C52.1960532,165.258477 52.6211473,164.746514 52.994931,164.197812 C52.62115,163.649108 52.1960557,163.137145 51.7253792,162.668826 C51.2568543,162.198356 50.7446697,161.773446 50.1957295,161.399824 Z M50.3352355,163.624186 C50.5355391,163.676593 50.6919672,163.832953 50.7443966,164.03317 C50.796826,164.233387 50.7370975,164.446302 50.5881677,164.59008 C50.3633729,164.8071 50.0060502,164.803997 49.7850624,164.583105 C49.5640746,164.362213 49.5609695,164.005045 49.7780836,163.780347 C49.9219248,163.631482 50.1349319,163.57178 50.3352355,163.624186 Z M46.6127974,160.521373 L46.5629549,160.566613 L46.5176956,160.616434 C46.1241116,161.090591 46.2616082,162.137403 46.8826345,163.336541 C47.2273809,162.870052 47.6067587,162.430157 48.0175543,162.020581 C48.4273486,161.610008 48.867431,161.230798 49.3340842,160.886154 C48.1344264,160.265397 47.0871607,160.12796 46.6127974,160.521373 Z M51.1083632,160.859812 L51.056802,160.886154 C51.5042388,161.21543 51.9476653,161.595099 52.3739048,162.020581 C52.784656,162.430198 53.1640308,162.87009 53.5088246,163.336541 C54.152194,162.093881 54.2765139,161.014428 53.8285041,160.566613 C53.3867963,160.125096 52.3303642,160.239627 51.1083632,160.859812 Z"></path>
            </g>
        </g>
    </g>
</svg>