<?xml version="1.0" encoding="UTF-8"?>
<svg width="24px" height="24px" viewBox="0 0 24 24" version="1.1" xmlns="http://www.w3.org/2000/svg" xmlns:xlink="http://www.w3.org/1999/xlink">
    <!-- Generator: Sketch 53 (72520) - https://sketchapp.com -->
    <title>左侧工具栏-轨迹</title>
    <desc>Created with Sketch.</desc>
    <g id="左侧工具栏-轨迹" stroke="none" stroke-width="1" fill="none" fill-rule="evenodd">
        <g id="轨迹">
            <path d="M9.80577906,17.6994793 C9.80577906,19.804861 8.15174185,21.5173369 6.11820692,21.5173369 C4.08467199,21.5173369 2.43206685,19.804861 2.43206685,17.6994793 C2.43206685,15.5940977 4.08467199,13.8831045 6.11820692,13.8831045 C8.15174185,13.8831045 9.80577906,15.5940977 9.80577906,17.6994793 M22.8920059,6.74408156 L17.0062112,1.09365241 C16.8701648,0.961695389 16.6567869,0.970591368 16.530765,1.11144436 L15.8591256,1.86018924 C15.7331038,2.0025249 15.7416962,2.2234417 15.8777425,2.35391606 L19.6111408,5.93899548 C11.3409547,5.02270967 7.69491252,9.44994175 6.35449795,12.424164 C6.27573427,12.419716 6.19983473,12.4004414 6.11820692,12.4004414 C3.29130696,12.4004414 1,14.7727023 1,17.6994793 C1,20.627739 3.29130696,23 6.11820692,23 C8.94510688,23 11.2378459,20.627739 11.2378459,17.6994793 C11.2378459,15.482898 9.92177647,13.5895372 8.0543613,12.7977951 C9.30885186,10.2520625 12.5395947,6.80338808 19.8030377,7.75377514 L15.7359679,11.4070571 C15.5941933,11.5330834 15.5798726,11.7525176 15.7015983,11.8978186 L16.3474604,12.670286 C16.4706182,12.815587 16.6825641,12.8318963 16.8229066,12.70587 L22.8834135,7.26449631 C23.0352126,7.1280913 23.0395088,6.88641722 22.8920059,6.74408156" id="Fill-1" fill="#ffffff"></path>
            <rect id="矩形-copy" stroke="#979797" opacity="0" x="0.5" y="0.5" width="23" height="23"></rect>
        </g>
    </g>
</svg>