<?xml version="1.0" encoding="UTF-8"?>
<svg width="56px" height="56px" viewBox="0 0 56 56" version="1.1" xmlns="http://www.w3.org/2000/svg" xmlns:xlink="http://www.w3.org/1999/xlink">
    <!-- Generator: Sketch 53 (72520) - https://sketchapp.com -->
    <title>插播-素材管理-上传新素材</title>
    <desc>Created with Sketch.</desc>
    <g id="插播-素材管理-上传新素材" stroke="none" stroke-width="1" fill="none" fill-rule="evenodd">
        <g id="为空">
            <path d="M11.9821713,16.8888008 L23.0631392,4.61599815 C23.4168679,4.22358482 23.9208933,4.00000049 24.4492091,4.00000049 L43.7190715,4.00000049 C44.1427105,3.99955048 44.4994,4.31010027 44.4994,4.78026419 L44.4994,43.7185951 C44.4994,44.1505539 44.1502258,44.5003798 43.7190715,44.5003798 L30.2303196,44.5003798 L30.2303196,31.5187995 L31.9913722,31.5187995 C32.4240446,31.5187995 32.6806118,31.0336063 32.4392261,30.6746546 L28.4464948,24.7625981 C28.2324358,24.4462338 27.7663642,24.4462338 27.5523052,24.7625981 L23.561092,30.6746546 C23.3181882,31.0336063 23.5747554,31.5187995 24.0089459,31.5187995 L25.7699985,31.5187995 L25.7699985,44.5003798 L12.2797285,44.5003798 C11.8485742,44.5003798 11.4994,44.1505539 11.4994,43.7185951 L11.4994,18.1451319 C11.4994,17.6812324 11.672469,17.2340637 11.9821713,16.8888008 Z M49.8816489,52 L4.61835106,52 C4.27599572,52 4,51.7294908 4,51.397235 L4,42.9599953 C4,42.5674629 4.32425727,42.2499087 4.72693954,42.2499087 L6.89267644,42.2499087 C7.29385054,42.2499087 7.61961598,42.5674629 7.61961598,42.9599953 L7.61961598,48.4716196 L48.380384,48.4716196 L48.380384,42.9599953 C48.380384,42.5674629 48.7061495,42.2499087 49.1073236,42.2499087 L51.2730605,42.2499087 C51.6742346,42.2499087 52,42.5674629 52,42.9599953 L52,51.397235 C52,51.7294908 51.7240043,52 51.3816489,52 L49.8816489,52 Z" id="Fill-4" fill-opacity="0.7" fill="#73747E"></path>
            <rect id="矩形" stroke="#979797" stroke-width="1.16666667" opacity="0" x="0.583333333" y="0.583333333" width="54.8333333" height="54.8333333"></rect>
        </g>
    </g>
</svg>