<?xml version="1.0" encoding="UTF-8"?>
<svg width="12px" height="12px" viewBox="0 0 12 12" version="1.1" xmlns="http://www.w3.org/2000/svg">
    <!-- Generator: Sketch 53 (72520) - https://sketchapp.com -->
    <title>上箭头</title>
    <desc>Created with Sketch.</desc>
    <g id="res" stroke="none" stroke-width="1" fill="none" fill-rule="evenodd" fill-opacity="0.7">
        <g id="画板" transform="translate(-116.000000, -19.000000)" fill="#FFFFFF">
            <path d="M127.860721,19.5247402 C128.05719,19.711139 128.050181,20.0199888 127.85536,20.2048104 L122.360991,25.4171727 C122.161562,25.6063662 121.833614,25.6019942 121.638793,25.4171727 L116.144424,20.2048104 C115.944994,20.0156168 115.939658,19.7139276 116.139069,19.5247402 L116.551908,19.1330679 C116.748381,18.9466691 117.077081,18.9562962 117.273874,19.1429905 L121.999892,23.6264782 L126.725927,19.1429905 C126.928186,18.9511116 127.24848,18.9438806 127.447888,19.1330679 L127.860721,19.5247402 Z M127.860721,24.9709427 C128.05719,25.1573415 128.050181,25.4661913 127.85536,25.6510128 L122.360991,30.8633751 C122.161562,31.0525687 121.833614,31.0481966 121.638793,30.8633751 L116.144424,25.6510128 C115.944994,25.4618193 115.939658,25.16013 116.139069,24.9709427 L116.551908,24.5792703 C116.748381,24.3928715 117.077081,24.4024986 117.273874,24.5891929 L121.999892,29.0726807 L126.725927,24.5891929 C126.928186,24.397314 127.24848,24.390083 127.447888,24.5792703 L127.860721,24.9709427 Z" id="上箭头" transform="translate(122.000000, 25.000000) scale(1, -1) translate(-122.000000, -25.000000) "></path>
        </g>
    </g>
</svg>