<?xml version="1.0" encoding="UTF-8"?>
<svg width="20px" height="18px" viewBox="0 0 20 18" version="1.1" xmlns="http://www.w3.org/2000/svg" xmlns:xlink="http://www.w3.org/1999/xlink">
    <!-- Generator: Sketch 61.2 (89653) - https://sketch.com -->
    <title>xhdpi/车辆信息</title>
    <desc>Created with Sketch.</desc>
    <g id="页面-1" stroke="none" stroke-width="1" fill="none" fill-rule="evenodd">
        <g id="人员管理-常驻人员-添加人员" transform="translate(-912.000000, -677.000000)" fill="#1890FF" fill-rule="nonzero">
            <g id="编组-2">
                <g id="编组-8" transform="translate(856.000000, 130.000000)">
                    <path d="M70.3683333,547 L72.4,550.989143 L76,550.989143 L76,562.428571 L73.3944379,562.428757 C73.3200527,562.7251 73.2064503,563.013552 73.0536306,563.28579 C72.4581313,564.346632 71.3576127,565.000094 70.1666667,565 C68.6137985,564.999878 67.3090071,563.907574 66.9387693,562.429235 L64.3333333,562.428571 L64.3333333,547 L70.3683333,547 Z M70.1666667,559.857143 C69.2461921,559.857143 68.5,560.624655 68.5,561.571429 C68.5,562.518202 69.2461921,563.285714 70.1666667,563.285714 C71.0871412,563.285714 71.8333333,562.518202 71.8333333,561.571429 C71.8333333,560.624655 71.0871412,559.857143 70.1666667,559.857143 Z M62.6666667,560.714286 L62.6666667,562.428571 L56,562.428571 L56,560.714286 L62.6666667,560.714286 Z M69.4233333,548.714286 L66,548.714286 L66,560.714286 L66.9386923,560.71393 C67.3088263,559.235434 68.6136909,558.142979 70.1666667,558.142857 C71.3576127,558.142763 72.4581313,558.796225 73.0536306,559.857067 C73.2064503,560.129305 73.3200527,560.417757 73.3944379,560.7141 L74.3333333,560.714286 L74.3333333,552.904 L71.455,552.904 L69.4233333,548.714286 Z M62.6666667,553.857143 L62.6666667,555.571429 L56,555.571429 L56,553.857143 L62.6666667,553.857143 Z M62.6666667,547 L62.6666667,548.714286 L56,548.714286 L56,547 L62.6666667,547 Z" id="车辆信息"></path>
                </g>
            </g>
        </g>
    </g>
</svg>