<?xml version="1.0" encoding="UTF-8"?>
<svg width="30px" height="30px" viewBox="0 0 30 30" version="1.1" xmlns="http://www.w3.org/2000/svg" xmlns:xlink="http://www.w3.org/1999/xlink">
    <!-- Generator: Sketch 61 (89581) - https://sketch.com -->
    <title>等车人数</title>
    <desc>Created with Sketch.</desc>
    <g id="页面1" stroke="none" stroke-width="1" fill="none" fill-rule="evenodd">
        <g id="等车人数" transform="translate(1.000000, 1.000000)" fill="#55626F" fill-rule="nonzero" stroke="#55626F">
            <g id="分组-4" transform="translate(-0.000000, -0.000000)">
                <path d="M28.1813237,22.2390273 C27.8567825,21.9144862 27.3158807,21.9144862 26.9913395,22.2390273 L22.8032135,26.4271533 L18.6150876,22.2390273 C18.5687246,22.1926643 18.5223616,22.1617556 18.4759985,22.130847 C18.3369095,22.0381209 18.1823661,21.9917579 18.0123683,21.9917579 C17.904188,21.9917579 17.7960076,22.0072123 17.7032816,22.0535753 C17.5951012,22.0999383 17.5023752,22.1617556 17.4251035,22.2390273 L12.6497126,27.0144182 C12.3251715,27.3389593 12.3251715,27.8798612 12.6497126,28.2044023 C12.8197103,28.3744001 13.0206167,28.4516718 13.2369775,28.4516718 C13.4533382,28.4516718 13.669699,28.3744001 13.8242424,28.2044023 L18.0123683,24.0162764 L22.2004943,28.2044023 C22.3704921,28.3744001 22.5713985,28.4516718 22.7877592,28.4516718 C22.8341222,28.4516718 22.8959396,28.4516718 22.9423026,28.4362174 C23.096846,28.4053087 23.2513894,28.3280371 23.3750241,28.2044023 L28.150415,23.4290115 C28.5213191,23.1044704 28.5213191,22.5635685 28.1813237,22.2390273 L28.1813237,22.2390273 Z" id="路径"></path>
                <path d="M12.9816451,2.55795385e-13 C8.51534098,2.55795385e-13 4.88357124,3.63176975 4.88357124,8.11352818 C4.88357124,11.2043961 6.61445725,13.8934511 9.17987757,15.253433 C3.87903918,16.8915929 -5.68434189e-14,21.8369815 -5.68434189e-14,27.6632675 C-5.68434189e-14,28.095989 0.339995466,28.4359844 0.772716962,28.4359844 C1.20543846,28.4359844 1.54543392,28.095989 1.54543392,27.6632675 C1.54543392,21.357897 6.69172894,16.211602 12.935282,16.211602 C12.9816451,16.211602 13.0434624,16.1961476 13.1052798,16.1961477 C17.5252208,16.1497846 21.1106276,12.5334692 21.1106276,8.08261949 C21.0951732,3.63176975 17.4634035,2.55795385e-13 12.9816451,2.55795385e-13 Z M12.9816451,14.6507137 C9.36532966,14.6507137 6.42900516,11.6989349 6.42900516,8.09807383 C6.42900516,4.48175843 9.38078398,1.54543392 12.9816451,1.54543392 C16.5979605,1.54543392 19.5342849,4.49721274 19.5342849,8.09807383 C19.5342849,11.7298436 16.5979605,14.6507137 12.9816451,14.6507137 Z" id="形状"></path>
            </g>
        </g>
    </g>
</svg>