<?xml version="1.0" encoding="UTF-8"?>
<svg width="18px" height="18px" viewBox="0 0 18 18" version="1.1" xmlns="http://www.w3.org/2000/svg">
    <!-- Generator: Sketch 52.5 (67469) - http://www.bohemiancoding.com/sketch -->
    <title>二维码</title>
    <desc>Created with Sketch.</desc>
    <g id="组件" stroke="none" stroke-width="1" fill="none" fill-rule="evenodd" opacity="0.5">
        <g id="菜单控件-2" transform="translate(-91.000000, -651.000000)" fill="#FBFEFE">
            <g id="分组-5">
                <g id="二维码" transform="translate(85.000000, 648.000000)">
                    <g transform="translate(6.000000, 3.500000)" id="分组-3">
                        <g>
                            <path d="M7.5340007,-4.52970994e-14 L0.320708392,-4.52970994e-14 C0.143477622,-4.52970994e-14 8.18181821e-05,0.141878388 8.18181821e-05,0.31643663 L8.18181821e-05,7.45499194 C8.18181821e-05,7.62955018 0.143477622,7.77142857 0.320708392,7.77142857 L7.5340007,7.77142857 C7.71123147,7.77142857 7.85462727,7.62955018 7.85462727,7.45499194 L7.85462727,0.31643663 C7.85462727,0.141878388 7.71123147,-4.52970994e-14 7.5340007,-4.52970994e-14 Z M6.08231958,5.77875458 C6.08231958,5.91106813 5.97356434,6.01787546 5.84064126,6.01787546 L2.01406783,6.01787546 C1.88033916,6.01787546 1.77238951,5.91106813 1.77238951,5.77875458 L1.77238951,1.99267399 C1.77238951,1.86036044 1.88033916,1.75355311 2.01406783,1.75355311 L5.83822448,1.75355311 C5.97275874,1.75355311 6.08231958,1.86195458 6.08231958,1.9950652 L6.08231958,5.77875458 Z" id="Fill-1"></path>
                            <path d="M17.3521007,-4.52970994e-14 L10.1388084,-4.52970994e-14 C9.96157762,-4.52970994e-14 9.81818182,0.141878388 9.81818182,0.31643663 L9.81818182,7.45499194 C9.81818182,7.62955018 9.96157762,7.77142857 10.1388084,7.77142857 L17.3521007,7.77142857 C17.5293315,7.77142857 17.6727273,7.62955018 17.6727273,7.45499194 L17.6727273,0.31643663 C17.6727273,0.141878388 17.5293315,-4.52970994e-14 17.3521007,-4.52970994e-14 Z M15.9004196,5.77875458 C15.9004196,5.91106813 15.7916643,6.01787546 15.6587413,6.01787546 L11.8321678,6.01787546 C11.6984392,6.01787546 11.5904895,5.91106813 11.5904895,5.77875458 L11.5904895,1.99267399 C11.5904895,1.86036044 11.6984392,1.75355311 11.8321678,1.75355311 L15.6563245,1.75355311 C15.7908587,1.75355311 15.9004196,1.86195458 15.9004196,1.9950652 L15.9004196,5.77875458 Z" id="Fill-3"></path>
                            <path d="M7.5340007,8.9047619 L0.320708392,8.9047619 C0.143477622,8.9047619 8.18181821e-05,9.04664029 8.18181821e-05,9.22119853 L8.18181821e-05,16.3597538 C8.18181821e-05,16.5343121 0.143477622,16.6761905 0.320708392,16.6761905 L7.5340007,16.6761905 C7.71123147,16.6761905 7.85462727,16.5343121 7.85462727,16.3597538 L7.85462727,9.22119853 C7.85462727,9.04664029 7.71123147,8.9047619 7.5340007,8.9047619 Z M6.08231958,14.6835165 C6.08231958,14.81583 5.97356434,14.9226374 5.84064126,14.9226374 L2.01406783,14.9226374 C1.88033916,14.9226374 1.77238951,14.81583 1.77238951,14.6835165 L1.77238951,10.8974359 C1.77238951,10.7651223 1.88033916,10.658315 2.01406783,10.658315 L5.83741888,10.658315 C5.97275874,10.658315 6.08231958,10.7667165 6.08231958,10.9006242 L6.08231958,14.6835165 Z" id="Fill-5"></path>
                            <path d="M11.043153,8.9047619 L10.0659379,8.9047619 C9.92865667,8.9047619 9.81818182,9.0153786 9.81818182,9.15102536 L9.81818182,16.429927 C9.81818182,16.5655738 9.92865667,16.6761905 10.0659379,16.6761905 L11.043153,16.6761905 C11.1796219,16.6761905 11.2909091,16.5655738 11.2909091,16.429927 L11.2909091,9.15102536 C11.2909091,9.0153786 11.1796219,8.9047619 11.043153,8.9047619" id="Fill-7"></path>
                            <path d="M17.5886075,8.9047619 L16.6113925,8.9047619 C16.4741112,8.9047619 16.3636364,9.0153786 16.3636364,9.15102536 L16.3636364,16.429927 C16.3636364,16.5655738 16.4741112,16.6761905 16.6113925,16.6761905 L17.5886075,16.6761905 C17.7250765,16.6761905 17.8363636,16.5655738 17.8363636,16.429927 L17.8363636,9.15102536 C17.8363636,9.0153786 17.7250765,8.9047619 17.5886075,8.9047619" id="Fill-9"></path>
                            <path d="M14.3158803,12.1428571 L13.3386652,12.1428571 C13.2013839,12.1428571 13.0909091,12.2472835 13.0909091,12.3762808 L13.0909091,16.4427668 C13.0909091,16.5717641 13.2013839,16.6761905 13.3386652,16.6761905 L14.3158803,16.6761905 C14.4523492,16.6761905 14.5636364,16.5717641 14.5636364,16.4427668 L14.5636364,12.3762808 C14.5636364,12.2472835 14.4523492,12.1428571 14.3158803,12.1428571" id="Fill-11"></path>
                        </g>
                    </g>
                </g>
            </g>
        </g>
    </g>
</svg>