<?xml version="1.0" encoding="UTF-8"?>
<svg width="16px" height="16px" viewBox="0 0 16 16" version="1.1" xmlns="http://www.w3.org/2000/svg" xmlns:xlink="http://www.w3.org/1999/xlink">
    <!-- Generator: Sketch 61 (89581) - https://sketch.com -->
    <title>勾选</title>
    <desc>Created with Sketch.</desc>
    <g id="页面1" stroke="none" stroke-width="1" fill="none" fill-rule="evenodd">
        <g id="勾选" transform="translate(-1.000000, -1.000000)" fill-rule="nonzero">
            <rect id="矩形" fill="#000000" opacity="0" x="0" y="0" width="18" height="18"></rect>
            <path d="M14.2437305,6.83648437 L8.51027344,12.4124414 C8.34801356,12.5688538 8.1316607,12.6566291 7.90628906,12.6574805 C7.67908093,12.661227 7.45932631,12.5764393 7.29351563,12.4210547 L3.79230469,9.05115234 C3.50542969,8.70978516 3.52107422,8.20757812 3.82816406,7.88466797 C4.13542969,7.56175781 4.63640625,7.52115234 4.99148438,7.790625 L7.89767578,10.5655078 L12.9832031,5.58474609 C13.3289648,5.23669922 13.8912891,5.23476562 14.2393359,5.58035156 C14.5873828,5.92611328 14.5894922,6.4884375 14.2437305,6.83648437 Z M15.1191211,1.12060547 L2.86435547,1.12060547 C1.89755859,1.12060547 1.11357422,1.90441406 1.11357422,2.87138672 L1.11357422,15.1261523 C1.11357422,15.5903906 1.29796875,16.0356445 1.62632813,16.3640039 C1.9546875,16.6923633 2.39994141,16.8767578 2.86417969,16.8767578 L15.1189453,16.8767578 C15.5831836,16.8767578 16.0284375,16.6923633 16.3567969,16.3640039 C16.6851562,16.0356445 16.8695508,15.5903906 16.8695508,15.1261523 L16.8695508,2.87121094 C16.8695508,2.40697266 16.6851562,1.96154297 16.3567969,1.63335937 C16.0284375,1.30517578 15.5835352,1.12060547 15.1191211,1.12060547 Z" id="形状" fill="#2895FF"></path>
        </g>
    </g>
</svg>