<?xml version="1.0" encoding="UTF-8"?>
<svg width="54px" height="64px" viewBox="0 0 54 64" version="1.1" xmlns="http://www.w3.org/2000/svg" xmlns:xlink="http://www.w3.org/1999/xlink">
    <!-- Generator: Sketch 61 (89581) - https://sketch.com -->
    <title>发布计划点击添加节目</title>
    <desc>Created with Sketch.</desc>
    <g id="页面1" stroke="none" stroke-width="1" fill="none" fill-rule="evenodd">
        <g id="发布计划点击添加节目" transform="translate(-12.000000, -7.000000)" fill-rule="nonzero">
            <rect id="矩形" fill="#000000" opacity="0" x="0" y="0" width="77.6119403" height="77.6119403"></rect>
            <path d="M23.6125233,7.53457323 L41.6565415,7.53457323 C41.9693136,7.53457323 42.1256996,7.69095927 42.1256996,8.00373134 L42.1256996,14.5871035 C42.1256996,14.8998756 41.9693136,15.0562617 41.6565415,15.0562617 L23.6125233,15.0562617 C23.2997512,15.0562617 23.1433652,14.8998756 23.1433652,14.5871035 L23.1433652,8.00373134 C23.1433652,7.69095927 23.2997512,7.53457323 23.6125233,7.53457323 Z M51.6612057,12.4527752 L44.377507,12.4527752 L44.377507,16.0203475 C44.377507,16.816173 43.7711637,17.4679921 43.0246035,17.4679921 L22.2444613,17.4679921 C21.5001749,17.4679921 20.8915578,16.816173 20.8915578,16.0203475 L20.8915578,12.4527752 L13.6078591,12.4527752 C12.8635728,12.4527752 12.2549557,13.1038363 12.2549557,13.8996618 L12.2549557,59.6391674 C12.2549557,60.434993 12.861299,61.086812 13.6078591,61.086812 L51.6612057,61.086812 C52.4054921,61.086812 53.0141091,60.434993 53.0141091,59.6391674 L53.0141091,13.8996618 C53.0141091,13.1038363 52.4054921,12.4527752 51.6612057,12.4527752 Z M24.2954174,51.1261077 C24.2954174,51.5550956 23.9672341,51.9060168 23.5662896,51.9060168 L20.4178521,51.9060168 C20.0169076,51.9060168 19.6894823,51.5550956 19.6894823,51.1261077 L19.6894823,47.7578708 C19.6894823,47.3288829 20.0169076,46.9779618 20.4178521,46.9779618 L23.5662896,46.9779618 C23.9672341,46.9779618 24.2954174,47.3288829 24.2954174,47.7578708 L24.2954174,51.1261077 Z M24.2954174,40.4802355 C24.2954174,40.9084655 23.9672341,41.2593867 23.5662896,41.2593867 L20.4178521,41.2593867 C20.0169076,41.2593867 19.6894823,40.9084655 19.6894823,40.4802355 L19.6894823,37.1112407 C19.6894823,36.6822528 20.0169076,36.3313316 20.4178521,36.3313316 L23.5662896,36.3313316 C23.9672341,36.3313316 24.2954174,36.6822528 24.2954174,37.1112407 L24.2954174,40.4802355 Z M24.2954174,29.8336054 C24.2954174,30.2625933 23.9672341,30.6135145 23.5662896,30.6135145 L20.4178521,30.6135145 C20.0169076,30.6135145 19.6894823,30.2625933 19.6894823,29.8336054 L19.6894823,26.4646105 C19.6894823,26.0363806 20.0169076,25.6854594 20.4178521,25.6854594 L23.5662896,25.6854594 C23.9672341,25.6854594 24.2954174,26.0363806 24.2954174,26.4646105 L24.2954174,29.8336054 Z M45.4583139,51.2360075 C45.4583139,51.6058769 45.1756063,51.9082906 44.8299907,51.9082906 L28.3313899,51.9082906 C27.9857743,51.9082906 27.7038246,51.6051189 27.7038246,51.2360075 L27.7038246,47.6502449 C27.7038246,47.2803755 27.9857743,46.9779618 28.3313899,46.9779618 L44.8299907,46.9779618 C45.1756063,46.9779618 45.4583139,47.2811334 45.4583139,47.6502449 L45.4583139,51.2360075 Z M45.4583139,40.5893773 C45.4583139,40.9592467 45.1756063,41.2616604 44.8299907,41.2616604 L28.3313899,41.2616604 C27.9857743,41.2616604 27.7038246,40.9584888 27.7038246,40.5893773 L27.7038246,37.0036147 C27.7038246,36.6337453 27.9857743,36.3313316 28.3313899,36.3313316 L44.8299907,36.3313316 C45.1756063,36.3313316 45.4583139,36.6345033 45.4583139,37.0036147 L45.4583139,40.5893773 Z M45.4583139,29.9435051 C45.4583139,30.3133745 45.1756063,30.6157882 44.8299907,30.6157882 L28.3313899,30.6157882 C27.9857743,30.6157882 27.7038246,30.3126166 27.7038246,29.9435051 L27.7038246,26.3577425 C27.7038246,25.9878731 27.9857743,25.6854594 28.3313899,25.6854594 L44.8299907,25.6854594 C45.1756063,25.6854594 45.4583139,25.9886311 45.4583139,26.3577425 L45.4583139,29.9435051 Z" id="形状" fill="#005BBB" opacity="0.698893229"></path>
            <path d="M64.2155434,23.6246502 L55.4500933,23.6246502 L55.4500933,60.6343284 C55.4500933,62.5791744 55.7820662,63.450035 52.6396922,63.450035 L24.2719216,63.450035 L24.2719216,69.0700793 C24.2719216,69.7854332 24.8503625,70.366176 25.5657066,70.3699277 L64.2155434,70.3699277 C64.9311838,70.3665915 65.5100863,69.7857273 65.5100863,69.0700793 L65.5100863,24.9244986 C65.5100863,24.2088505 64.9311838,23.6279864 64.2155434,23.6246502 L64.2155434,23.6246502 Z" id="路径" fill="#005BBB" opacity="0.301223028"></path>
        </g>
    </g>
</svg>