<?xml version="1.0" encoding="UTF-8"?>
<svg width="20px" height="18px" viewBox="0 0 20 18" version="1.1" xmlns="http://www.w3.org/2000/svg">
    <!-- Generator: Sketch 52.5 (67469) - http://www.bohemiancoding.com/sketch -->
    <title>图标</title>
    <desc>Created with Sketch.</desc>
    <g id="组件" stroke="none" stroke-width="1" fill="none" fill-rule="evenodd" opacity="0.5">
        <g id="菜单控件-2" transform="translate(-27.000000, -651.000000)" fill="#FBFEFE">
            <g id="分组-5">
                <g id="美化" transform="translate(24.000000, 648.000000)">
                    <g id="图标" transform="translate(3.000000, 3.000000)">
                        <path d="M15.8846364,11.0241 L14.9164545,7.3989 C14.8928182,7.3089 14.7628182,7.3098 14.7400909,7.4007 L13.8246364,11.034 C13.8173636,11.0628 13.7955455,11.0853 13.7673636,11.0961 L10.6564545,12.2463 C10.5764545,12.2769 10.5773636,12.3885 10.6573636,12.4173 L13.7773636,13.5324 C13.8055455,13.5423 13.8273636,13.5648 13.8346364,13.5936 L14.8028182,17.2098 C14.8273636,17.3007 14.9564545,17.2998 14.9800909,17.2089 L15.8955455,13.5747 C15.9028182,13.5468 15.9237273,13.5225 15.9519091,13.5126 L19.0628182,12.3615 C19.1419091,12.3327 19.1419091,12.2202 19.0619091,12.1923 L15.9419091,11.0853 C15.9137273,11.0763 15.8928182,11.0529 15.8846364,11.0241" id="Fill-1"></path>
                        <path d="M7.72509091,7.07778 L7.59145455,9.99018 C7.58963636,10.02078 7.57327273,10.04778 7.54781818,10.06308 L5.39690909,11.38788 L7.91145455,11.74698 C7.94145455,11.75148 7.96690909,11.77038 7.98054545,11.79738 L9.28327273,14.41548 L9.41781818,11.50308 C9.41872727,11.47338 9.43509091,11.44638 9.46054545,11.43018 L11.6114545,10.09638 L9.09690909,9.73638 C9.06781818,9.73188 9.04145455,9.71388 9.02872727,9.68688 L7.72509091,7.07778 Z" id="Fill-3"></path>
                        <path d="M12.5563636,9.56601 L12.85,7.85781 C12.8554545,7.82811 12.8745455,7.80291 12.9009091,7.79031 L14.2709091,7.15491 L12.8072727,6.76251 C12.7781818,6.75441 12.7545455,6.73371 12.7454545,6.70491 L12.1663636,5.06241 L11.8818182,6.77961 C11.8772727,6.80931 11.8581818,6.83451 11.8309091,6.84711 L10.4618182,7.48341 L11.9154545,7.86591 C11.9445455,7.87311 11.9681818,7.89561 11.9781818,7.92351 L12.5563636,9.56601 Z" id="Fill-5"></path>
                        <path d="M4.31432735,14.7388553 L2.04936697,14.7388553 C1.91410875,14.7388553 1.80344294,14.6315855 1.80344294,14.4986992 L1.80344294,2.50130085 C1.80344294,2.36841447 1.91410875,2.26114474 2.04936697,2.26114474 L15.950633,2.26114474 C16.0858912,2.26114474 16.1965571,2.36841447 16.1965571,2.50130085 L16.1965571,4.73795467 C16.1965571,4.87004053 16.3064031,4.97811077 16.4424811,4.97811077 L17.754076,4.97811077 C17.8901539,4.97811077 18,4.87004053 18,4.73795467 L18,0.817006054 C18,0.64249262 17.8540851,0.5 17.6745605,0.5 L0.325439475,0.5 C0.145914928,0.5 0,0.64249262 0,0.817006054 L0,16.1829939 C0,16.3575074 0.145914928,16.5 0.325439475,16.5 L4.31432735,16.5 C4.45040532,16.5 4.56025139,16.3919298 4.56025139,16.2598439 L4.56025139,14.9790114 C4.56025139,14.8469255 4.45040532,14.7388553 4.31432735,14.7388553" id="Fill-7"></path>
                    </g>
                </g>
            </g>
        </g>
    </g>
</svg>