<?xml version="1.0" encoding="UTF-8"?>
<svg width="20px" height="20px" viewBox="0 0 20 20" version="1.1" xmlns="http://www.w3.org/2000/svg">
    <!-- Generator: Sketch 52.5 (67469) - http://www.bohemiancoding.com/sketch -->
    <title>天气</title>
    <desc>Created with Sketch.</desc>
    <g id="组件" stroke="none" stroke-width="1" fill="none" fill-rule="evenodd" opacity="0.5">
        <g id="菜单控件-2" transform="translate(-26.000000, -522.000000)" fill="#FFFFFF">
            <g id="分组-5">
                <g id="天气" transform="translate(23.500000, 520.000000)">
                    <g transform="translate(2.500000, 2.000000)" id="分组">
                        <g>
                            <path d="M15.83048,18.25928 L4.33288,18.19368 C2.90408,18.19368 1.74168,17.03048 1.74168,15.60168 C1.74168,14.22488 2.96568,12.94248 4.33288,13.01208 C4.53128,13.02248 4.73288,13.06088 4.93448,13.13208 C5.25848,13.24648 5.54888,13.43928 5.86408,13.57768 C6.58488,13.89688 7.55128,13.65528 7.64728,12.74968 C7.83448,10.97208 9.48568,9.57848 11.40648,9.57848 C12.62568,9.57848 13.81288,10.16568 14.47128,11.20648 C14.79688,11.72168 14.88968,12.23128 14.97128,12.81768 C15.03128,13.24248 15.28808,13.72888 15.72168,13.87608 C16.10168,14.00488 16.49448,13.95608 16.87608,14.14568 C17.59288,14.50328 18.07128,15.22008 18.07128,16.01288 C18.07128,17.25128 17.06408,18.25928 15.83048,18.25928 M9.71288,5.87608 C11.27368,5.87608 12.60248,6.80968 13.21768,8.14248 C12.65368,7.94968 12.04728,7.83928 11.40648,7.83928 C9.04008,7.83928 6.96648,9.32888 6.20728,11.38968 C5.97048,10.89448 5.82328,10.34968 5.82328,9.76488 C5.82328,7.62008 7.56808,5.87608 9.71288,5.87608 M16.67928,12.25848 C16.49688,11.02488 15.88808,9.95848 15.00808,9.17848 C14.71528,6.51528 12.45288,4.43528 9.71288,4.43528 C6.77368,4.43528 4.38328,6.82648 4.38328,9.76488 C4.38328,10.29448 4.46968,10.80328 4.61608,11.28568 C4.52168,11.27768 4.42648,11.26888 4.33288,11.26888 C1.94408,11.26888 8.00000002e-05,13.21208 8.00000002e-05,15.60168 C8.00000002e-05,17.99048 1.94408,19.93448 4.32808,19.93448 L15.82568,20.00008 C18.02408,20.00008 19.81288,18.21128 19.81288,16.01288 C19.81288,14.11128 18.52568,12.60728 16.67928,12.25848" id="Fill-11"></path>
                            <path d="M9.3328,3.68816 L9.892,3.68816 C10.0688,3.68816 10.2128,3.54496 10.2128,3.36816 L10.2128,0.64176 C10.2128,0.46576 10.0688,0.32176 9.892,0.32176 L9.3328,0.32176 C9.156,0.32176 9.0128,0.46576 9.0128,0.64176 L9.0128,3.36816 C9.0128,3.54496 9.156,3.68816 9.3328,3.68816" id="Fill-1"></path>
                            <path d="M0.5164,10.53896 L3.242,10.53896 C3.4188,10.53896 3.5628,10.39496 3.5628,10.21896 L3.5628,9.65896 C3.5628,9.48216 3.4188,9.33896 3.242,9.33896 L0.5164,9.33896 C0.3388,9.33896 0.1956,9.48216 0.1956,9.65896 L0.1956,10.21896 C0.1956,10.39496 0.3388,10.53896 0.5164,10.53896" id="Fill-3"></path>
                            <path d="M15.97928,9.60928 L15.97928,10.16848 C15.97928,10.34528 16.12248,10.48928 16.29928,10.48928 L19.02568,10.48928 C19.20248,10.48928 19.34568,10.34528 19.34568,10.16848 L19.34568,9.60928 C19.34568,9.43168 19.20248,9.28928 19.02568,9.28928 L16.29928,9.28928 C16.12248,9.28928 15.97928,9.43168 15.97928,9.60928" id="Fill-5"></path>
                            <path d="M14.36208,5.68664 C14.48528,5.81304 14.68848,5.81624 14.81488,5.69304 L16.77248,3.79624 C16.89888,3.67304 16.90208,3.46984 16.77888,3.34264 L16.39008,2.94184 C16.26688,2.81464 16.06368,2.81144 15.93728,2.93544 L13.97968,4.83224 C13.85328,4.95544 13.85008,5.15864 13.97328,5.28504 L14.36208,5.68664 Z" id="Fill-7"></path>
                            <path d="M4.57032,5.62648 C4.69752,5.74968 4.90072,5.74648 5.02312,5.61928 L5.41272,5.21848 C5.53592,5.09208 5.53272,4.88888 5.40552,4.76568 L3.44872,2.86808 C3.32072,2.74488 3.11832,2.74808 2.99512,2.87528 L2.60632,3.27608 C2.48312,3.40328 2.48632,3.60648 2.61352,3.72888 L4.57032,5.62648 Z" id="Fill-9"></path>
                        </g>
                    </g>
                </g>
            </g>
        </g>
    </g>
</svg>