<?xml version="1.0" encoding="UTF-8"?>
<svg width="128px" height="25px" viewBox="0 0 128 25" version="1.1" xmlns="http://www.w3.org/2000/svg" xmlns:xlink="http://www.w3.org/1999/xlink">
    <!-- Generator: Sketch 54.1 (76490) - https://sketchapp.com -->
    <title>已选音乐背景图标</title>
    <desc>Created with Sketch.</desc>
    <g id="页面-1" stroke="none" stroke-width="1" fill="none" fill-rule="evenodd" opacity="0.5">
        <g id="画板" transform="translate(-95.000000, -89.000000)" fill="#9FAABC" fill-rule="nonzero">
            <g id="已选音乐背景图标" transform="translate(95.000000, 82.000000)">
                <g id="音频" transform="translate(0.000000, 7.822222)">
                    <path d="M59.8818139,0 L59.8818139,2.60530468e-15 C60.6414928,-3.90693698e-08 61.2573356,0.724572937 61.2573356,1.61837713 L61.2573356,21.848097 L61.2573356,21.8482895 C61.2573356,22.7420937 60.6414929,23.4666667 59.8818139,23.4666667 C59.1221349,23.4666667 58.5062921,22.7420937 58.5062921,21.8482895 C58.5062921,21.8481612 58.5062921,21.8480328 58.5062922,21.8479044 L58.5062922,1.6183908 L58.5062922,1.61839104 C58.506292,0.724586849 59.122133,1.39119791e-05 59.8818139,1.39119791e-05 L59.8818139,0 Z M84.6411547,6.4735131 L84.6411547,6.4735131 C85.4008337,6.47351306 86.0166764,7.19808603 86.0166764,8.09189022 L86.0166764,15.3745839 L86.0166764,15.3747764 C86.0166764,16.2685806 85.4008337,16.9931536 84.6411547,16.9931536 C83.8814757,16.9931536 83.2656329,16.2685806 83.2656329,15.3747764 C83.2656329,15.3746481 83.2656329,15.3745197 83.265633,15.3743913 L83.265633,8.09169764 L83.265633,8.09169742 C83.2656331,7.19789323 83.8814757,6.47332029 84.6411547,6.47332029 L84.6411547,6.4735131 Z M43.3755218,6.4735131 L43.3755217,6.4735131 C44.1352007,6.47351306 44.7510435,7.19808603 44.7510435,8.09189022 L44.7510435,15.3745839 L44.7510435,15.3747764 C44.7510435,16.2685806 44.1352007,16.9931536 43.3755217,16.9931536 C42.6158428,16.9931536 42,16.2685806 42,15.3747764 C42,15.3746481 42,15.3745197 42,15.3743913 L42,8.09169764 L42,8.09169742 C42.0000002,7.19789323 42.6158428,6.47332029 43.3755218,6.47332029 L43.3755218,6.4735131 Z M76.3881061,1.618384 L76.388106,1.618384 C77.147785,1.61838396 77.7636277,2.34295694 77.7636277,3.23676113 L77.7636277,21.0389164 L77.7636278,21.039109 C77.7636278,21.9329132 77.147785,22.6574861 76.388106,22.6574861 C75.628427,22.6574861 75.0125843,21.9329132 75.0125843,21.039109 C75.0125843,21.0389806 75.0125843,21.0388522 75.0125843,21.0387238 L75.0125843,3.2367748 L75.0125843,3.23677458 C75.0125844,2.34297039 75.6284271,1.61839745 76.388106,1.61839745 L76.3881061,1.618384 Z M68.1349795,5.66433255 L68.1349794,5.66433255 C68.8946584,5.66433251 69.5105012,6.38890549 69.5105012,7.28270968 L69.5105012,16.9929679 L69.5105012,16.9931604 C69.5105012,17.8869646 68.8946584,18.6115376 68.1349794,18.6115376 C67.3753004,18.6115376 66.7594577,17.8869646 66.7594577,16.9931604 C66.7594577,16.9930321 66.7594577,16.9929037 66.7594577,16.9927753 L66.7594577,7.28270043 L66.7594577,7.28270021 C66.7594578,6.38889602 67.3753005,5.66432308 68.1349795,5.66432308 L68.1349795,5.66433255 Z M51.6287263,5.66433255 L51.6287262,5.66433255 C52.3884052,5.66433251 53.004248,6.38890549 53.004248,7.28270968 L53.004248,16.9929679 L53.004248,16.9931604 C53.004248,17.8869646 52.3884052,18.6115376 51.6287262,18.6115376 C50.8690472,18.6115376 50.2532045,17.8869646 50.2532045,16.9931604 C50.2532045,16.9930321 50.2532045,16.9929037 50.2532045,16.9927753 L50.2532045,7.28270043 L50.2532045,7.28270021 C50.2532046,6.38889602 50.8690473,5.66432308 51.6287263,5.66432308 L51.6287263,5.66433255 Z" id="形状" opacity="0.2"></path>
                    <path d="M17.8818139,0 L17.8818139,2.60530468e-15 C18.6414928,-3.90693698e-08 19.2573356,0.724572937 19.2573356,1.61837713 L19.2573356,21.848097 L19.2573356,21.8482895 C19.2573356,22.7420937 18.6414929,23.4666667 17.8818139,23.4666667 C17.1221349,23.4666667 16.5062921,22.7420937 16.5062921,21.8482895 C16.5062921,21.8481612 16.5062921,21.8480328 16.5062922,21.8479044 L16.5062922,1.6183908 L16.5062922,1.61839104 C16.506292,0.724586849 17.122133,1.39119791e-05 17.8818139,1.39119791e-05 L17.8818139,0 Z M1.37552182,6.4735131 L1.37552174,6.4735131 C2.13520073,6.47351306 2.75104348,7.19808603 2.75104348,8.09189022 L2.75104348,15.3745839 L2.75104349,15.3747764 C2.75104349,16.2685806 2.13520074,16.9931536 1.37552175,16.9931536 C0.615842757,16.9931536 0,16.2685806 0,15.3747764 C0,15.3746481 1.29850732e-08,15.3745197 3.89552e-08,15.3743913 L3.89552e-08,8.09169764 L3.89552177e-08,8.09169742 C1.53663674e-07,7.19789323 0.615842796,6.47332029 1.37552179,6.47332029 L1.37552182,6.4735131 Z M34.3881061,1.618384 L34.388106,1.618384 C35.147785,1.61838396 35.7636277,2.34295694 35.7636277,3.23676113 L35.7636277,21.0389164 L35.7636278,21.039109 C35.7636278,21.9329132 35.147785,22.6574861 34.388106,22.6574861 C33.628427,22.6574861 33.0125843,21.9329132 33.0125843,21.039109 C33.0125843,21.0389806 33.0125843,21.0388522 33.0125843,21.0387238 L33.0125843,3.2367748 L33.0125843,3.23677458 C33.0125844,2.34297039 33.6284271,1.61839745 34.388106,1.61839745 L34.3881061,1.618384 Z M26.1349795,5.66433255 L26.1349794,5.66433255 C26.8946584,5.66433251 27.5105012,6.38890549 27.5105012,7.28270968 L27.5105012,16.9929679 L27.5105012,16.9931604 C27.5105012,17.8869646 26.8946584,18.6115376 26.1349794,18.6115376 C25.3753004,18.6115376 24.7594577,17.8869646 24.7594577,16.9931604 C24.7594577,16.9930321 24.7594577,16.9929037 24.7594577,16.9927753 L24.7594577,7.28270043 L24.7594577,7.28270021 C24.7594578,6.38889602 25.3753005,5.66432308 26.1349795,5.66432308 L26.1349795,5.66433255 Z M9.62872631,5.66433255 L9.62872623,5.66433255 C10.3884052,5.66433251 11.004248,6.38890549 11.004248,7.28270968 L11.004248,16.9929679 L11.004248,16.9931604 C11.004248,17.8869646 10.3884052,18.6115376 9.62872624,18.6115376 C8.86904725,18.6115376 8.25320449,17.8869646 8.25320449,16.9931604 C8.25320449,16.9930321 8.25320451,16.9929037 8.25320453,16.9927753 L8.25320453,7.28270043 L8.25320453,7.28270021 C8.25320465,6.38889602 8.86904729,5.66432308 9.62872628,5.66432308 L9.62872631,5.66433255 Z" id="形状" opacity="0.2"></path>
                    <path d="M109.881814,0 L109.881814,2.60530468e-15 C110.641493,-3.90693698e-08 111.257336,0.724572937 111.257336,1.61837713 L111.257336,21.848097 L111.257336,21.8482895 C111.257336,22.7420937 110.641493,23.4666667 109.881814,23.4666667 C109.122135,23.4666667 108.506292,22.7420937 108.506292,21.8482895 C108.506292,21.8481612 108.506292,21.8480328 108.506292,21.8479044 L108.506292,1.6183908 L108.506292,1.61839104 C108.506292,0.724586849 109.122133,1.39119791e-05 109.881814,1.39119791e-05 L109.881814,0 Z M93.3755218,6.4735131 L93.3755217,6.4735131 C94.1352007,6.47351306 94.7510435,7.19808603 94.7510435,8.09189022 L94.7510435,15.3745839 L94.7510435,15.3747764 C94.7510435,16.2685806 94.1352007,16.9931536 93.3755217,16.9931536 C92.6158428,16.9931536 92,16.2685806 92,15.3747764 C92,15.3746481 92,15.3745197 92,15.3743913 L92,8.09169764 L92,8.09169742 C92.0000002,7.19789323 92.6158428,6.47332029 93.3755218,6.47332029 L93.3755218,6.4735131 Z M126.388106,1.618384 L126.388106,1.618384 C127.147785,1.61838396 127.763628,2.34295694 127.763628,3.23676113 L127.763628,21.0389164 L127.763628,21.039109 C127.763628,21.9329132 127.147785,22.6574861 126.388106,22.6574861 C125.628427,22.6574861 125.012584,21.9329132 125.012584,21.039109 C125.012584,21.0389806 125.012584,21.0388522 125.012584,21.0387238 L125.012584,3.2367748 L125.012584,3.23677458 C125.012584,2.34297039 125.628427,1.61839745 126.388106,1.61839745 L126.388106,1.618384 Z M118.134979,5.66433255 L118.134979,5.66433255 C118.894658,5.66433251 119.510501,6.38890549 119.510501,7.28270968 L119.510501,16.9929679 L119.510501,16.9931604 C119.510501,17.8869646 118.894658,18.6115376 118.134979,18.6115376 C117.3753,18.6115376 116.759458,17.8869646 116.759458,16.9931604 C116.759458,16.9930321 116.759458,16.9929037 116.759458,16.9927753 L116.759458,7.28270043 L116.759458,7.28270021 C116.759458,6.38889602 117.3753,5.66432308 118.134979,5.66432308 L118.134979,5.66433255 Z M101.628726,5.66433255 L101.628726,5.66433255 C102.388405,5.66433251 103.004248,6.38890549 103.004248,7.28270968 L103.004248,16.9929679 L103.004248,16.9931604 C103.004248,17.8869646 102.388405,18.6115376 101.628726,18.6115376 C100.869047,18.6115376 100.253204,17.8869646 100.253204,16.9931604 C100.253204,16.9930321 100.253205,16.9929037 100.253205,16.9927753 L100.253205,7.28270043 L100.253205,7.28270021 C100.253205,6.38889602 100.869047,5.66432308 101.628726,5.66432308 L101.628726,5.66433255 Z" id="形状复制" opacity="0.2" transform="translate(109.881814, 11.733333) scale(-1, 1) translate(-109.881814, -11.733333) "></path>
                </g>
            </g>
        </g>
    </g>
</svg>