<?xml version="1.0" encoding="UTF-8"?>
<svg width="11px" height="10px" viewBox="0 0 11 10" version="1.1" xmlns="http://www.w3.org/2000/svg" xmlns:xlink="http://www.w3.org/1999/xlink">
    <!-- Generator: Sketch 61 (89581) - https://sketch.com -->
    <title>链接</title>
    <desc>Created with Sketch.</desc>
    <g id="页面1" stroke="none" stroke-width="1" fill="none" fill-rule="evenodd" opacity="0.5">
        <g id="33批量添加车站" transform="translate(-614.000000, -287.000000)" fill-rule="nonzero">
            <g id="编组-12" transform="translate(381.000000, 107.000000)">
                <g id="编组-11" transform="translate(223.000000, 176.000000)">
                    <g id="链接" transform="translate(9.000000, 3.000000)">
                        <rect id="矩形" fill="#000000" opacity="0" x="0" y="0" width="12" height="12"></rect>
                        <path d="M10.42752,1.6476 C9.60312,0.78768 8.20728,0.78768 7.38312,1.6476 L6.12912,2.93736 C5.98584,3.08088 5.98584,3.33168 6.12912,3.47496 C6.27216,3.61824 6.48744,3.61824 6.63072,3.47496 L7.88472,2.18496 C8.45784,1.6116 9.35352,1.6116 9.92592,2.18496 C10.49808,2.75832 10.49904,3.68976 9.92592,4.26192 L7.88328,6.33984 C7.31016,6.91344 6.41448,6.91344 5.84232,6.33984 C5.69904,6.1968 5.484,6.1968 5.34072,6.33984 C5.19744,6.48336 5.19744,6.73416 5.34072,6.87744 C6.16464,7.73736 7.56096,7.73736 8.38512,6.87744 L10.42608,4.80048 C11.28624,3.9048 11.28624,2.50752 10.42752,1.6476 L10.42752,1.6476 Z M5.48424,8.56032 L4.2312,9.85032 C3.65808,10.4232 2.76216,10.4232 2.19024,9.85032 C1.61712,9.27672 1.61712,8.34528 2.19024,7.77312 L4.2312,5.6964 C4.80456,5.12304 5.70024,5.12304 6.27216,5.6964 C6.41544,5.83968 6.63072,5.83968 6.774,5.6964 C6.91728,5.55312 6.91728,5.30208 6.774,5.15904 C5.94984,4.29912 4.55376,4.29912 3.7296,5.15904 L1.68744,7.23576 C0.82728,8.09592 0.86328,9.49152 1.68744,10.35168 C2.5116,11.21136 3.90768,11.21136 4.7316,10.35168 L5.98584,9.06216 C6.12912,8.9184 6.12912,8.66784 5.98584,8.52456 C5.83303332,8.41001123 5.61925105,8.42525217 5.48424,8.56032 L5.48424,8.56032 Z" id="形状" fill="#55626F"></path>
                    </g>
                </g>
            </g>
        </g>
    </g>
</svg>