<?xml version="1.0" encoding="UTF-8"?>
<svg width="14px" height="14px" viewBox="0 0 14 14" version="1.1" xmlns="http://www.w3.org/2000/svg" xmlns:xlink="http://www.w3.org/1999/xlink">
    <!-- Generator: Sketch 54.1 (76490) - https://sketchapp.com -->
    <title>无音乐图标</title>
    <desc>Created with Sketch.</desc>
    <g id="页面-1" stroke="none" stroke-width="1" fill="none" fill-rule="evenodd" fill-opacity="1">
        <g id="画板" transform="translate(-41.000000, -133.000000)" fill="#DCE6F0" fill-rule="nonzero">
            <g id="无音乐图标" transform="translate(41.000000, 133.000000)">
                <path d="M7.0000143,13.999993 L7.00001467,13.999993 C5.14300458,14.0026145 3.36159997,13.264628 2.05048059,11.94954 L2.05048099,11.9495404 C0.735385833,10.6384213 -0.0025974998,8.85701702 6.86984004e-06,7.00000692 L1.35316405e-05,6.9997945 C-0.00255113483,5.14278479 0.735489443,3.36140789 2.05061741,2.05032981 L2.05061699,2.05033023 C3.36172405,0.735328314 5.14305894,-0.0025974459 7.00000687,6.9227608e-06 L7.00000687,6.9227608e-06 C8.85701062,-0.00260748085 10.6384152,0.7353789 11.9495346,2.05046695 L11.9495346,2.05046698 C13.2646298,3.36158608 14.0026131,5.14299032 14.0000069,7.00000692 L14.0000018,6.99998892 C14.0025664,8.85698496 13.2645915,10.6383755 11.9495483,11.949522 L11.9495486,11.9495217 C10.6384292,13.2646207 8.8570246,14.0026134 7.00000084,13.9999884 L7.0000143,13.999993 Z M10.7962664,10.7964337 L10.7962664,10.7964337 C11.0679141,10.5247848 11.0679141,10.0843572 10.7962664,9.81270943 L4.20248411,3.21849408 L4.20248416,3.21849413 C3.93873097,2.93881691 3.49819374,2.92590679 3.21851531,3.18965835 C2.93883688,3.4534104 2.9259267,3.89394572 3.18967941,4.17362294 C3.19908293,4.1835942 3.20877893,4.19328561 3.21875467,4.20268434 L9.81207525,10.796438 L9.8120753,10.7964381 C10.0838319,11.0678278 10.5240484,11.0678278 10.7958038,10.796438 L10.7962664,10.7964337 Z" id="形状"></path>
            </g>
        </g>
    </g>
</svg>