<?xml version="1.0" encoding="UTF-8"?>
<svg width="18px" height="18px" viewBox="0 0 18 18" version="1.1" xmlns="http://www.w3.org/2000/svg">
    <!-- Generator: Sketch 52.5 (67469) - http://www.bohemiancoding.com/sketch -->
    <title>时钟</title>
    <desc>Created with Sketch.</desc>
    <g id="组件" stroke="none" stroke-width="1" fill="none" fill-rule="evenodd" opacity="0.5">
        <g id="菜单控件-2" transform="translate(-91.000000, -587.000000)" fill="#FBFEFE">
            <g id="分组-5">
                <g id="时钟" transform="translate(91.000000, 587.000000)">
                    <path d="M0.33572093,0 C0.150697674,0 0,0.150697674 0,0.33572093 L0,17.6651163 C0,17.8501395 0.150697674,18 0.33572093,18 L17.6642791,18 C17.8493023,18 18,17.8501395 18,17.6651163 L18,0.33572093 C18,0.150697674 17.8493023,0 17.6642791,0 L0.33572093,0 Z M16.02,15.7613835 C16.02,15.9034173 15.9042316,16.02 15.7621895,16.02 L2.23781053,16.02 C2.09576842,16.02 1.98,15.9034173 1.98,15.7613835 L1.98,2.23861646 C1.98,2.09576165 2.09576842,1.98 2.23781053,1.98 L16.02,1.98 L16.02,15.7613835 Z M11.7551721,11.7953581 C11.930986,11.6195442 11.9385209,11.3231721 11.7735907,11.1373116 L10.1761953,9.24689302 C10.0112651,9.06103256 9.86475349,8.70605581 9.85219535,8.45656744 L9.64540465,5.17470698 C9.63284651,4.92605581 9.41935814,4.72261395 9.17070698,4.72261395 L8.87266047,4.72261395 C8.62317209,4.72261395 8.40968372,4.92689302 8.39712558,5.17470698 L8.14428837,9.18242791 C8.13089302,9.43107907 8.2723814,9.77098605 8.45824186,9.93591628 L10.8861488,12.0230791 C11.0711721,12.1896837 11.3675442,12.1813116 11.5433581,12.0054977 L11.7551721,11.7953581 Z" id="Fill-5"></path>
                </g>
            </g>
        </g>
    </g>
</svg>