<?xml version="1.0" encoding="UTF-8"?>
<svg width="18px" height="16px" viewBox="0 0 18 16" version="1.1" xmlns="http://www.w3.org/2000/svg">
    <!-- Generator: Sketch 52.5 (67469) - http://www.bohemiancoding.com/sketch -->
    <title>Fill 1</title>
    <desc>Created with Sketch.</desc>
    <g id="组件" stroke="none" stroke-width="1" fill="none" fill-rule="evenodd" opacity="0.5">
        <g id="菜单控件-2" transform="translate(-27.000000, -588.000000)" fill="#FBFEFE">
            <g id="分组-5">
                <g id="网页" transform="translate(24.000000, 584.000000)">
                    <path d="M18.9069767,17.7162162 L5.09302326,17.7162162 C4.95404651,17.7162162 4.84186047,17.6075676 4.84186047,17.472973 L4.84186047,10.6321622 L19.1581395,10.6321622 L19.1581395,17.472973 C19.1581395,17.6075676 19.0459535,17.7162162 18.9069767,17.7162162 M5.09302326,6.28378378 L18.907814,6.28378378 C19.0467907,6.28378378 19.1581395,6.39243243 19.1581395,6.52540541 L19.1581395,9.41594595 L4.84186047,9.41594595 L4.84186047,6.52702703 C4.84186047,6.39243243 4.95404651,6.28378378 5.09302326,6.28378378 M20.6651163,4.5 C20.8501395,4.5 21,4.64513514 21,4.82513514 L21,19.1756757 C21,19.3548649 20.8501395,19.5 20.6651163,19.5 L3.33488372,19.5 C3.14986047,19.5 3,19.3548649 3,19.1756757 L3,4.82513514 C3,4.64513514 3.14986047,4.5 3.33488372,4.5 L20.6651163,4.5 Z M6.98863636,7.46068421 C6.98863636,7.13379276 6.74236364,6.86857895 6.43881818,6.86857895 C6.13527273,6.86857895 5.889,7.13379276 5.889,7.46068421 C5.889,7.78757566 6.13527273,8.05278947 6.43881818,8.05278947 C6.74236364,8.05278947 6.98863636,7.78757566 6.98863636,7.46068421 Z M9.28535455,7.46068421 C9.28535455,7.13379276 9.03908182,6.86857895 8.73553636,6.86857895 C8.43199091,6.86857895 8.18571818,7.13379276 8.18571818,7.46068421 C8.18571818,7.78757566 8.43199091,8.05278947 8.73553636,8.05278947 C9.03908182,8.05278947 9.28535455,7.78757566 9.28535455,7.46068421 Z M11.5817455,7.46068421 C11.5817455,7.13379276 11.3354727,6.86857895 11.0319273,6.86857895 C10.7283818,6.86857895 10.4821091,7.13379276 10.4821091,7.46068421 C10.4821091,7.78757566 10.7283818,8.05278947 11.0319273,8.05278947 C11.3354727,8.05278947 11.5817455,7.78757566 11.5817455,7.46068421 Z" id="Fill-1"></path>
                </g>
            </g>
        </g>
    </g>
</svg>