<?xml version="1.0" encoding="UTF-8"?>
<svg width="18px" height="19px" viewBox="0 0 18 19" version="1.1" xmlns="http://www.w3.org/2000/svg">
    <!-- Generator: Sketch 52.5 (67469) - http://www.bohemiancoding.com/sketch -->
    <title>背景</title>
    <desc>Created with Sketch.</desc>
    <g id="组件" stroke="none" stroke-width="1" fill="none" fill-rule="evenodd" opacity="0.5">
        <g id="菜单控件-2" transform="translate(-91.000000, -523.000000)" fill="#FFFFFF">
            <g id="分组-5">
                <g id="背景" transform="translate(88.000000, 520.000000)">
                    <g transform="translate(3.000000, 3.000000)" id="分组-2">
                        <g>
                            <path d="M2.30828178,17.2847473 L0.887610699,15.9309755 C0.797107563,15.8449148 0.794825972,15.703476 0.882286986,15.6144219 L15.3696335,0.894304866 C15.4570946,0.805250778 15.6015954,0.803005717 15.6920985,0.889814744 L17.1127696,2.24283821 C17.2025122,2.32964724 17.2055543,2.47108608 17.1173328,2.56014017 L2.63074673,17.2795088 C2.54328572,17.3685629 2.39878491,17.370808 2.30828178,17.2847473" id="Fill-1"></path>
                            <path d="M1.18767273,10.7650696 L0.0757636364,9.6795913 C-0.0224181818,9.58211304 -0.0256909091,9.42350435 0.0700363636,9.32354783 L8.89003636,0.0771565217 C8.98494545,-0.023626087 9.14285455,-0.0261043478 9.24185455,0.071373913 L10.3537636,1.15685217 C10.4527636,1.25350435 10.4552182,1.41293913 10.3594909,1.51289565 L1.54030909,10.759287 C1.44458182,10.8592435 1.28667273,10.8617217 1.18767273,10.7650696" id="Fill-3"></path>
                            <path d="M0.886009091,4.56454348 L0.0792818182,3.75497826 C-0.0189,3.65667391 -0.0189,3.49723913 0.0776454545,3.39893478 L3.33155455,0.0904565217 C3.4281,-0.00784782609 3.58682727,-0.00867391304 3.68419091,0.0888043478 L4.49173636,0.899195652 C4.5891,0.9975 4.58991818,1.1561087 4.49255455,1.25523913 L1.23864545,4.56371739 C1.14128182,4.66202174 0.984190909,4.66284783 0.886009091,4.56454348" id="Fill-5"></path>
                            <path d="M13.9813364,18.2772565 L13.1746091,17.4676913 C13.0764273,17.3685609 13.0764273,17.2099522 13.1729727,17.1108217 L16.4268818,13.8023435 C16.5234273,13.7040391 16.6813364,13.703213 16.7795182,13.8015174 L17.5862455,14.6119087 C17.6844273,14.709387 17.6844273,14.8688217 17.5878818,14.9671261 L14.3339727,18.2756043 C14.2366091,18.3739087 14.0795182,18.3747348 13.9813364,18.2772565" id="Fill-7"></path>
                            <path d="M8.68352727,18.2732087 L7.57161818,17.1877304 C7.47261818,17.0902522 7.47016364,16.9308174 7.56589091,16.8308609 L16.1208,7.89507826 C16.2173455,7.79512174 16.3744364,7.79181739 16.4734364,7.88929565 L17.5853455,8.97477391 C17.6843455,9.07142609 17.6868,9.23168696 17.5910727,9.33164348 L9.03616364,18.2666 C8.94043636,18.3665565 8.78252727,18.3698609 8.68352727,18.2732087" id="Fill-9"></path>
                        </g>
                    </g>
                </g>
            </g>
        </g>
    </g>
</svg>