<?xml version="1.0" encoding="UTF-8"?>
<svg width="20px" height="20px" viewBox="0 0 20 20" version="1.1" xmlns="http://www.w3.org/2000/svg" xmlns:xlink="http://www.w3.org/1999/xlink">
    <!-- Generator: Sketch 61 (89581) - https://sketch.com -->
    <title>退出全屏</title>
    <desc>Created with Sketch.</desc>
    <g id="退出全屏" stroke="none" stroke-width="1" fill="none" fill-rule="evenodd">
        <g id="全屏" fill="#fff" fill-rule="nonzero">
            <rect id="矩形" opacity="0" x="0" y="0" width="20" height="20"></rect>
            <path d="M4.75,5.91666668 L1.75,5.91666668 C1.25,5.91666668 0.916666665,6.25000002 0.916666685,6.75 C0.916666704,7.24999999 1.25,7.58333334 1.75,7.58333334 L6.91666668,7.58333334 C7.08333334,7.58333334 7.25,7.41666668 7.41666668,7.25 C7.58333334,7.08333334 7.58333334,6.91666668 7.58333334,6.75 L7.58333334,1.75 C7.58333334,1.25 7.25,0.916666665 6.75,0.916666685 C6.25,0.916666704 5.91666667,1.25000002 5.91666668,1.75 L5.91666668,4.75 L1.41666668,0.250000005 C1.08333334,-0.083333335 0.583333345,-0.083333335 0.250000005,0.250000005 C-0.083333335,0.583333345 -0.083333335,1.08333334 0.250000005,1.41666668 L4.75,5.91666668 Z M1.41666668,19.75 L4.41666668,16.75 L5.91666668,15.25 L5.91666668,18.25 C5.91666668,18.75 6.25,19.0833333 6.75,19.0833333 C7.25,19.0833333 7.58333334,18.75 7.58333334,18.25 L7.58333334,13.25 C7.58333334,12.75 7.25,12.4166667 6.75,12.4166667 L1.75,12.4166667 C1.25,12.4166667 0.916666665,12.75 0.916666685,13.25 C0.916666704,13.75 1.25000002,14.0833333 1.75,14.0833333 L4.75,14.0833333 L3.25,15.5833333 L0.250000005,18.5833333 C-0.083333335,18.9166667 -0.083333335,19.4166667 0.250000005,19.75 C0.583333345,20.0833333 1.08333334,20.0833333 1.41666668,19.75 L1.41666668,19.75 Z M13.25,19.0833333 C13.75,19.0833333 14.0833333,18.75 14.0833333,18.25 L14.0833333,15.25 L15.5833333,16.75 L18.5833333,19.75 C18.9166667,20.0833333 19.4166667,20.0833333 19.75,19.75 C20.0833333,19.4166667 20.0833333,18.9166667 19.75,18.5833333 L16.75,15.5833333 L15.25,14.0833333 L18.25,14.0833333 C18.75,14.0833333 19.0833333,13.75 19.0833333,13.25 C19.0833333,12.75 18.75,12.4166667 18.25,12.4166667 L13.25,12.4166667 C12.75,12.4166667 12.4166667,12.75 12.4166667,13.25 L12.4166667,18.25 C12.4166667,18.75 12.75,19.0833333 13.25,19.0833333 Z M13.25,7.58333334 L18.25,7.58333334 C18.75,7.58333334 19.0833333,7.25 19.0833333,6.75 C19.0833333,6.25 18.75,5.91666667 18.25,5.91666668 L15.25,5.91666668 L16.75,4.41666668 L19.75,1.41666668 C20.0833333,1.08333334 20.0833333,0.583333345 19.75,0.250000005 C19.4166667,-0.083333335 18.9166667,-0.083333335 18.5833333,0.250000005 L15.5833333,3.25 L14.0833333,4.75 L14.0833333,1.75 C14.0833333,1.25 13.75,0.916666665 13.25,0.916666685 C12.75,0.916666704 12.4166667,1.25000002 12.4166667,1.75 L12.4166667,6.75 C12.4166667,7.25 12.75,7.58333334 13.25,7.58333334 Z" id="形状"></path>
        </g>
    </g>
</svg>