<?xml version="1.0" encoding="UTF-8"?>
<svg width="19px" height="20px" viewBox="0 0 19 20" version="1.1" xmlns="http://www.w3.org/2000/svg" xmlns:xlink="http://www.w3.org/1999/xlink">
    <!-- Generator: Sketch 54.1 (76490) - https://sketchapp.com -->
    <title>音乐选择-为空音频图标</title>
    <desc>Created with Sketch.</desc>
    <g id="页面-1" stroke="none" stroke-width="1" fill="none" fill-rule="evenodd" opacity="0.2">
        <g id="画板" transform="translate(-100.000000, -47.000000)">
            <g id="音乐选择-为空音频图标" transform="translate(98.000000, 45.000000)">
                <g id="为空">
                    <g id="音乐" transform="translate(2.000000, 2.000000)" fill="#9FAABC" fill-rule="nonzero">
                        <path d="M18.0198055,0.0243798891 L7.10591291,1.92321049 C6.56437423,2.04256937 6.12519088,2.56432679 6.12519088,3.08933068 L6.12519088,4.03992522 L6.12519088,7.23168195 L6.12519088,12.2379449 C5.54526953,12.0873684 4.8858483,12.0745156 4.18599406,12.2287054 C1.87464822,12.7373809 0,14.8652604 0,16.9808741 C0,19.0965145 1.87462979,20.3983162 4.18599406,19.8900159 C6.49738598,19.3806079 8.37201117,17.2533716 8.37201117,15.1377356 C8.37201117,15.0590169 8.36863775,14.9820821 8.36340069,14.9055354 C8.36601922,14.8775881 8.37201117,14.8500069 8.37201117,14.8221055 L8.37201117,6.8140814 L16.7533755,5.35625193 L16.7533755,11.8861873 C16.2945435,11.8036492 15.7887428,11.811631 15.2559791,11.9288172 C13.1886158,12.384159 11.5125342,14.2869114 11.5125342,16.1786711 C11.5125342,18.0711678 13.1886274,19.2362003 15.2559791,18.780854 C17.3237179,18.3255122 19,16.4224917 19,14.5303747 C19,14.4977164 18.995683,14.4672534 18.9947629,14.4353269 C18.995683,14.4175569 19,14.4004959 19,14.382703 L19,4.90076673 L19,1.70918867 L19,0.758594134 C19,0.233931952 18.5610079,-0.0947781207 18.0198217,0.0244208497 L18.0198055,0.0243798891 Z" id="路径"></path>
                    </g>
                    <rect id="矩形" stroke="#979797" opacity="0" x="0.5" y="0.5" width="23" height="23"></rect>
                </g>
            </g>
        </g>
    </g>
</svg>