<?xml version="1.0" encoding="UTF-8"?>
<svg width="14px" height="14px" viewBox="0 0 14 14" version="1.1" xmlns="http://www.w3.org/2000/svg" xmlns:xlink="http://www.w3.org/1999/xlink">
    <!-- Generator: Sketch 54.1 (76490) - https://sketchapp.com -->
    <title>音乐播放图标-未悬停状态</title>
    <desc>Created with Sketch.</desc>
    <g id="页面-1" stroke="none" stroke-width="1" fill="none" fill-rule="evenodd" opacity="0.3">
        <g id="画板" transform="translate(-41.000000, -45.000000)" fill="#FFFFFF" fill-rule="nonzero">
            <g id="音乐播放图标-未悬停状态" transform="translate(41.000000, 45.000000)">
                <g id="播放">
                    <path d="M7,0 C10.8668974,0 14.0000163,3.1336931 14.0000163,7.00000815 C14.0000163,10.8663232 10.8661455,14.0000163 7.00000815,14.0000163 C3.13387083,14.0000163 0,10.8661455 0,7 C0,3.13387083 3.1336931,0 7,0 Z M5.25387525,9.27146977 C5.25387525,9.56819082 5.48249661,9.79962859 5.76316686,9.79962859 L5.76316687,9.79962859 C5.85431258,9.79846526 5.94365224,9.77405614 6.02272772,9.72871249 L9.85866382,7.50063177 L9.85866386,7.50063176 C10.0403879,7.41061247 10.1545195,7.22449101 10.1523498,7.02170542 L10.1523498,7.02170202 C10.153528,6.83299574 10.0563213,6.65730238 9.89582135,6.55804855 L6.1470162,4.37920031 C5.99252384,4.26169041 5.85652954,4.20302432 5.70505866,4.20302432 C5.42381419,4.20302432 5.2568804,4.43786639 5.2568804,4.72533157 L5.25064602,4.75929255 L5.26007963,9.20960242 L5.26007962,9.20960246 C5.25508928,9.22982605 5.25299481,9.25065545 5.25385892,9.27146776 L5.25387525,9.27146977 Z" id="形状"></path>
                </g>
            </g>
        </g>
    </g>
</svg>